<svg xmlns="http://www.w3.org/2000/svg" xmlns:xlink="http://www.w3.org/1999/xlink" width="1366" height="768" viewBox="0 0 1366 768">
  <defs>
    <clipPath id="clip-path">
      <rect id="Rectangle_4" data-name="Rectangle 4" width="1366" height="728" fill="#fff"/>
    </clipPath>
    <radialGradient id="radial-gradient" cx="0.5" cy="0.5" r="0.5" gradientUnits="objectBoundingBox">
      <stop offset="0" stop-color="#b8b8b8"/>
      <stop offset="0.24" stop-color="#d2d2d2"/>
      <stop offset="0.52" stop-color="#ebebeb"/>
      <stop offset="0.79" stop-color="#fafafa"/>
      <stop offset="1" stop-color="#fff"/>
    </radialGradient>
    <radialGradient id="radial-gradient-2" cx="0.5" cy="0.5" r="0.5" gradientUnits="objectBoundingBox">
      <stop offset="0"/>
      <stop offset="0.03" stop-color="#0c0c0c"/>
      <stop offset="0.19" stop-color="#4b4b4b"/>
      <stop offset="0.34" stop-color="#828282"/>
      <stop offset="0.5" stop-color="#afafaf"/>
      <stop offset="0.64" stop-color="#d2d2d2"/>
      <stop offset="0.78" stop-color="#ebebeb"/>
      <stop offset="0.9" stop-color="#fafafa"/>
      <stop offset="1" stop-color="#fff"/>
    </radialGradient>
    <linearGradient id="linear-gradient" x1="0.125" y1="-0.004" x2="0.816" y2="0.925" gradientUnits="objectBoundingBox">
      <stop offset="0" stop-color="#c2c2c2"/>
      <stop offset="0.16" stop-color="#d2d2d2"/>
      <stop offset="0.48" stop-color="#ebebeb"/>
      <stop offset="0.77" stop-color="#fafafa"/>
      <stop offset="1" stop-color="#fff"/>
    </linearGradient>
    <linearGradient id="linear-gradient-2" x1="0.115" y1="-0.087" x2="0.814" y2="0.979" xlink:href="#linear-gradient"/>
    <radialGradient id="radial-gradient-3" r="0.5" gradientTransform="translate(0.922 -0.067) rotate(81.64)" xlink:href="#radial-gradient-2"/>
    <linearGradient id="linear-gradient-3" x1="0.125" y1="-0.004" x2="0.816" y2="0.925" xlink:href="#linear-gradient"/>
    <linearGradient id="linear-gradient-4" x1="0.116" y1="-0.087" x2="0.814" y2="0.979" xlink:href="#linear-gradient"/>
    <radialGradient id="radial-gradient-4" r="0.5" gradientTransform="translate(0.5 -0.207) rotate(45)" xlink:href="#radial-gradient-2"/>
    <linearGradient id="linear-gradient-5" x1="0.125" y1="-0.004" x2="0.816" y2="0.925" xlink:href="#linear-gradient"/>
    <linearGradient id="linear-gradient-6" x1="0.115" y1="-0.087" x2="0.814" y2="0.979" xlink:href="#linear-gradient"/>
    <linearGradient id="linear-gradient-7" x1="0.126" y1="-0.004" x2="0.816" y2="0.925" xlink:href="#linear-gradient"/>
    <linearGradient id="linear-gradient-8" x1="0.115" y1="-0.087" x2="0.814" y2="0.979" xlink:href="#linear-gradient"/>
    <radialGradient id="radial-gradient-6" r="0.5" gradientTransform="translate(0)" xlink:href="#radial-gradient-2"/>
    <linearGradient id="linear-gradient-9" x1="0.126" y1="-0.004" x2="0.816" y2="0.925" xlink:href="#linear-gradient"/>
    <linearGradient id="linear-gradient-10" x1="0.116" y1="-0.087" x2="0.814" y2="0.979" xlink:href="#linear-gradient"/>
    <radialGradient id="radial-gradient-7" r="0.5" gradientTransform="matrix(0.233, 0.972, -0.972, 0.233, 0.87, -0.103)" xlink:href="#radial-gradient-2"/>
    <linearGradient id="linear-gradient-11" x1="0.125" y1="-0.004" x2="0.816" y2="0.925" xlink:href="#linear-gradient"/>
    <linearGradient id="linear-gradient-12" x1="0.115" y1="-0.087" x2="0.814" y2="0.979" xlink:href="#linear-gradient"/>
    <radialGradient id="radial-gradient-8" r="0.5" gradientTransform="translate(0)" xlink:href="#radial-gradient-2"/>
    <linearGradient id="linear-gradient-13" x1="0.125" y1="-0.004" x2="0.816" y2="0.925" xlink:href="#linear-gradient"/>
    <linearGradient id="linear-gradient-14" x1="0.115" y1="-0.087" x2="0.814" y2="0.979" xlink:href="#linear-gradient"/>
    <radialGradient id="radial-gradient-9" r="0.5" gradientTransform="translate(0.5 -0.207) rotate(45)" xlink:href="#radial-gradient-2"/>
    <linearGradient id="linear-gradient-16" x1="0.115" y1="-0.087" x2="0.814" y2="0.979" xlink:href="#linear-gradient"/>
    <linearGradient id="linear-gradient-17" x1="0.125" y1="-0.004" x2="0.816" y2="0.925" xlink:href="#linear-gradient"/>
    <linearGradient id="linear-gradient-18" x1="0.115" y1="-0.087" x2="0.814" y2="0.979" xlink:href="#linear-gradient"/>
    <linearGradient id="linear-gradient-19" x1="0.125" y1="-0.004" x2="0.816" y2="0.925" xlink:href="#linear-gradient"/>
    <radialGradient id="radial-gradient-12" r="0.5" gradientTransform="matrix(0.797, 0.604, -0.604, 0.797, 0.403, -0.2)" xlink:href="#radial-gradient-2"/>
    <linearGradient id="linear-gradient-21" x1="0.125" y1="-0.004" x2="0.816" y2="0.925" xlink:href="#linear-gradient"/>
    <linearGradient id="linear-gradient-22" x1="0.115" y1="-0.087" x2="0.814" y2="0.979" xlink:href="#linear-gradient"/>
    <radialGradient id="radial-gradient-13" r="0.5" gradientTransform="translate(0.5 -0.207) rotate(45)" xlink:href="#radial-gradient-2"/>
    <linearGradient id="linear-gradient-23" x1="0.125" y1="-0.004" x2="0.816" y2="0.925" xlink:href="#linear-gradient"/>
    <radialGradient id="radial-gradient-14" r="0.5" gradientTransform="matrix(0.707, 0.707, -0.707, 0.707, 0.5, -0.207)" xlink:href="#radial-gradient-2"/>
    <linearGradient id="linear-gradient-25" x1="0.125" y1="-0.004" x2="0.816" y2="0.925" xlink:href="#linear-gradient"/>
    <linearGradient id="linear-gradient-26" x1="0.116" y1="-0.087" x2="0.814" y2="0.979" xlink:href="#linear-gradient"/>
    <linearGradient id="linear-gradient-28" x1="0.115" y1="-0.087" x2="0.814" y2="0.979" xlink:href="#linear-gradient"/>
    <clipPath id="clip-Web_1366_1">
      <rect width="1366" height="768"/>
    </clipPath>
  </defs>
  <g id="Web_1366_1" data-name="Web 1366 – 1" clip-path="url(#clip-Web_1366_1)">
    <rect width="1366" height="768" fill="#fff"/>
    <g id="_19276_Converted_" data-name="19276 [Converted]" transform="translate(-48.79 -14.56)">
      <g id="Layer_1" data-name="Layer 1" transform="translate(48.79 14.56)">
        <rect id="Rectangle_1" data-name="Rectangle 1" width="1366" height="728" fill="#fff"/>
        <g id="Group_3" data-name="Group 3" transform="translate(0 0)" clip-path="url(#clip-path)">
          <path id="Path_1" data-name="Path 1" d="M240.072,166.768H10.28v-.936H239.516L295.9,63.306H441.1L475.658.52H769.577v.936H476.214L441.659,64.267h-145.2Z" transform="translate(-107.696 -36.036)" fill="#a6a6a6"/>
          <circle id="Ellipse_1" data-name="Ellipse 1" cx="1.771" cy="1.771" r="1.771" transform="translate(-99.086 128.506)" fill="#a6a6a6"/>
          <circle id="Ellipse_2" data-name="Ellipse 2" cx="1.771" cy="1.771" r="1.771" transform="translate(660.034 -36.832)" fill="#a6a6a6"/>
          <path id="Path_2" data-name="Path 2" d="M833.057,244.37l-37.54-68.224H612.6l-.126-.253L554.442,70.406H440.128L374.56,189.6H132.928l-.127-.253L65.21,66.485l.835-.455,67.44,122.612H374L439.546,69.47H555.024l.127.253,58,105.486H796.074l37.793,68.705Z" transform="translate(-23.673 64.171)" fill="#a6a6a6"/>
          <path id="Path_3" data-name="Path 3" d="M319.509,123.771a1.8,1.8,0,0,0,2.53.708,1.821,1.821,0,0,0,.708-2.53,1.8,1.8,0,0,0-3.137,1.72Z" transform="translate(488.66 185.325)" fill="#a6a6a6"/>
          <path id="Path_4" data-name="Path 4" d="M157.4,240.746l-.835-.455L270.91,32.43h209.2l.126.253,53.451,97.163H679.75v.936H533.132l-.152-.228L479.554,33.391H271.466Z" transform="translate(116.075 12.775)" fill="#a6a6a6"/>
          <path id="Path_5" data-name="Path 5" d="M315.646,59.427a1.783,1.783,0,0,0,0-3.567,1.8,1.8,0,0,0-1.8,1.8,1.771,1.771,0,0,0,1.8,1.771Z" transform="translate(480.078 85.446)" fill="#a6a6a6"/>
          <path id="Path_6" data-name="Path 6" d="M250.073,117.252H236.666L200.012,50.6H109.83V49.66h90.738l36.654,66.631h12.851Z" transform="translate(44.579 39.13)" fill="#a6a6a6"/>
          <circle id="Ellipse_3" data-name="Ellipse 3" cx="1.771" cy="1.771" r="1.771" transform="translate(292.781 154.131)" fill="#a6a6a6"/>
          <path id="Path_7" data-name="Path 7" d="M198.313,127.071H82.43v-.961H197.756l26.536-48.24.835.455Z" transform="translate(2.667 82.282)" fill="#a6a6a6"/>
          <path id="Path_8" data-name="Path 8" d="M92.6,65.475a1.865,1.865,0,1,0-3.238-1.847,1.8,1.8,0,0,0,.708,2.53,1.745,1.745,0,0,0,2.53-.683Z" transform="translate(136.285 95.84)" fill="#a6a6a6"/>
          <path id="Path_9" data-name="Path 9" d="M588.81,418.061h-269.1l-.152-.253L279.51,345H13.62v-.936H280.067l.152.228,40.044,72.828h267.99L685.189,240.91H871.623v.936H685.745Z" transform="translate(-102.587 331.674)" fill="#a6a6a6"/>
          <path id="Path_10" data-name="Path 10" d="M-34.044,270.157a1.771,1.771,0,0,1-1.268-.51,1.771,1.771,0,0,1-.528-1.261,1.8,1.8,0,0,1,1.8-1.8,1.771,1.771,0,0,1,1.261.528,1.771,1.771,0,0,1,.509,1.268,1.771,1.771,0,0,1-1.771,1.771Z" transform="translate(-54.822 407.787)" fill="#a6a6a6"/>
          <path id="Path_11" data-name="Path 11" d="M305.086,229.4a1.783,1.783,0,0,0,0-3.567,1.8,1.8,0,0,0-1.8,1.8,1.771,1.771,0,0,0,1.8,1.771Z" transform="translate(463.925 345.439)" fill="#a6a6a6"/>
          <path id="Path_12" data-name="Path 12" d="M57.615,325.426l-.835-.455L96.015,253.66H261.048l37.135,67.491H506.727l19.6-35.668.835.481-19.883,36.123H297.6L260.492,254.6H96.571Z" transform="translate(-36.568 351.177)" fill="#a6a6a6"/>
          <circle id="Ellipse_4" data-name="Ellipse 4" cx="1.771" cy="1.771" r="1.771" transform="translate(487.646 636.934) rotate(-43.77)" fill="#a6a6a6"/>
          <path id="Path_13" data-name="Path 13" d="M412.837,347.807H125.9v-.936H412.28l47.911-87.121.835.455Z" transform="translate(69.161 360.492)" fill="#a6a6a6"/>
          <path id="Path_14" data-name="Path 14" d="M212.077,247.332a1.8,1.8,0,0,0-.683-2.53,1.821,1.821,0,0,0-2.53.708,1.778,1.778,0,0,0,3.111,1.72Z" transform="translate(319.147 374.074)" fill="#a6a6a6"/>
          <path id="Path_15" data-name="Path 15" d="M589.657,314.068H407.244L385.161,273.9H12.14v-.936H385.717L407.8,313.106H589.1L649.027,204.18H942.971v.936H649.584Z" transform="translate(-104.851 275.49)" fill="#a6a6a6"/>
          <path id="Path_16" data-name="Path 16" d="M-35.549,219.857a1.771,1.771,0,0,1-1.771-1.771,1.771,1.771,0,0,1,.51-1.268,1.771,1.771,0,0,1,1.261-.528,1.771,1.771,0,0,1,1.261.528,1.771,1.771,0,0,1,.509,1.268A1.771,1.771,0,0,1-35.549,219.857Z" transform="translate(-57.086 330.846)" fill="#a6a6a6"/>
          <circle id="Ellipse_5" data-name="Ellipse 5" cx="1.771" cy="1.771" r="1.771" transform="translate(836.248 478.38)" fill="#a6a6a6"/>
          <rect id="Rectangle_2" data-name="Rectangle 2" width="157.546" height="0.936" transform="translate(513.264 536.486)" fill="#a6a6a6"/>
          <path id="Path_17" data-name="Path 17" d="M266.218,215.285a1.771,1.771,0,0,0,1.8-1.771,1.8,1.8,0,1,0-3.567,0,1.771,1.771,0,0,0,1.771,1.771Z" transform="translate(404.49 323.528)" fill="#a6a6a6"/>
          <path id="Path_18" data-name="Path 18" d="M532.292,258.325H390.05l-.152-.253-51.3-93.293H24.77v-.936H339.154l.126.228,51.326,93.293H531.735l53.907-98.024h244.11l23.1,42.017-.81.455L829.2,160.3H586.224Z" transform="translate(-85.532 206.901)" fill="#a6a6a6"/>
          <circle id="Ellipse_6" data-name="Ellipse 6" cx="1.771" cy="1.771" r="1.771" transform="translate(-62.431 369.429)" fill="#a6a6a6"/>
          <path id="Path_19" data-name="Path 19" d="M302.66,163.381a1.783,1.783,0,1,0,.721-2.416A1.783,1.783,0,0,0,302.66,163.381Z" transform="translate(462.632 245.89)" fill="#a6a6a6"/>
          <path id="Path_20" data-name="Path 20" d="M90.113,240.69H71.95v-.936H89.556l30.254-54.994H299.592v.936H120.367Z" transform="translate(-13.364 245.785)" fill="#a6a6a6"/>
          <circle id="Ellipse_7" data-name="Ellipse 7" cx="1.771" cy="1.771" r="1.771" transform="translate(56.917 484.249)" fill="#a6a6a6"/>
          <path id="Path_21" data-name="Path 21" d="M320.933,298.4h-93.6l-.152-.228L185.37,222.134l.835-.481,41.688,75.813h92.484L371.6,204.325H529.958l11.965-21.755.835.455-12.243,22.261H372.159Z" transform="translate(160.128 242.435)" fill="#a6a6a6"/>
          <path id="Path_22" data-name="Path 22" d="M280.3,170.054a1.772,1.772,0,1,0-2.4.708A1.772,1.772,0,0,0,280.3,170.054Z" transform="translate(423.671 256.115)" fill="#a6a6a6"/>
          <path id="Path_23" data-name="Path 23" d="M309.774,243.463H193.613l-.152-.253L136.14,138.964l.835-.455L194.17,242.5H309.218L388.143,98.97H435.7l25.4,46.166-.835.481L435.143,99.906H388.725Z" transform="translate(84.824 114.557)" fill="#a6a6a6"/>
          <path id="Path_24" data-name="Path 24" d="M215.152,104.721a1.8,1.8,0,1,0,.708-2.53,1.821,1.821,0,0,0-.708,2.53Z" transform="translate(328.72 156.009)" fill="#a6a6a6"/>
          <path id="Path_25" data-name="Path 25" d="M292.585,229.707H202.732L179.94,188.221l.809-.455,22.539,40.98h88.74l51.681-93.976H525.565v.961h-181.3Z" transform="translate(151.822 169.318)" fill="#a6a6a6"/>
          <path id="Path_26" data-name="Path 26" d="M268.826,123.282a1.8,1.8,0,1,0-1.8-1.8A1.8,1.8,0,0,0,268.826,123.282Z" transform="translate(408.46 183.083)" fill="#a6a6a6"/>
          <path id="Path_27" data-name="Path 27" d="M95.277,131.056H44.431L20.45,87.445l.835-.455,23.728,43.13H94.72L117.74,88.23h46.343v.961H118.322Z" transform="translate(-92.14 96.232)" fill="#a6a6a6"/>
          <path id="Path_28" data-name="Path 28" d="M-25.43,72.791a1.821,1.821,0,0,0-1.114-.893,1.821,1.821,0,0,0-1.416.185,1.821,1.821,0,0,0-.893,1.114,1.821,1.821,0,0,0,.185,1.416,1.8,1.8,0,0,0,1.111.9,1.8,1.8,0,0,0,1.419-.2,1.821,1.821,0,0,0,.893-1.114,1.821,1.821,0,0,0-.185-1.416Z" transform="translate(-44.237 109.875)" fill="#a6a6a6"/>
          <path id="Path_29" data-name="Path 29" d="M105.946,211.445H63.3L35.85,161.535l.835-.455,27.168,49.429h42.093Z" transform="translate(-68.584 209.563)" fill="#a6a6a6"/>
          <path id="Path_30" data-name="Path 30" d="M15.8,169.141a1.771,1.771,0,1,0-1.771-1.771A1.771,1.771,0,0,0,15.8,169.141Z" transform="translate(21.461 253.308)" fill="#a6a6a6"/>
          <path id="Path_31" data-name="Path 31" d="M25.515,271.032l-.835-.455L41.5,239.993H306.76l18.466-33.543h31.342v.961H325.783l-18.466,33.543H42.059Z" transform="translate(-85.67 278.963)" fill="#a6a6a6"/>
          <path id="Path_32" data-name="Path 32" d="M108.146,194.962a1.8,1.8,0,1,0-1.8-1.8,1.8,1.8,0,0,0,1.8,1.8Z" transform="translate(162.677 292.727)" fill="#a6a6a6"/>
          <path id="Path_33" data-name="Path 33" d="M43.329,200.484l-.809-.455L78.112,135.27h98.074l13.989,25.423h70.5v.961H189.619L175.63,136.231H78.669Z" transform="translate(-58.381 170.083)" fill="#a6a6a6"/>
          <path id="Path_34" data-name="Path 34" d="M81,133.832a1.8,1.8,0,1,0-1.771-1.771A1.8,1.8,0,0,0,81,133.832Z" transform="translate(121.193 199.22)" fill="#a6a6a6"/>
          <path id="Path_35" data-name="Path 35" d="M225.086,199.739l-12.092-21.983H157.57v-.936h55.981l12.37,22.463Z" transform="translate(117.604 233.639)" fill="#a6a6a6"/>
          <path id="Path_36" data-name="Path 36" d="M135.124,173.242a1.8,1.8,0,0,0,2.53.683,1.745,1.745,0,0,0,.708-2.4,1.8,1.8,0,1,0-3.137,1.72Z" transform="translate(206.378 260.718)" fill="#a6a6a6"/>
          <path id="Path_37" data-name="Path 37" d="M259.863,229.128H150.33v-.936H259.307L339.674,82.08h72.6v.936H340.23Z" transform="translate(106.53 88.721)" fill="#a6a6a6"/>
          <path id="Path_38" data-name="Path 38" d="M206.136,70.577a1.789,1.789,0,1,0-1.8-1.8A1.8,1.8,0,0,0,206.136,70.577Z" transform="translate(312.567 102.501)" fill="#a6a6a6"/>
          <rect id="Rectangle_3" data-name="Rectangle 3" width="70.678" height="0.936" transform="translate(562.541 189.597)" fill="#a6a6a6"/>
          <path id="Path_39" data-name="Path 39" d="M251.237,78.014a1.8,1.8,0,1,0-1.583-1.783A1.8,1.8,0,0,0,251.237,78.014Z" transform="translate(381.881 113.859)" fill="#a6a6a6"/>
          <path id="Path_40" data-name="Path 40" d="M210.218,128.635H175.41V127.7h34.251L251.6,51.43H428.045l18.163,33.062-.835.455L427.489,52.391H252.159Z" transform="translate(144.893 41.838)" fill="#a6a6a6"/>
          <path id="Path_41" data-name="Path 41" d="M233.015,52.006a1.821,1.821,0,0,0,2.53.708,1.8,1.8,0,0,0,.683-2.53,1.745,1.745,0,0,0-2.4-.708,1.8,1.8,0,0,0-.81,2.53Z" transform="translate(356.062 75.336)" fill="#a6a6a6"/>
          <path id="Path_42" data-name="Path 42" d="M225,73.7H178.121L151.56,25.385l.835-.455,26.283,47.81H225Z" transform="translate(108.411 1.302)" fill="#a6a6a6"/>
          <circle id="Ellipse_8" data-name="Ellipse 8" cx="1.771" cy="1.771" r="1.771" transform="translate(331.56 72.752)" fill="#a6a6a6"/>
          <path id="Path_43" data-name="Path 43" d="M294.5,78.789l-.835-.455L319.649,31.08H452.177v.961H320.206Z" transform="translate(325.788 10.71)" fill="#a6a6a6"/>
          <circle id="Ellipse_9" data-name="Ellipse 9" cx="1.771" cy="1.771" r="1.771" transform="translate(776.094 40.5)" fill="#a6a6a6"/>
          <path id="Path_44" data-name="Path 44" d="M280.282,271.929H230.043l-21.173-38.45.835-.455L230.6,270.967h49.126l52.692-95.8H448.882v.961H332.974Z" transform="translate(196.075 231.115)" fill="#a6a6a6"/>
          <path id="Path_45" data-name="Path 45" d="M256.016,163.667a1.789,1.789,0,1,0-1.8-1.8A1.8,1.8,0,0,0,256.016,163.667Z" transform="translate(388.865 244.895)" fill="#a6a6a6"/>
          <path id="Path_46" data-name="Path 46" d="M24.215,339.979l-.835-.455L75.921,244.03H197.849v.936H76.477Z" transform="translate(-87.658 336.446)" fill="#a6a6a6"/>
          <circle id="Ellipse_10" data-name="Ellipse 10" cx="1.771" cy="1.771" r="1.771" transform="translate(108.345 579.186)" fill="#a6a6a6"/>
          <path id="Path_47" data-name="Path 47" d="M356.448,313.717H191.161l-.126-.253L146.26,232.085l.835-.455,44.623,81.126h164.73Z" transform="translate(100.304 317.479)" fill="#a6a6a6"/>
          <path id="Path_48" data-name="Path 48" d="M181.616,252.172a1.8,1.8,0,1,0-1.8-1.8A1.8,1.8,0,0,0,181.616,252.172Z" transform="translate(275.06 380.238)" fill="#a6a6a6"/>
          <path id="Path_49" data-name="Path 49" d="M199.573,264.4,172.86,215.83h57.2v.936H174.479l25.929,47.153Z" transform="translate(140.992 293.311)" fill="#a6a6a6"/>
          <path id="Path_50" data-name="Path 50" d="M134.332,222.332a1.771,1.771,0,1,0,.708-2.53,1.745,1.745,0,0,0-.708,2.53Z" transform="translate(205.045 335.934)" fill="#a6a6a6"/>
          <path id="Path_51" data-name="Path 51" d="M141.593,157.1H64.059L35.12,104.485l.835-.455,28.661,52.136h76.977Z" transform="translate(-69.7 122.297)" fill="#a6a6a6"/>
          <circle id="Ellipse_11" data-name="Ellipse 11" cx="1.771" cy="1.771" r="1.771" transform="translate(70.046 277.147)" fill="#a6a6a6"/>
          <path id="Path_52" data-name="Path 52" d="M253.224,169.962H216.19V169h36.477L283.2,113.5l.835.455Z" transform="translate(207.272 136.783)" fill="#a6a6a6"/>
          <path id="Path_53" data-name="Path 53" d="M196.679,100.948a1.771,1.771,0,1,0-2.53.708,1.745,1.745,0,0,0,2.53-.708Z" transform="translate(295.715 150.498)" fill="#a6a6a6"/>
          <path id="Path_54" data-name="Path 54" d="M176,99.9H101.043L82.83,66.765l.809-.455L101.6,98.942H176Z" transform="translate(3.279 64.599)" fill="#a6a6a6"/>
          <path id="Path_55" data-name="Path 55" d="M71.787,67.714A1.8,1.8,0,1,0,70.2,65.931,1.8,1.8,0,0,0,71.787,67.714Z" transform="translate(107.387 98.103)" fill="#a6a6a6"/>
          <path id="Path_56" data-name="Path 56" d="M377.372,35.144H232.626L214.16,1.575l.835-.455,18.188,33.088H377.372Z" transform="translate(204.167 -35.118)" fill="#a6a6a6"/>
          <path id="Path_57" data-name="Path 57" d="M230.936,2.687A1.771,1.771,0,0,0,232.707.916a1.771,1.771,0,0,0-1.771-1.8,1.8,1.8,0,0,0-1.8,1.8,1.771,1.771,0,0,0,1.8,1.771Z" transform="translate(350.502 -1.346)" fill="#a6a6a6"/>
          <path id="Path_58" data-name="Path 58" d="M321.815,103.174l-.835-.481L349.767,50.33h33.366v.961H350.349Z" transform="translate(367.563 40.155)" fill="#a6a6a6"/>
          <path id="Path_59" data-name="Path 59" d="M297.791,38.842a1.8,1.8,0,1,0-1.771-1.771A1.8,1.8,0,0,0,297.791,38.842Z" transform="translate(452.804 53.92)" fill="#a6a6a6"/>
          <path id="Path_60" data-name="Path 60" d="M245.69,180.005a4.705,4.705,0,1,1-4.705-4.705A4.705,4.705,0,0,1,245.69,180.005Z" transform="translate(361.423 268.146)" fill="#cfcfcf"/>
          <circle id="Ellipse_12" data-name="Ellipse 12" cx="1.29" cy="1.29" r="1.29" transform="translate(728.663 141.23)" fill="#cfcfcf"/>
          <path id="Path_61" data-name="Path 61" d="M58.285,244.333A11.307,11.307,0,1,1,47,233a11.307,11.307,0,0,1,11.282,11.333Z" transform="translate(54.562 356.406)" fill="#cfcfcf"/>
          <path id="Path_62" data-name="Path 62" d="M289.619,18.041a1.3,1.3,0,1,1-1.391-1.391A1.391,1.391,0,0,1,289.619,18.041Z" transform="translate(439.043 25.469)" fill="#cfcfcf"/>
          <path id="Path_63" data-name="Path 63" d="M282.885,246.894a1.391,1.391,0,1,1-.63-1.359,1.391,1.391,0,0,1,.63,1.359Z" transform="translate(428.475 375.245)" fill="#cfcfcf"/>
          <circle id="Ellipse_13" data-name="Ellipse 13" cx="1.847" cy="1.847" r="1.847" transform="translate(641.921 335.759)" fill="#cfcfcf"/>
          <circle id="Ellipse_14" data-name="Ellipse 14" cx="9.183" cy="9.183" r="9.183" transform="translate(371.554 396.319)" fill="#cfcfcf"/>
          <path id="Path_64" data-name="Path 64" d="M104.477,53.729A10.119,10.119,0,1,1,94.359,43.61,10.119,10.119,0,0,1,104.477,53.729Z" transform="translate(128.857 66.708)" fill="#cfcfcf"/>
          <path id="Path_65" data-name="Path 65" d="M219.161,265.925a11.105,11.105,0,1,1-3.262-7.861,11.13,11.13,0,0,1,3.262,7.861Z" transform="translate(301.186 389.783)" fill="#cfcfcf"/>
          <path id="Path_66" data-name="Path 66" d="M130.57,192.485a1.695,1.695,0,1,1-1.695-1.695A1.695,1.695,0,0,1,130.57,192.485Z" transform="translate(194.54 291.84)" fill="#cfcfcf"/>
          <circle id="Ellipse_15" data-name="Ellipse 15" cx="2.909" cy="2.909" r="2.909" transform="translate(545.77 327.209)" fill="#cfcfcf"/>
          <path id="Path_67" data-name="Path 67" d="M178.147,57.368a2,2,0,1,1-2-2A2,2,0,0,1,178.147,57.368Z" transform="translate(266.387 84.696)" fill="#cfcfcf"/>
          <circle id="Ellipse_16" data-name="Ellipse 16" cx="1.594" cy="1.594" r="1.594" transform="translate(708.426 436.869)" fill="#cfcfcf"/>
          <path id="Path_68" data-name="Path 68" d="M66.1,79.1a1.442,1.442,0,1,1-1.442-1.417A1.442,1.442,0,0,1,66.1,79.1Z" transform="translate(96.704 118.822)" fill="#cfcfcf"/>
          <path id="Path_69" data-name="Path 69" d="M163.032,17.917a1.391,1.391,0,1,1-.4-1,1.391,1.391,0,0,1,.4,1Z" transform="translate(245.125 25.239)" fill="#cfcfcf"/>
          <path id="Path_70" data-name="Path 70" d="M127.96,150.155a8.095,8.095,0,1,1-8.095-8.095A8.095,8.095,0,0,1,127.96,150.155Z" transform="translate(170.968 217.301)" fill="#cfcfcf"/>
          <path id="Path_71" data-name="Path 71" d="M44.008,127.979a1.619,1.619,0,1,1-1.619-1.619A1.619,1.619,0,0,1,44.008,127.979Z" transform="translate(62.363 193.285)" fill="#cfcfcf"/>
          <path id="Path_72" data-name="Path 72" d="M225.114,94.3a3.567,3.567,0,1,1-3.567-3.567A3.567,3.567,0,0,1,225.114,94.3Z" transform="translate(333.431 138.784)" fill="#cfcfcf"/>
          <path id="Path_73" data-name="Path 73" d="M102.2,224.606a1.821,1.821,0,1,1-1.821-1.8,1.821,1.821,0,0,1,1.821,1.8Z" transform="translate(150.761 340.819)" fill="#cfcfcf"/>
          <path id="Path_74" data-name="Path 74" d="M21.041,212.17a2.175,2.175,0,1,1-2.15-2.15,2.15,2.15,0,0,1,2.15,2.15Z" transform="translate(25.53 321.255)" fill="#cfcfcf"/>
          <path id="Path_75" data-name="Path 75" d="M171.124,191.232a1.442,1.442,0,1,1-1.417-1.442,1.416,1.416,0,0,1,1.417,1.442Z" transform="translate(257.347 290.31)" fill="#cfcfcf"/>
          <path id="Path_76" data-name="Path 76" d="M17.431,51.411a1.341,1.341,0,1,1-1.341-1.341A1.341,1.341,0,0,1,17.431,51.411Z" transform="translate(22.562 76.589)" fill="#cfcfcf"/>
          <path id="Path_77" data-name="Path 77" d="M219.428,199.589A7.589,7.589,0,1,1,211.839,192,7.589,7.589,0,0,1,219.428,199.589Z" transform="translate(312.429 293.691)" fill="#cfcfcf"/>
          <path id="Path_78" data-name="Path 78" d="M44.3,181.642a6.577,6.577,0,1,1-6.552-6.552A6.577,6.577,0,0,1,44.3,181.642Z" transform="translate(47.648 267.825)" fill="#cfcfcf"/>
          <path id="Path_79" data-name="Path 79" d="M102.108,101.911a1.834,1.834,0,1,1-1.821-1.821,1.821,1.821,0,0,1,1.821,1.821Z" transform="translate(150.578 153.102)" fill="#cfcfcf"/>
          <path id="Path_80" data-name="Path 80" d="M263.277,76.6a9.208,9.208,0,1,1-2.688-6.553A9.258,9.258,0,0,1,263.277,76.6Z" transform="translate(374.395 103.006)" fill="#cfcfcf"/>
          <circle id="Ellipse_17" data-name="Ellipse 17" cx="5.439" cy="5.439" r="5.439" transform="translate(107.231 685.887)" fill="#cfcfcf"/>
          <path id="Path_81" data-name="Path 81" d="M200.834,158.5a1.442,1.442,0,1,1-1.442-1.442,1.417,1.417,0,0,1,1.442,1.442Z" transform="translate(302.792 240.245)" fill="#cfcfcf"/>
          <circle id="Ellipse_18" data-name="Ellipse 18" cx="1.492" cy="1.492" r="1.492" transform="translate(170.093 409.625)" fill="#cfcfcf"/>
          <path id="Path_82" data-name="Path 82" d="M95.239,187.27a2.53,2.53,0,1,1-2.53-2.53A2.53,2.53,0,0,1,95.239,187.27Z" transform="translate(137.943 282.586)" fill="#cfcfcf"/>
          <path id="Path_83" data-name="Path 83" d="M287.255,275.643a1.518,1.518,0,1,1-1.492-1.492A1.492,1.492,0,0,1,287.255,275.643Z" transform="translate(434.754 419.351)" fill="#cfcfcf"/>
          <circle id="Ellipse_19" data-name="Ellipse 19" cx="9.157" cy="9.157" r="9.157" transform="translate(725.956 326.374)" fill="#cfcfcf"/>
          <path id="Path_84" data-name="Path 84" d="M65.991,212.313a1.543,1.543,0,0,1-1.543,1.568,1.568,1.568,0,0,1-1.568-1.568,1.556,1.556,0,0,1,3.111,0Z" transform="translate(96.184 322.402)" fill="#cfcfcf"/>
          <circle id="Ellipse_20" data-name="Ellipse 20" cx="7.235" cy="7.235" r="7.235" transform="translate(29.698 654.873)" fill="#cfcfcf"/>
          <path id="Path_85" data-name="Path 85" d="M86.326,263.378a6.653,6.653,0,1,1-6.653-6.628,6.653,6.653,0,0,1,6.653,6.628Z" transform="translate(111.694 392.735)" fill="#cfcfcf"/>
          <path id="Path_86" data-name="Path 86" d="M201.123,229.271a6.1,6.1,0,1,1-6.1-6.071,6.1,6.1,0,0,1,6.1,6.071Z" transform="translate(288.995 341.416)" fill="#cfcfcf"/>
          <circle id="Ellipse_21" data-name="Ellipse 21" cx="11.029" cy="11.029" r="11.029" transform="translate(594.263 649.864)" fill="#cfcfcf"/>
          <circle id="Ellipse_22" data-name="Ellipse 22" cx="6.248" cy="6.248" r="6.248" transform="translate(343.373 574.431)" fill="#cfcfcf"/>
          <circle id="Ellipse_23" data-name="Ellipse 23" cx="6.021" cy="6.021" r="6.021" transform="translate(420.047 686.291)" fill="#cfcfcf"/>
          <circle id="Ellipse_24" data-name="Ellipse 24" cx="7.715" cy="7.715" r="7.715" transform="translate(506.105 23.905)" fill="#cfcfcf"/>
          <path id="Path_87" data-name="Path 87" d="M26.549,162.124a8.9,8.9,0,1,1-8.9-8.9,8.9,8.9,0,0,1,8.9,8.9Z" transform="translate(13.369 234.371)" fill="#cfcfcf"/>
          <path id="Path_88" data-name="Path 88" d="M280.3,97.1a1.619,1.619,0,1,1-1.619-1.619A1.619,1.619,0,0,1,280.3,97.1Z" transform="translate(423.802 146.05)" fill="#cfcfcf"/>
          <path id="Path_89" data-name="Path 89" d="M255.582,215.893A1.594,1.594,0,1,1,254,214.5,1.594,1.594,0,0,1,255.582,215.893Z" transform="translate(386.112 328.107)" fill="#cfcfcf"/>
          <path id="Path_90" data-name="Path 90" d="M31.694,84.57a2.125,2.125,0,0,1-2.125,2.1,2.1,2.1,0,1,1,0-4.2,2.125,2.125,0,0,1,2.125,2.1Z" transform="translate(42.019 126.149)" fill="#cfcfcf"/>
          <circle id="Ellipse_25" data-name="Ellipse 25" cx="1.594" cy="1.594" r="1.594" transform="translate(232.752 31.722)" fill="#cfcfcf"/>
          <path id="Path_91" data-name="Path 91" d="M155.542,101.066a6.906,6.906,0,1,1-6.906-6.906A6.906,6.906,0,0,1,155.542,101.066Z" transform="translate(216.796 144.031)" fill="#cfcfcf"/>
          <circle id="Ellipse_26" data-name="Ellipse 26" cx="1.442" cy="1.442" r="1.442" transform="translate(410.004 327.184)" fill="#cfcfcf"/>
          <path id="Path_92" data-name="Path 92" d="M145.446,262.393a2.808,2.808,0,1,1-2.808-2.783,2.808,2.808,0,0,1,2.808,2.783Z" transform="translate(213.89 397.11)" fill="#cfcfcf"/>
          <path id="Path_93" data-name="Path 93" d="M296.8,212.13a2.53,2.53,0,1,1-2.53-2.53A2.53,2.53,0,0,1,296.8,212.13Z" transform="translate(446.257 320.613)" fill="#cfcfcf"/>
          <path id="Path_94" data-name="Path 94" d="M92.837,133.119A10.119,10.119,0,1,1,82.719,123,10.119,10.119,0,0,1,92.837,133.119Z" transform="translate(111.052 188.146)" fill="#cfcfcf"/>
          <circle id="Ellipse_27" data-name="Ellipse 27" cx="7.867" cy="7.867" r="7.867" transform="translate(617.257 20.87)" fill="#cfcfcf"/>
          <path id="Path_95" data-name="Path 95" d="M54.366,34.4a3.238,3.238,0,1,1-3.238-3.213A3.238,3.238,0,0,1,54.366,34.4Z" transform="translate(73.254 47.709)" fill="#cfcfcf"/>
          <path id="Path_96" data-name="Path 96" d="M217.443,41.731a1.417,1.417,0,1,1-1.391-1.391,1.417,1.417,0,0,1,1.391,1.391Z" transform="translate(328.276 61.706)" fill="#cfcfcf"/>
          <circle id="Ellipse_28" data-name="Ellipse 28" cx="1.467" cy="1.467" r="1.467" transform="translate(325.337 77.736)" fill="#cfcfcf"/>
          <path id="Path_97" data-name="Path 97" d="M108.812,271.291a1.366,1.366,0,1,1-1.341-1.341,1.366,1.366,0,0,1,1.341,1.341Z" transform="translate(162.264 412.926)" fill="#cfcfcf"/>
          <circle id="Ellipse_29" data-name="Ellipse 29" cx="2.175" cy="2.175" r="2.175" transform="translate(30.938 285.065)" fill="#cfcfcf"/>
          <path id="Path_98" data-name="Path 98" d="M187.623,99.956A2.251,2.251,0,1,1,185.4,97.73a2.2,2.2,0,0,1,2.226,2.226Z" transform="translate(280.108 149.492)" fill="#cfcfcf"/>
          <path id="Path_99" data-name="Path 99" d="M137.483,75.021A9.081,9.081,0,1,1,128.4,65.94,9.081,9.081,0,0,1,137.483,75.021Z" transform="translate(182.517 100.864)" fill="#cfcfcf"/>
          <circle id="Ellipse_30" data-name="Ellipse 30" cx="8.601" cy="8.601" r="8.601" transform="matrix(0.159, -0.987, 0.987, 0.159, 41.152, 45.506)" fill="#cfcfcf"/>
          <circle id="Ellipse_31" data-name="Ellipse 31" cx="10.65" cy="10.65" r="10.65" transform="translate(636.181 97.046) rotate(-67.32)" fill="#cfcfcf"/>
          <circle id="Ellipse_32" data-name="Ellipse 32" cx="269.609" cy="269.609" r="269.609" transform="translate(-23.93 125.242)" fill="url(#radial-gradient)"/>
          <circle id="Ellipse_33" data-name="Ellipse 33" cx="202.144" cy="202.144" r="202.144" transform="translate(67.971 148.313)" fill="url(#radial-gradient-2)"/>
          <path id="Path_100" data-name="Path 100" d="M357.449,87.25H183.688L96.82,237.713,183.688,388.2H357.449l86.868-150.488Z" transform="translate(24.679 96.63)" fill="#fff"/>
          <path id="Path_101" data-name="Path 101" d="M353.384,88.5H183.316L98.27,235.8l85.046,147.3H353.384l85.047-147.3Z" transform="translate(26.897 98.542)" fill="url(#linear-gradient)"/>
          <path id="Path_102" data-name="Path 102" d="M333.137,94.78H181.384L105.52,226.195,181.384,357.61H333.137L409,226.195Z" transform="translate(37.986 108.148)" fill="#006fbc"/>
          <path id="Path_103" data-name="Path 103" d="M319.627,98.97H180.117L110.35,219.786l69.767,120.841h139.51l69.767-120.841Z" transform="translate(45.375 114.557)" fill="url(#linear-gradient-2)"/>
          <circle id="Ellipse_34" data-name="Ellipse 34" cx="95.848" cy="95.848" r="95.848" transform="translate(362.322 628.078) rotate(-81.64)" fill="url(#radial-gradient-3)"/>
          <path id="Path_104" data-name="Path 104" d="M330.758,199.64h-82.39L207.16,271l41.208,71.361h82.39L371.941,271Z" transform="translate(193.459 268.546)" fill="#fff"/>
          <path id="Path_105" data-name="Path 105" d="M328.817,200.24H248.172L207.85,270.083l40.322,69.843h80.645l40.322-69.843Z" transform="translate(194.515 269.464)" fill="url(#linear-gradient-3)"/>
          <path id="Path_106" data-name="Path 106" d="M319.2,203.22H247.261L211.29,265.525l35.971,62.3H319.2l36-62.3Z" transform="translate(199.777 274.022)" fill="#0097ce"/>
          <path id="Path_107" data-name="Path 107" d="M309.759,206.15H246.366l-31.7,54.893,31.7,54.893h63.393l31.7-54.893Z" transform="translate(204.947 278.504)" fill="url(#linear-gradient-4)"/>
          <circle id="Ellipse_35" data-name="Ellipse 35" cx="110.469" cy="110.469" r="110.469" transform="translate(344.662 230.396) rotate(-45)" fill="url(#radial-gradient-4)"/>
          <path id="Path_108" data-name="Path 108" d="M357.119,69.65H262.181L214.7,151.889l47.481,82.239h94.937L404.6,151.889Z" transform="translate(204.993 69.708)" fill="#fff"/>
          <path id="Path_109" data-name="Path 109" d="M354.924,70.34H261.959L215.49,150.833l46.469,80.493h92.964l46.47-80.493Z" transform="translate(206.201 70.763)" fill="url(#linear-gradient-5)"/>
          <path id="Path_110" data-name="Path 110" d="M343.832,73.77H260.911L219.45,145.586,260.911,217.4h82.922l41.461-71.816Z" transform="translate(212.258 76.01)" fill="#ff3036"/>
          <path id="Path_111" data-name="Path 111" d="M332.959,77.15H259.878L223.35,140.416l36.528,63.266h73.081l36.528-63.266Z" transform="translate(218.224 81.18)" fill="url(#linear-gradient-6)"/>
          <circle id="Ellipse_36" data-name="Ellipse 36" cx="53.78" cy="53.78" r="53.78" transform="translate(225.037 487.563)" fill="url(#radial-gradient-2)"/>
          <path id="Path_112" data-name="Path 112" d="M212.692,211.04H166.476l-23.1,40.019,23.1,40.044h46.217l23.121-40.044Z" transform="translate(95.899 285.984)" fill="#fff"/>
          <path id="Path_113" data-name="Path 113" d="M211.63,211.38H166.4l-22.64,39.159,22.64,39.184h45.23l22.615-39.184Z" transform="translate(96.48 286.504)" fill="url(#linear-gradient-7)"/>
          <path id="Path_114" data-name="Path 114" d="M206.25,213.04H165.877L145.69,248l20.187,34.96H206.25L226.411,248Z" transform="translate(99.432 289.043)" fill="#92377e"/>
          <path id="Path_115" data-name="Path 115" d="M200.94,214.69H165.373L147.59,245.476l17.783,30.811H200.94l17.783-30.811Z" transform="translate(102.338 291.567)" fill="url(#linear-gradient-8)"/>
          <circle id="Ellipse_37" data-name="Ellipse 37" cx="53.78" cy="53.78" r="53.78" transform="translate(339.579 64.405)" fill="url(#radial-gradient-6)"/>
          <path id="Path_116" data-name="Path 116" d="M258,43.76H211.781L188.66,83.779l23.121,40.044H258l23.121-40.044Z" transform="translate(165.161 30.105)" fill="#fff"/>
          <path id="Path_117" data-name="Path 117" d="M256.92,44.09H211.665L189.05,83.274l22.615,39.184H256.92l22.615-39.184Z" transform="translate(165.757 30.61)" fill="url(#linear-gradient-9)"/>
          <path id="Path_118" data-name="Path 118" d="M251.514,45.76H211.167L190.98,80.72l20.187,34.96h40.348L271.7,80.72Z" transform="translate(168.71 33.165)" fill="#ffb500"/>
          <path id="Path_119" data-name="Path 119" d="M246.22,47.41H210.653L192.87,78.2l17.783,30.811H246.22L264,78.2Z" transform="translate(171.601 35.689)" fill="url(#linear-gradient-10)"/>
          <circle id="Ellipse_38" data-name="Ellipse 38" cx="86.514" cy="86.514" r="86.514" transform="translate(-20.71 683.58) rotate(-76.52)" fill="url(#radial-gradient-7)"/>
          <path id="Path_120" data-name="Path 120" d="M168.222,231.34H93.876L56.69,295.719l37.186,64.4h74.346l37.186-64.4Z" transform="translate(-36.706 317.035)" fill="#fff"/>
          <path id="Path_121" data-name="Path 121" d="M166.489,231.88H93.712l-36.4,63.013,36.4,63.039h72.778l36.4-63.039Z" transform="translate(-35.757 317.861)" fill="url(#linear-gradient-11)"/>
          <path id="Path_122" data-name="Path 122" d="M157.811,234.56H92.875L60.42,290.794l32.455,56.234h64.936l32.455-56.234Z" transform="translate(-31 321.961)" fill="#919191"/>
          <path id="Path_123" data-name="Path 123" d="M149.275,237.21H92.08L63.47,286.74,92.08,336.3h57.2l28.61-49.556Z" transform="translate(-26.335 326.014)" fill="url(#linear-gradient-12)"/>
          <circle id="Ellipse_39" data-name="Ellipse 39" cx="116.313" cy="116.313" r="116.313" transform="translate(26.89 87.197)" fill="url(#radial-gradient-8)"/>
          <path id="Path_124" data-name="Path 124" d="M221.557,57.12H121.586L71.6,143.71l49.986,86.564h99.971l49.986-86.564Z" transform="translate(-13.899 50.541)" fill="#fff"/>
          <path id="Path_125" data-name="Path 125" d="M219.225,57.84H121.353L72.43,142.608l48.923,84.743h97.872l48.949-84.743Z" transform="translate(-12.629 51.643)" fill="url(#linear-gradient-13)"/>
          <path id="Path_126" data-name="Path 126" d="M207.585,61.46H120.262L76.6,137.071l43.662,75.611h87.323l43.636-75.611Z" transform="translate(-6.251 57.18)" fill="#009d7e"/>
          <path id="Path_127" data-name="Path 127" d="M196.087,65.01H119.161L80.71,131.641l38.451,66.631h76.926l38.476-66.631Z" transform="translate(0.036 62.61)" fill="url(#linear-gradient-14)"/>
          <g id="Group_1" data-name="Group 1" transform="translate(-125.786 -88.806)" opacity="0.5">
            <circle id="Ellipse_40" data-name="Ellipse 40" cx="286.608" cy="286.608" r="286.608" transform="translate(0 405.327) rotate(-45)" fill="url(#radial-gradient-9)"/>
            <path id="Path_128" data-name="Path 128" d="M445.52,46.32H199.158L75.99,259.67,199.158,473.02H445.52L568.713,259.67Z" transform="translate(118.602 122.827)" fill="#fff"/>
            <path id="Path_129" data-name="Path 129" d="M439.778,48.1H198.628L78.04,256.947,198.628,465.794H439.778L560.366,256.947Z" transform="translate(121.738 125.55)" fill="url(#linear-gradient)"/>
            <path id="Path_130" data-name="Path 130" d="M411.077,57.01H195.906L88.32,243.318,195.906,429.651H411.077l107.56-186.333Z" transform="translate(137.463 139.179)" fill="#006fbc"/>
            <path id="Path_131" data-name="Path 131" d="M391.907,62.94H194.089L95.18,234.247,194.089,405.58H391.907l98.909-171.332Z" transform="translate(147.956 148.25)" fill="url(#linear-gradient-16)"/>
            <circle id="Ellipse_41" data-name="Ellipse 41" cx="135.918" cy="135.918" r="135.918" transform="translate(498.071 684.263) rotate(-45)" fill="url(#radial-gradient-9)"/>
            <path id="Path_132" data-name="Path 132" d="M407.668,205.69H290.849L232.44,306.85l58.409,101.186H407.668L466.077,306.85Z" transform="translate(357.914 366.606)" fill="#fff"/>
            <path id="Path_133" data-name="Path 133" d="M404.955,206.53H290.59l-57.17,99.035L290.59,404.6H404.955l57.17-99.035Z" transform="translate(359.413 367.891)" fill="url(#linear-gradient-17)"/>
            <path id="Path_134" data-name="Path 134" d="M391.333,210.75H289.313L238.29,299.11l51.023,88.36h102.02l51-88.36Z" transform="translate(366.863 374.346)" fill="#0097ce"/>
            <path id="Path_135" data-name="Path 135" d="M377.92,214.91h-89.9L243.09,292.747l44.926,77.862h89.9l44.952-77.862Z" transform="translate(374.205 380.709)" fill="url(#linear-gradient-18)"/>
            <circle id="Ellipse_42" data-name="Ellipse 42" cx="156.635" cy="156.635" r="156.635" transform="translate(550.108 315.107)" fill="url(#radial-gradient-2)"/>
            <path id="Path_136" data-name="Path 136" d="M434.861,114.92H300.234L232.92,231.511,300.234,348.1H434.861l67.314-116.591Z" transform="translate(358.648 227.76)" fill="#fff"/>
            <path id="Path_137" data-name="Path 137" d="M431.716,115.89H299.947l-65.9,114.137,65.9,114.137H431.716l65.9-114.137Z" transform="translate(360.377 229.244)" fill="url(#linear-gradient-19)"/>
            <path id="Path_138" data-name="Path 138" d="M416.026,120.76H298.449L239.66,222.578,298.449,324.4H416.026l58.789-101.818Z" transform="translate(368.958 236.694)" fill="#ff3036"/>
            <path id="Path_139" data-name="Path 139" d="M400.586,125.54H297L245.19,215.266,297,304.993H400.586l51.807-89.726Z" transform="translate(377.417 244.005)" fill="url(#linear-gradient-16)"/>
            <circle id="Ellipse_43" data-name="Ellipse 43" cx="76.243" cy="76.243" r="76.243" transform="matrix(0.797, -0.604, 0.604, 0.797, 310.851, 661.195)" fill="url(#radial-gradient-12)"/>
            <path id="Path_140" data-name="Path 140" d="M240.3,221.85H174.759L142,278.59l32.759,56.765H240.3l32.759-56.765Z" transform="translate(219.574 391.325)" fill="#fff"/>
            <path id="Path_141" data-name="Path 141" d="M238.777,222.32H174.626L142.55,277.871l32.076,55.576h64.152l32.076-55.576Z" transform="translate(220.415 392.044)" fill="url(#linear-gradient-21)"/>
            <path id="Path_142" data-name="Path 142" d="M231.136,224.69H173.89l-28.61,49.556,28.61,49.581h57.246l28.61-49.581Z" transform="translate(224.591 395.669)" fill="#92377e"/>
            <path id="Path_143" data-name="Path 143" d="M223.606,227.02H173.191L147.97,270.682l25.221,43.687h50.416l25.221-43.687Z" transform="translate(228.706 399.233)" fill="url(#linear-gradient-22)"/>
            <circle id="Ellipse_44" data-name="Ellipse 44" cx="76.243" cy="76.243" r="76.243" transform="translate(356.077 327.672) rotate(-45)" fill="url(#radial-gradient-13)"/>
            <path id="Path_144" data-name="Path 144" d="M258.592,84.16H193.049L160.29,140.9l32.759,56.765h65.543L291.351,140.9Z" transform="translate(247.551 180.709)" fill="#fff"/>
            <path id="Path_145" data-name="Path 145" d="M257.068,84.63H192.916L160.84,140.181l32.076,55.551h64.152l32.076-55.551Z" transform="translate(248.392 181.428)" fill="url(#linear-gradient-23)"/>
            <path id="Path_146" data-name="Path 146" d="M249.426,87H192.18l-28.61,49.556,28.61,49.581h57.246l28.61-49.581Z" transform="translate(252.568 185.053)" fill="#ffb500"/>
            <path id="Path_147" data-name="Path 147" d="M241.9,89.33H191.481L166.26,132.992l25.221,43.687H241.9l25.221-43.687Z" transform="translate(256.683 188.617)" fill="url(#linear-gradient-22)"/>
            <circle id="Ellipse_45" data-name="Ellipse 45" cx="122.662" cy="122.662" r="122.662" transform="translate(10.364 610.649) rotate(-45)" fill="url(#radial-gradient-14)"/>
            <path id="Path_148" data-name="Path 148" d="M194.228,180.9H88.818L36.1,272.195l52.718,91.295h105.41l52.718-91.295Z" transform="translate(57.585 328.686)" fill="#fff"/>
            <path id="Path_149" data-name="Path 149" d="M191.769,181.66H88.585l-51.6,89.372,51.6,89.372H191.769l51.6-89.372Z" transform="translate(58.931 329.849)" fill="url(#linear-gradient-25)"/>
            <path id="Path_150" data-name="Path 150" d="M179.473,185.47H87.419L41.38,265.2l46.039,79.734h92.054L225.512,265.2Z" transform="translate(65.661 335.677)" fill="#919191"/>
            <path id="Path_151" data-name="Path 151" d="M167.4,189.22H86.275L45.7,259.468l40.575,70.248H167.4l40.55-70.248Z" transform="translate(72.269 341.413)" fill="url(#linear-gradient-26)"/>
            <circle id="Ellipse_46" data-name="Ellipse 46" cx="164.907" cy="164.907" r="164.907" transform="translate(2.365 262.263)" fill="url(#radial-gradient-2)"/>
            <path id="Path_152" data-name="Path 152" d="M229.9,94.6H88.141L17.26,217.363,88.141,340.127H229.9l70.88-122.763Z" transform="translate(28.766 196.678)" fill="#fff"/>
            <path id="Path_153" data-name="Path 153" d="M226.589,95.62H87.813L18.45,215.8,87.813,335.961H226.589L295.951,215.8Z" transform="translate(30.587 198.238)" fill="url(#linear-gradient-17)"/>
            <path id="Path_154" data-name="Path 154" d="M210.061,100.75H86.26L24.36,207.956l61.9,107.206h123.8l61.9-107.206Z" transform="translate(39.627 206.085)" fill="#009d7e"/>
            <path id="Path_155" data-name="Path 155" d="M193.8,105.78H84.719L30.18,200.262l54.539,94.457H193.8l54.539-94.457Z" transform="translate(48.529 213.78)" fill="url(#linear-gradient-28)"/>
          </g>
          <path id="Path_156" data-name="Path 156" d="M253.9,161.93H248.87l-2.53,4.351,2.53,4.376H253.9l2.5-4.376Z" transform="translate(253.39 210.863)" fill="#adadad"/>
          <path id="Path_157" data-name="Path 157" d="M258.794,161.93H253.76l-2.53,4.351,2.53,4.376h5.034l2.5-4.376Z" transform="translate(260.87 210.863)" fill="#adadad"/>
          <path id="Path_158" data-name="Path 158" d="M263.684,161.93H258.65l-2.53,4.351,2.53,4.376h5.034l2.5-4.376Z" transform="translate(268.35 210.863)" fill="#adadad"/>
          <path id="Path_159" data-name="Path 159" d="M268.574,161.93h-5.059l-2.5,4.351,2.5,4.376h5.059l2.5-4.376Z" transform="translate(275.83 210.863)" fill="#adadad"/>
          <g id="Group_2" data-name="Group 2" transform="translate(76.648 404.11)">
            <path id="Path_160" data-name="Path 160" d="M126.141,174.31H94.774L79.09,201.5l15.684,27.168h31.368L141.825,201.5Z" transform="translate(-79.09 -174.31)" fill="#ebebeb"/>
            <path id="Path_161" data-name="Path 161" d="M156.6,174.31H125.234L109.55,201.5l15.684,27.168H156.6L172.285,201.5Z" transform="translate(-32.497 -174.31)" fill="#ebebeb"/>
            <path id="Path_162" data-name="Path 162" d="M187.077,174.31H155.709L140,201.5l15.709,27.168h31.368L202.76,201.5Z" transform="translate(14.08 -174.31)" fill="#ebebeb"/>
            <path id="Path_163" data-name="Path 163" d="M217.537,174.31H186.144L170.46,201.5l15.684,27.168h31.393L233.22,201.5Z" transform="translate(60.673 -174.31)" fill="#ebebeb"/>
          </g>
        </g>
      </g>
    </g>
  </g>
</svg>
