<?xml version="1.0" encoding="utf-8"?>
<!-- Generator: Adobe Illustrator 23.0.1, SVG Export Plug-In . SVG Version: 6.00 Build 0)  -->
<svg version="1.1" id="Capa_1" xmlns="http://www.w3.org/2000/svg" xmlns:xlink="http://www.w3.org/1999/xlink" x="0px" y="0px"
	 viewBox="0 0 480 480" style="enable-background:new 0 0 480 480;" xml:space="preserve">
<style type="text/css">
	.st0{fill:#2F87FF;}
	.st1{font-family:'ProductSans-Bold';}
	.st2{font-size:134.9611px;}
</style>
<g>
	<g>
		<path class="st0" d="M480,88V72h-40v-8c0-13.3-10.7-24-24-24h-8V0h-16v40h-16V0h-16v40h-16V0h-16v40h-16V0h-16v40h-16V0h-16v40
			h-16V0h-16v40h-16V0h-16v40h-16V0h-16v40h-16V0h-16v40h-16V0h-16v40H88V0H72v40h-8c-13.3,0-24,10.7-24,24v8H0v16h40v16H0v16h40v16
			H0v16h40v16H0v16h40v16H0v16h40v16H0v16h40v16H0v16h40v16H0v16h40v16H0v16h40v16H0v16h40v16H0v16h40v8c0,13.3,10.7,24,24,24h8v40
			h16v-40h16v40h16v-40h16v40h16v-40h16v40h16v-40h16v40h16v-40h16v40h16v-40h16v40h16v-40h16v40h16v-40h16v40h16v-40h16v40h16v-40
			h16v40h16v-40h8c13.3,0,24-10.7,24-24v-8h40v-16h-40v-16h40v-16h-40v-16h40v-16h-40v-16h40v-16h-40v-16h40v-16h-40v-16h40v-16h-40
			v-16h40v-16h-40v-16h40v-16h-40v-16h40v-16h-40v-16h40v-16h-40V88H480z M424,416c0,4.4-3.6,8-8,8H64c-4.4,0-8-3.6-8-8V64
			c0-4.4,3.6-8,8-8h352c4.4,0,8,3.6,8,8V416z"/>
	</g>
</g>
<g>
	<g>
		<path class="st0" d="M400,72H80c-4.4,0-8,3.6-8,8v320c0,4.4,3.6,8,8,8h320c4.4,0,8-3.6,8-8V80C408,75.6,404.4,72,400,72z M392,392
			H88V88h304V392z"/>
	</g>
</g>
<text transform="matrix(1 0 0 1 106.374 279.5352)" class="st0 st1 st2">CPU</text>
</svg>
