<?xml version="1.0" encoding="utf-8"?>
<!-- Generator: Adobe Illustrator 23.0.1, SVG Export Plug-In . SVG Version: 6.00 Build 0)  -->
<svg version="1.1"
	 id="svg2" xmlns:cc="http://creativecommons.org/ns#" xmlns:dc="http://purl.org/dc/elements/1.1/" xmlns:inkscape="http://www.inkscape.org/namespaces/inkscape" xmlns:rdf="http://www.w3.org/1999/02/22-rdf-syntax-ns#" xmlns:svg="http://www.w3.org/2000/svg"
	 xmlns="http://www.w3.org/2000/svg" xmlns:xlink="http://www.w3.org/1999/xlink" x="0px" y="0px" viewBox="0 0 56.3 56.3"
	 style="enable-background:new 0 0 56.3 56.3;" xml:space="preserve">
<style type="text/css">
	.st0{fill-rule:evenodd;clip-rule:evenodd;fill:#6DA549;}
	.st1{fill-rule:evenodd;clip-rule:evenodd;fill:#0D9902;}
	.st2{fill:#E6E6E6;}
</style>
<g id="g14">
	<g id="g20">
		<g id="g22">
			<g id="g24">
				<path id="path26" class="st0" d="M10.5,53.2V4c0-1.3,1-2.3,2.3-2.3h19.9l17.1,17.1v34.4c0,1.3-1,2.3-2.3,2.3H12.8
					C11.5,55.4,10.5,54.4,10.5,53.2z"/>
			</g>
		</g>
		<g id="g28">
			<g id="g30">
				<path id="path32" class="st1" d="M32.7,1.7l17.1,17.1H35c-1.3,0-2.3-1-2.3-2.3V1.7z"/>
			</g>
		</g>
		<g id="g34">
			<g id="g36">
				<path id="path38" class="st2" d="M22.8,47.3l0.5,0.9c-0.7,0.8-1.7,1.2-3,1.2c-1.2,0-2.2-0.4-3-1.2c-0.8-0.8-1.2-1.8-1.2-3.1
					c0-1.3,0.4-2.3,1.2-3.1c0.8-0.8,1.8-1.2,3-1.2c1.2,0,2.2,0.4,2.9,1.1l-0.5,0.9c-0.2-0.2-0.5-0.5-0.9-0.7
					c-0.4-0.2-0.9-0.3-1.4-0.3c-0.9,0-1.6,0.3-2.2,0.9c-0.6,0.6-0.9,1.4-0.9,2.3c0,1,0.3,1.7,0.9,2.3c0.6,0.6,1.3,0.9,2.2,0.9
					C21.4,48.3,22.2,48,22.8,47.3z"/>
			</g>
		</g>
		<g id="g40">
			<g id="g42">
				<path id="path44" class="st2" d="M29.6,46.9c0,0.7-0.3,1.3-0.9,1.8c-0.5,0.4-1.2,0.6-2,0.6c-0.3,0-0.6,0-0.9-0.1
					c-0.3-0.1-0.6-0.2-0.8-0.4c-0.2-0.2-0.4-0.3-0.5-0.4c-0.1-0.1-0.3-0.3-0.4-0.4l0.7-0.8c0.2,0.3,0.5,0.6,0.9,0.8
					c0.4,0.2,0.8,0.4,1.2,0.4c0.5,0,0.8-0.1,1.2-0.4s0.5-0.6,0.5-1c0-0.2,0-0.4-0.1-0.5c-0.1-0.2-0.2-0.3-0.4-0.4
					c-0.2-0.1-0.3-0.2-0.4-0.2c-0.1,0-0.2-0.1-0.4-0.2c-0.6-0.3-1.1-0.4-1.3-0.6c-0.3-0.2-0.6-0.3-0.8-0.6c-0.4-0.4-0.5-0.8-0.5-1.4
					c0-0.6,0.3-1.2,0.8-1.6c0.5-0.4,1.1-0.6,1.9-0.6c0.9,0,1.7,0.4,2.4,1.1l-0.6,0.8c-0.6-0.6-1.2-0.9-1.8-0.9c-0.4,0-0.8,0.1-1,0.3
					c-0.3,0.2-0.4,0.5-0.4,0.8c0,0.2,0,0.3,0.1,0.5c0.1,0.1,0.1,0.3,0.3,0.4c0.1,0.1,0.2,0.2,0.3,0.2c0.1,0.1,0.2,0.1,0.4,0.2
					l1.5,0.6c0.4,0.2,0.7,0.4,0.9,0.7C29.4,46,29.6,46.4,29.6,46.9z"/>
			</g>
		</g>
		<g id="g46">
			<g id="g48">
				<path id="path50" class="st2" d="M35.9,41h1.2l-3,8.2h-1L30,41h1.2l2.3,6.6C33.5,47.6,35.9,41,35.9,41z"/>
			</g>
		</g>
	</g>
</g>
</svg>
