<svg xmlns="http://www.w3.org/2000/svg" xmlns:xlink="http://www.w3.org/1999/xlink" viewBox="0 0 251.78 124.99"><defs><style>.cls-1{isolation:isolate;}.cls-2,.cls-5{mix-blend-mode:overlay;}.cls-3{fill:#ccc;}.cls-4{font-size:6.62px;fill:#777;font-family:OpenSans-Semibold, Open Sans;font-weight:600;}.cls-5{fill:url(#linear-gradient);}.cls-6{fill:url(#linear-gradient-2);}.cls-7{fill:#95def4;}</style><linearGradient id="linear-gradient" x1="131.29" y1="125.47" x2="131.29" y2="31.4" gradientUnits="userSpaceOnUse"><stop offset="0.01" stop-color="#fff" stop-opacity="0"/><stop offset="0.08" stop-color="#e4ffff" stop-opacity="0.05"/><stop offset="0.38" stop-color="#83ffff" stop-opacity="0.24"/><stop offset="0.65" stop-color="#3bffff" stop-opacity="0.38"/><stop offset="0.86" stop-color="#10ffff" stop-opacity="0.47"/><stop offset="1" stop-color="aqua" stop-opacity="0.5"/></linearGradient><linearGradient id="linear-gradient-2" x1="17.09" y1="48.22" x2="196.1" y2="48.22" gradientUnits="userSpaceOnUse"><stop offset="0" stop-color="#00ead1"/><stop offset="0.13" stop-color="#00e0d1"/><stop offset="0.35" stop-color="#00c4cf"/><stop offset="0.64" stop-color="#0097ce"/><stop offset="0.98" stop-color="#0058cb"/><stop offset="1" stop-color="#0055cb"/></linearGradient></defs><title>DemoGraph</title><g class="cls-1"><g id="Layer_1" data-name="Layer 1"><g class="cls-2"><rect class="cls-3" x="11.69" y="3.18" width="239.82" height="0.73"/><rect class="cls-3" x="11.69" y="11.36" width="239.82" height="0.73"/><rect class="cls-3" x="11.69" y="19.53" width="239.82" height="0.73"/><rect class="cls-3" x="11.69" y="27.7" width="239.82" height="0.74"/><rect class="cls-3" x="11.69" y="35.87" width="239.82" height="0.74"/><rect class="cls-3" x="11.69" y="44.04" width="239.82" height="0.74"/><rect class="cls-3" x="11.69" y="52.22" width="239.82" height="0.73"/><rect class="cls-3" x="11.69" y="60.39" width="239.82" height="0.73"/><rect class="cls-3" x="11.69" y="68.56" width="239.82" height="0.73"/><rect class="cls-3" x="11.69" y="76.73" width="239.82" height="0.73"/><rect class="cls-3" x="11.69" y="84.9" width="239.82" height="0.73"/><rect class="cls-3" x="11.69" y="93.07" width="239.82" height="0.73"/><rect class="cls-3" x="11.69" y="101.25" width="239.82" height="0.73"/><rect class="cls-3" x="11.69" y="109.42" width="239.82" height="0.73"/><rect class="cls-3" x="11.05" y="3.41" width="0.73" height="106.7"/><rect class="cls-3" x="32.87" y="3.41" width="0.73" height="106.7"/><rect class="cls-3" x="54.69" y="3.41" width="0.73" height="106.7"/><rect class="cls-3" x="76.5" y="3.41" width="0.73" height="106.7"/><rect class="cls-3" x="98.32" y="3.41" width="0.73" height="106.7"/><rect class="cls-3" x="120.14" y="3.41" width="0.73" height="106.7"/><rect class="cls-3" x="141.96" y="3.41" width="0.73" height="106.7"/><rect class="cls-3" x="163.78" y="3.41" width="0.73" height="106.7"/><rect class="cls-3" x="185.59" y="3.41" width="0.73" height="106.7"/><rect class="cls-3" x="207.41" y="3.41" width="0.73" height="106.7"/><rect class="cls-3" x="229.23" y="3.41" width="0.73" height="106.7"/><rect class="cls-3" x="251.05" y="3.41" width="0.73" height="106.7"/></g><text class="cls-4" transform="translate(24.62 122.85)">2015</text><text class="cls-4" transform="translate(47.31 122.85)">2016</text><text class="cls-4" transform="translate(69.71 122.85)">2017</text><text class="cls-4" transform="translate(90.89 122.85)">2018</text><text class="cls-4" transform="translate(112.92 122.85)">2019</text><text class="cls-4" transform="translate(135.61 122.85)">2020</text><text class="cls-4" transform="translate(158.11 122.85)">2021</text><text class="cls-4" transform="translate(179.43 122.85)">2022</text><text class="cls-4" transform="translate(200.8 122.85)">2023</text><text class="cls-4" transform="translate(222.78 122.85)">2024</text><text class="cls-4" transform="translate(4.91 123.12)">0</text><text class="cls-4" transform="translate(0 103.5)">10</text><text class="cls-4" transform="translate(0 87.27)">20</text><text class="cls-4" transform="translate(0 70.48)">30</text><text class="cls-4" transform="translate(0 54.26)">40</text><text class="cls-4" transform="translate(0 38.69)">50</text><text class="cls-4" transform="translate(0 22.47)">60</text><text class="cls-4" transform="translate(0 5.67)">70</text><polygon class="cls-5" points="245.49 33.38 219.32 33.38 194.04 14.92 168.99 34.7 143.06 25.25 118.44 62.61 92.51 62.61 67.03 81.46 42.2 52.67 16.93 62.34 16.93 110.64 245.66 110.64 245.49 33.38"/><polygon class="cls-6" points="66.94 82.35 42 53.45 17.16 62.95 16.69 61.72 42.4 51.89 67.13 80.57 92.29 61.95 118.09 61.95 142.79 24.45 168.87 33.96 194.03 14.1 219.53 32.73 245.49 32.73 245.49 34.04 219.1 34.04 194.06 15.75 169.11 35.45 143.32 26.05 118.8 63.27 92.72 63.27 66.94 82.35"/><path class="cls-7" d="M32.8,75.24A2.82,2.82,0,1,1,30,72.42,2.82,2.82,0,0,1,32.8,75.24Z" transform="translate(-13.05 -12.9)"/><path class="cls-7" d="M58.08,65.57a2.83,2.83,0,1,1-2.83-2.82A2.83,2.83,0,0,1,58.08,65.57Z" transform="translate(-13.05 -12.9)"/><path class="cls-7" d="M82.91,94.36a2.82,2.82,0,1,1-2.82-2.82A2.82,2.82,0,0,1,82.91,94.36Z" transform="translate(-13.05 -12.9)"/><path class="cls-7" d="M108.38,75.51a2.82,2.82,0,1,1-2.82-2.82A2.83,2.83,0,0,1,108.38,75.51Z" transform="translate(-13.05 -12.9)"/><path class="cls-7" d="M134.32,75.51a2.83,2.83,0,1,1-2.83-2.82A2.83,2.83,0,0,1,134.32,75.51Z" transform="translate(-13.05 -12.9)"/><path class="cls-7" d="M158.93,38.15a2.82,2.82,0,1,1-2.82-2.82A2.82,2.82,0,0,1,158.93,38.15Z" transform="translate(-13.05 -12.9)"/><path class="cls-7" d="M184.87,47.6A2.83,2.83,0,1,1,182,44.78,2.83,2.83,0,0,1,184.87,47.6Z" transform="translate(-13.05 -12.9)"/><path class="cls-7" d="M209.92,27.82A2.83,2.83,0,1,1,207.1,25,2.83,2.83,0,0,1,209.92,27.82Z" transform="translate(-13.05 -12.9)"/><path class="cls-7" d="M235.19,46.28a2.82,2.82,0,1,1-2.82-2.82A2.83,2.83,0,0,1,235.19,46.28Z" transform="translate(-13.05 -12.9)"/><path class="cls-7" d="M261.37,46.39a2.83,2.83,0,1,1-2.83-2.82A2.83,2.83,0,0,1,261.37,46.39Z" transform="translate(-13.05 -12.9)"/></g></g></svg>