<?xml version="1.0" encoding="utf-8"?>
<!-- Generator: Adobe Illustrator 23.0.1, SVG Export Plug-In . SVG Version: 6.00 Build 0)  -->
<svg version="1.1" xmlns="http://www.w3.org/2000/svg" xmlns:xlink="http://www.w3.org/1999/xlink" x="0px" y="0px"
	 viewBox="0 0 500 500" style="enable-background:new 0 0 500 500;" xml:space="preserve">
<style type="text/css">
	.st0{fill:#EBEBEB;}
	.st1{fill:#E6E6E6;}
	.st2{fill:#F0F0F0;}
	.st3{fill:#FFFFFF;}
	.st4{fill:#E0E0E0;}
	.st5{fill:#F5F5F5;}
	.st6{fill:#FAFAFA;}
	.st7{display:none;}
	.st8{display:inline;}
	.st9{fill:#407BFF;}
	.st10{opacity:0.9;fill:#FFFFFF;}
	.st11{opacity:0.3;fill:#FFFFFF;}
	.st12{opacity:0.6;fill:#407BFF;}
	.st13{fill:#263238;}
	.st14{fill:#FF8B7B;}
	.st15{fill:#FF5652;}
	.st16{opacity:0.2;}
	.st17{opacity:0.4;}
	.st18{opacity:0.3;}
	.st19{opacity:0.3;fill:#407BFF;}
</style>
<g id="Background_Complete">
	<g>
		<rect y="382.4" class="st0" width="500" height="0.25"/>
		<rect x="290.21" y="389.21" class="st0" width="25.46" height="0.25"/>
		<rect x="395.11" y="394.62" class="st0" width="60.33" height="0.25"/>
		<rect x="222.46" y="389.33" class="st0" width="62.33" height="0.25"/>
		<rect x="169" y="396.81" class="st0" width="13.04" height="0.25"/>
		<rect x="194.71" y="396.81" class="st0" width="59.38" height="0.25"/>
		<rect x="52.46" y="392.59" class="st0" width="38.45" height="0.25"/>
		<path class="st0" d="M237.01,337.8H43.92c-3.15,0-5.71-2.56-5.71-5.71V60.66c0-3.15,2.56-5.71,5.71-5.71h193.1
			c3.15,0,5.71,2.56,5.71,5.71v271.43C242.72,335.24,240.16,337.8,237.01,337.8z M43.92,55.2c-3.01,0-5.46,2.45-5.46,5.46v271.43
			c0,3.01,2.45,5.46,5.46,5.46h193.1c3.01,0,5.46-2.45,5.46-5.46V60.66c0-3.01-2.45-5.46-5.46-5.46H43.92z"/>
		<path class="st0" d="M453.31,337.8h-193.1c-3.15,0-5.71-2.56-5.71-5.71V60.66c0-3.15,2.56-5.71,5.71-5.71h193.1
			c3.15,0,5.71,2.56,5.71,5.71v271.43C459.02,335.24,456.46,337.8,453.31,337.8z M260.21,55.2c-3.01,0-5.46,2.45-5.46,5.46v271.43
			c0,3.01,2.45,5.46,5.46,5.46h193.1c3.01,0,5.46-2.45,5.46-5.46V60.66c0-3.01-2.45-5.46-5.46-5.46H260.21z"/>
	</g>
	<g>
		<g>
			<g>
				<polygon class="st1" points="195.96,295.67 129.56,295.67 125.53,249.17 191.93,249.17 				"/>
				<polygon class="st2" points="199.4,295.67 133,295.67 128.97,249.17 195.37,249.17 				"/>
				<polygon class="st3" points="142.08,285.68 139.86,259.15 186.29,259.15 188.51,285.68 				"/>
			</g>
			<g>
				<rect x="203.1" y="295.67" class="st1" width="7.79" height="86.73"/>
				<rect x="207.94" y="295.67" class="st2" width="5.41" height="86.73"/>
				
					<rect x="137.94" y="295.67" transform="matrix(-1 -1.224647e-16 1.224647e-16 -1 351.2875 600.9061)" class="st2" width="75.41" height="9.57"/>
				<rect x="132.81" y="305.24" class="st1" width="7.79" height="77.16"/>
				<rect x="137.65" y="305.24" class="st2" width="5.41" height="77.16"/>
				<rect x="77.36" y="305.24" class="st1" width="7.79" height="77.16"/>
				<rect x="82.2" y="305.24" class="st2" width="5.41" height="77.16"/>
				<rect x="153.8" y="305.24" class="st1" width="7.79" height="77.16"/>
				<rect x="158.63" y="305.24" class="st2" width="5.41" height="77.16"/>
				<rect x="77.36" y="295.67" class="st1" width="60.58" height="9.57"/>
			</g>
		</g>
		<g>
			<g>
				<rect x="129.51" y="79.41" class="st4" width="234.33" height="130.46"/>
				<rect x="130.69" y="79.41" class="st5" width="246.02" height="130.46"/>
				
					<rect x="192.49" y="25.65" transform="matrix(-1.836970e-16 1 -1 -1.836970e-16 398.3402 -109.0576)" class="st3" width="122.42" height="237.98"/>
				<polygon class="st5" points="231.07,205.85 276,83.43 201.85,83.43 156.92,205.85 				"/>
				<polygon class="st5" points="302.44,205.85 347.37,83.43 291.43,83.43 246.5,205.85 				"/>
			</g>
		</g>
		<g>
			<g>
				<rect x="418.19" y="257.8" class="st1" width="19.92" height="124.6"/>
				<polygon class="st6" points="432.87,382.4 438.11,382.4 438.11,372.8 427.38,372.8 				"/>
				<rect x="234.54" y="257.8" class="st1" width="19.92" height="124.6"/>
				<rect x="249.88" y="257.8" class="st6" width="188.23" height="122.01"/>
				<path class="st1" d="M434.55,297.17h-181.1v-34.46h181.1V297.17z M254.45,296.17h179.1v-32.46h-179.1V296.17z"/>
				<path class="st1" d="M402.67,279.44H288.84c-5.29,0-10.38-4.26-13.96-11.7l-0.35-0.72h142.43l-0.35,0.72
					C413.04,275.18,407.95,279.44,402.67,279.44z M276.14,268.03c3.38,6.63,7.98,10.42,12.7,10.42h113.82
					c4.72,0,9.32-3.78,12.71-10.42H276.14z"/>
				<polygon class="st6" points="255.12,382.4 249.88,382.4 249.88,372.8 260.61,372.8 				"/>
				<path class="st1" d="M434.55,336.04h-181.1v-34.46h181.1V336.04z M254.45,335.04h179.1v-32.46h-179.1V335.04z"/>
				<path class="st1" d="M402.67,318.31H288.84c-5.29,0-10.38-4.26-13.96-11.7l-0.35-0.72h142.43l-0.35,0.72
					C413.04,314.04,407.95,318.31,402.67,318.31z M276.14,306.89c3.38,6.63,7.98,10.42,12.7,10.42h113.82
					c4.72,0,9.32-3.78,12.71-10.42H276.14z"/>
				<path class="st1" d="M434.55,374.9h-181.1v-34.46h181.1V374.9z M254.45,373.9h179.1v-32.46h-179.1V373.9z"/>
				<path class="st1" d="M402.67,357.17H288.84c-5.29,0-10.38-4.26-13.96-11.7l-0.35-0.72h142.43l-0.35,0.72
					C413.04,352.91,407.95,357.17,402.67,357.17z M276.14,345.76c3.38,6.63,7.98,10.41,12.7,10.41h113.82
					c4.72,0,9.32-3.78,12.71-10.41H276.14z"/>
			</g>
		</g>
		<g>
			<polygon class="st1" points="120.98,274.28 120.98,276.7 119.43,276.7 118.16,295.67 99.32,295.67 98.05,276.7 96.5,276.7 
				96.5,274.28 			"/>
			<path class="st1" d="M114.78,227.21c-1.55-11.3-16.79-14.52-36.14-14.94c-18.41-0.39-24.31-6.91-24.31-6.91
				s0.06,26.38,26.59,35.93C106.11,250.36,116.33,238.53,114.78,227.21z"/>
			<path class="st1" d="M105.38,252.82c0.32-4.65,7.74-13.19,25.59-9.3c12.9,2.81,17.7-3.88,17.7-3.88s-1.19,18.88-20.6,24.56
				C109.64,269.58,104.81,261,105.38,252.82z"/>
			<path class="st1" d="M109.45,281.4c0.2,0,0.39-0.08,0.53-0.24c1.29-1.53,0.24-5.19-1.23-10.26c-1.88-6.5-4.22-14.6-2.24-20.47
				c1.12-3.32,2.5-6.24,3.84-9.07c2.8-5.92,5.22-11.04,3.2-16.38c-0.13-0.36-0.53-0.54-0.89-0.4c-0.36,0.13-0.53,0.53-0.4,0.89
				c1.81,4.8-0.38,9.43-3.16,15.31c-1.29,2.73-2.76,5.83-3.9,9.22c-2.12,6.29,0.29,14.61,2.22,21.3c1.14,3.94,2.32,8.02,1.5,8.99
				c-0.25,0.29-0.21,0.72,0.08,0.97C109.14,281.35,109.29,281.4,109.45,281.4z"/>
		</g>
	</g>
</g>
<g id="Background_Simple" class="st7">
	<g class="st8">
		<path class="st9" d="M401.85,174.32c-6.79,54.22-54.3,108.35-106.53,143.21C160.27,408.35,29.8,254.24,62.72,198.89
			c24.71-56.14,101.78-40.72,134.57-62.79C381.59,11.18,408.24,128.94,401.85,174.32z"/>
		<path class="st10" d="M401.85,174.32c-6.79,54.22-54.3,108.35-106.53,143.21C160.27,408.35,29.8,254.24,62.72,198.89
			c24.71-56.14,101.78-40.72,134.57-62.79C381.59,11.18,408.24,128.94,401.85,174.32z"/>
	</g>
</g>
<g id="Shadow_1_">
	<ellipse id="_x3C_Path_x3E__191_" class="st5" cx="250" cy="416.24" rx="193.89" ry="11.32"/>
</g>
<g id="Login">
	<g>
		<polygon class="st9" points="249.96,361.05 107.96,361.05 100.19,132.68 242.19,132.68 		"/>
		<g>
			<polygon class="st9" points="257.05,353.96 115.05,353.96 107.27,125.59 249.27,125.59 			"/>
			<polygon class="st11" points="257.05,353.96 115.05,353.96 107.27,125.59 249.27,125.59 			"/>
		</g>
		<g>
			
				<ellipse transform="matrix(0.7011 -0.7131 0.7131 0.7011 -82.3091 185.8367)" class="st9" cx="180.5" cy="191.09" rx="39.27" ry="40.63"/>
			<path class="st3" d="M213.47,191.09c0.19,5.69-1.07,11.04-3.45,15.7c-5.21,10.27-15.86,17.26-28.39,17.26
				c-12.53,0-23.66-6.99-29.57-17.26c-2.7-4.66-4.32-10.01-4.52-15.7c-0.62-18.21,13.63-32.97,31.84-32.97
				C197.59,158.12,212.85,172.88,213.47,191.09z"/>
			<path class="st12" d="M210.02,206.79c-5.21,10.27-15.86,17.26-28.39,17.26c-12.53,0-23.66-6.99-29.57-17.26
				c8.11-5.54,17.96-8.78,28.68-8.78C191.46,198.01,201.53,201.25,210.02,206.79z"/>
			
				<ellipse transform="matrix(0.7011 -0.7131 0.7131 0.7011 -74.3786 182.1882)" class="st12" cx="180.12" cy="179.81" rx="14.44" ry="14.94"/>
		</g>
		<polygon class="st3" points="228.52,271.26 137.94,271.26 137.33,253.26 227.91,253.26 		"/>
		<polygon class="st3" points="229.62,303.43 139.03,303.43 138.42,285.43 229.01,285.43 		"/>
		<path class="st9" d="M194.66,287.91l-21.83,2.97c-0.9,0.12-1.49,0.94-1.32,1.81l2.87,14.63c0.17,0.87,1.04,1.49,1.94,1.36
			l21.83-2.97c0.9-0.12,1.49-0.93,1.32-1.81l-2.87-14.63C196.43,288.4,195.55,287.79,194.66,287.91z M188.39,302.73l-3.95,0.54
			l-0.4-4.72c-0.84-0.37-1.45-1.12-1.62-2c-0.28-1.43,0.69-2.76,2.15-2.95c1.46-0.2,2.88,0.8,3.16,2.23
			c0.17,0.88-0.12,1.75-0.78,2.32L188.39,302.73z"/>
		<path class="st9" d="M192.5,287.12L192.5,287.12c-0.8,0.11-1.57-0.43-1.72-1.21l-0.28-1.43c-0.77-3.94-4.54-6.92-8.62-6.56
			c-4.36,0.38-7.28,4.23-6.47,8.39l0.32,1.64c0.15,0.78-0.37,1.49-1.17,1.6l0,0c-0.8,0.11-1.57-0.43-1.72-1.21l-0.27-1.4
			c-1.08-5.49,2.38-10.77,7.97-11.75c5.88-1.02,11.68,2.94,12.8,8.66l0.32,1.64C193.82,286.3,193.3,287.02,192.5,287.12z"/>
		<polygon class="st9" points="214.67,328.64 155.7,328.64 155.3,316.92 214.27,316.92 		"/>
		<path class="st13" d="M186.22,262.26c0.06,1.82-1.36,3.29-3.18,3.29s-3.34-1.47-3.4-3.29c-0.06-1.82,1.36-3.29,3.18-3.29
			S186.16,260.44,186.22,262.26z"/>
		<path class="st13" d="M172.04,262.26c0.06,1.82-1.36,3.29-3.18,3.29c-1.82,0-3.34-1.47-3.4-3.29c-0.06-1.82,1.36-3.29,3.18-3.29
			S171.98,260.44,172.04,262.26z"/>
		<path class="st13" d="M157.87,262.26c0.06,1.82-1.36,3.29-3.18,3.29c-1.82,0-3.34-1.47-3.4-3.29c-0.06-1.82,1.36-3.29,3.18-3.29
			C156.29,258.97,157.81,260.44,157.87,262.26z"/>
		<path class="st13" d="M200.39,262.26c0.06,1.82-1.36,3.29-3.18,3.29s-3.34-1.47-3.4-3.29c-0.06-1.82,1.36-3.29,3.18-3.29
			C198.81,258.97,200.33,260.44,200.39,262.26z"/>
		<path class="st13" d="M214.56,262.26c0.06,1.82-1.36,3.29-3.18,3.29c-1.82,0-3.34-1.47-3.4-3.29c-0.06-1.82,1.36-3.29,3.18-3.29
			S214.5,260.44,214.56,262.26z"/>
	</g>
</g>
<g id="Character_1_">
	<g>
		<path class="st14" d="M333.91,174.28c1.33,2.13,2.44,4.18,3.58,6.31c1.14,2.11,2.17,4.27,3.18,6.46c1.99,4.38,3.77,8.9,5.1,13.73
			c0.18,0.59,0.31,1.22,0.46,1.84l0.22,0.93l0.11,0.46l0.13,0.76c0.29,2.03,0.03,3.69-0.31,5.15c-0.72,2.91-1.87,5.24-3.11,7.46
			c-2.53,4.39-5.48,8.13-8.89,11.67l-4.21-3.19c2.08-3.94,4.13-8.07,5.64-12.04c0.73-1.97,1.35-3.98,1.53-5.63
			c0.09-0.81,0.03-1.51-0.08-1.77l-0.4-1.22c-0.16-0.5-0.31-1-0.51-1.51c-1.44-4.04-3.27-8.09-5.27-12.08
			c-1.97-3.98-4.15-8.03-6.29-11.82L333.91,174.28z"/>
		<path class="st14" d="M331.24,224.43l-4.59,2.44l5.28,6.18c0,0,3.3-2.23,3.44-5.63L331.24,224.43z"/>
		<polygon class="st14" points="320.47,230.67 326.12,235.16 331.92,233.04 326.64,226.86 		"/>
		<path class="st13" d="M301.15,141.56c-0.11,0.56-0.5,0.95-0.86,0.87c-0.36-0.07-0.57-0.58-0.45-1.14c0.11-0.56,0.5-0.95,0.86-0.87
			C301.06,140.5,301.26,141.01,301.15,141.56z"/>
		<path class="st15" d="M300.7,142.52c0,0-1.92,2.95-3.62,4.22c0.8,1.12,2.55,1.04,2.55,1.04L300.7,142.52z"/>
		<path class="st14" d="M298.9,162.14l0.04-6.55l8.68,1.05c0,0-0.15,5.64-5,7.29L298.9,162.14z"/>
		<polygon class="st14" points="301.4,150.86 307.51,152.62 307.62,156.63 298.94,155.58 		"/>
		<path class="st16" d="M307.51,152.62l-6.11-1.76l-1.19,2.28c0.15,3.87,2.51,7.05,5.64,8.48c1.7-2.23,1.77-4.99,1.77-4.99
			L307.51,152.62z"/>
		<path class="st13" d="M303.81,138.89c0.08,0,0.16-0.03,0.23-0.09c0.14-0.12,0.14-0.34,0.02-0.47c-1.25-1.35-2.77-1.11-2.83-1.1
			c-0.18,0.03-0.3,0.2-0.27,0.38c0.03,0.18,0.21,0.3,0.38,0.27l0,0c0.05-0.01,1.24-0.18,2.24,0.9
			C303.64,138.85,303.72,138.89,303.81,138.89z"/>
		<path class="st14" d="M316.59,151.68c-1.01,5.15-1.62,12.27,1.98,15.71c0,0-1.41,5.22-10.97,5.22c-10.51,0-5.06-4.58-5.06-4.58
			c4.37-1.36,4.33-6.33,3.33-10.33L316.59,151.68z"/>
		<path class="st9" d="M320.54,170.83c0.94-1.33,0.9-5.52-0.1-6.25c-1.61-1.19-8.52-1.47-17.82,0.67c1,4.06-1.14,6.18-1.14,6.18
			L320.54,170.83z"/>
		<path class="st9" d="M351.8,408.24c-0.71,0.15-1.41,0.19-1.75-0.1c-0.14-0.12-0.29-0.35-0.16-0.77c0.07-0.22,0.21-0.39,0.43-0.49
			c0.95-0.45,3.13,0.44,3.23,0.47c0.06,0.02,0.1,0.08,0.1,0.15c0,0.07-0.03,0.13-0.09,0.15C353.21,407.82,352.5,408.08,351.8,408.24
			z M350.65,407.11c-0.07,0.02-0.14,0.04-0.2,0.06c-0.13,0.06-0.21,0.16-0.25,0.28c-0.09,0.3,0.02,0.39,0.06,0.43
			c0.38,0.32,1.78,0.03,2.77-0.37C352.36,407.28,351.28,406.98,350.65,407.11z"/>
		<path class="st9" d="M353.51,407.67c-0.03,0.01-0.05,0-0.08,0c-0.8-0.23-2.5-1.44-2.52-2.24c0-0.14,0.05-0.41,0.43-0.54
			c0.25-0.09,0.49-0.07,0.74,0.06c0.94,0.48,1.53,2.43,1.56,2.51c0.02,0.06,0,0.12-0.04,0.17
			C353.57,407.65,353.54,407.66,353.51,407.67z M351.52,405.18c-0.02,0.01-0.05,0.01-0.07,0.02c-0.21,0.07-0.2,0.17-0.2,0.22
			c0.01,0.47,1.13,1.42,1.96,1.8c-0.21-0.56-0.68-1.67-1.28-1.98C351.78,405.17,351.65,405.15,351.52,405.18z"/>
		<path class="st9" d="M299.86,409.42c-0.9,0-1.77-0.12-2.07-0.53c-0.1-0.14-0.18-0.38,0.01-0.73c0.11-0.19,0.29-0.32,0.53-0.39
			c1.17-0.32,3.63,1.08,3.73,1.14c0.06,0.03,0.09,0.1,0.08,0.17s-0.06,0.12-0.13,0.14C301.57,409.31,300.71,409.42,299.86,409.42z
			 M298.75,408.05c-0.12,0-0.23,0.01-0.32,0.04c-0.15,0.04-0.26,0.12-0.33,0.23c-0.12,0.21-0.07,0.31-0.03,0.37
			c0.33,0.45,2.11,0.47,3.41,0.28C300.83,408.64,299.57,408.05,298.75,408.05z"/>
		<path class="st9" d="M301.99,409.22c-0.02,0-0.05,0-0.07-0.01c-0.85-0.38-2.53-1.9-2.4-2.7c0.03-0.19,0.16-0.42,0.62-0.47
			c0.34-0.03,0.65,0.06,0.92,0.29c0.89,0.73,1.08,2.63,1.09,2.71c0.01,0.06-0.02,0.12-0.07,0.15
			C302.06,409.21,302.02,409.22,301.99,409.22z M300.27,406.37c-0.03,0-0.07,0-0.1,0.01c-0.3,0.03-0.32,0.15-0.32,0.19
			c-0.08,0.48,1.07,1.67,1.93,2.19c-0.09-0.55-0.34-1.69-0.93-2.17C300.67,406.44,300.48,406.37,300.27,406.37z"/>
		<polygon class="st14" points="309.72,409.06 302.69,409.06 301.99,392.77 309.02,392.77 		"/>
		<polygon class="st14" points="361.35,405.8 354.47,407.29 347.57,392.12 354.45,390.63 		"/>
		<path class="st13" d="M353.81,406.6l7.72-1.67c0.28-0.06,0.57,0.08,0.69,0.34l2.68,5.82c0.28,0.6-0.09,1.31-0.74,1.44
			c-2.71,0.54-4.05,0.66-7.45,1.4c-2.09,0.45-6.81,1.6-9.69,2.23c-2.82,0.61-3.88-2.15-2.75-2.66c5.05-2.31,7.15-4.34,8.52-6.23
			C353.04,406.92,353.4,406.69,353.81,406.6z"/>
		<path class="st13" d="M302.74,408.24h7.68c0.29,0,0.54,0.2,0.6,0.48l1.39,6.25c0.14,0.65-0.35,1.26-1.01,1.25
			c-2.77-0.05-6.77-0.21-10.26-0.21c-4.07,0-7.59,0.22-12.36,0.22c-2.89,0-3.69-2.92-2.48-3.18c5.5-1.2,10-1.33,14.75-4.26
			C301.56,408.47,302.13,408.24,302.74,408.24z"/>
		<g>
			<path class="st9" d="M331.17,168.98c6.59,1.51,12.03,18.34,12.03,18.34l-13.24,10.09c0,0-4.86-4.58-7.02-13
				C320.67,175.59,324.43,167.44,331.17,168.98z"/>
			<path class="st17" d="M331.17,168.98c6.59,1.51,12.03,18.34,12.03,18.34l-13.24,10.09c0,0-4.86-4.58-7.02-13
				C320.67,175.59,324.43,167.44,331.17,168.98z"/>
		</g>
		<path class="st14" d="M296.5,189.07c-1.65,1.78-3.29,3.35-4.98,4.98c-0.84,0.81-1.71,1.6-2.59,2.38l-1.33,1.16l-0.33,0.29
			c-0.16,0.14-0.36,0.3-0.57,0.47c-0.44,0.33-0.92,0.7-1.93,1.14c-0.53,0.21-1.22,0.48-2.43,0.5c-0.57,0.01-1.35-0.09-2.1-0.37
			c-0.76-0.28-1.5-0.77-2-1.27c-1.05-1.05-1.36-1.97-1.57-2.59c-0.19-0.64-0.25-1.09-0.29-1.49c-0.06-0.78-0.02-1.3,0.02-1.79
			c0.05-0.48,0.11-0.9,0.19-1.29c0.29-1.54,0.71-2.79,1.16-4.03c0.46-1.23,0.96-2.42,1.55-3.61c0.63-1.27,1.25-2.2,1.86-3.26
			c2.47-4.13,5.37-7.9,8.45-11.46c3.15-3.53,6.45-6.76,10.25-9.72l3.68,3.79c-2.59,3.46-5.13,7.17-7.48,10.82
			c-2.35,3.68-4.52,7.43-6.4,11.25c-0.43,0.94-0.96,1.97-1.26,2.76c-0.35,0.86-0.67,1.79-0.94,2.7c-0.26,0.9-0.47,1.84-0.57,2.53
			c-0.02,0.17-0.03,0.31-0.03,0.4c0,0.08,0.02,0.12,0.01-0.09c-0.01-0.12-0.02-0.29-0.13-0.65c-0.12-0.35-0.31-1.01-1.15-1.86
			c-0.41-0.4-1.02-0.82-1.65-1.04c-0.61-0.24-1.25-0.31-1.68-0.31c-0.93,0.02-1.34,0.21-1.61,0.31c-0.49,0.21-0.5,0.27-0.5,0.25
			l0.38-0.35l1.2-1.1l2.39-2.24c1.58-1.49,3.17-3.08,4.68-4.56L296.5,189.07z"/>
		<path class="st16" d="M325.52,181.36c3.58,3.54,4.75,10,5.03,15.61l-0.58,0.45c0,0-4.86-4.59-7.03-13
			c-0.13-0.53-0.25-1.05-0.34-1.57L325.52,181.36z"/>
		<g>
			<path class="st9" d="M289.51,176.03c-1.44,7.6-2.34,23.2,1.84,54.11h37.62c0.26-5.78-3.37-33.95,2.2-61.16
				c0,0-6.45-1.29-12.59-1.59c-4.81-0.23-11.77-0.39-15.99,0c-1.76,0.16-3.5,0.42-5.04,0.69
				C293.47,168.8,290.28,171.98,289.51,176.03z"/>
			<path class="st17" d="M289.51,176.03c-1.44,7.6-2.34,23.2,1.84,54.11h37.62c0.26-5.78-3.37-33.95,2.2-61.16
				c0,0-6.45-1.29-12.59-1.59c-4.81-0.23-11.77-0.39-15.99,0c-1.76,0.16-3.5,0.42-5.04,0.69
				C293.47,168.8,290.28,171.98,289.51,176.03z"/>
		</g>
		<path class="st16" d="M295.27,187.27l-6.8-1.63c-0.21,4.12-0.23,9.22,0.08,15.53C291.67,197.61,295.67,192.05,295.27,187.27z"/>
		<g>
			<polygon class="st16" points="301.99,392.77 302.35,401.17 309.39,401.17 309.03,392.77 			"/>
			<polygon class="st16" points="354.45,390.63 347.57,392.12 351.13,399.94 358.01,398.45 			"/>
		</g>
		<path class="st14" d="M319.93,144.16c-1.81,6.74-2.52,10.78-6.68,13.58c-6.26,4.22-14.05-0.62-14.3-7.77
			c-0.22-6.43,2.77-16.38,10.01-17.74C316.09,130.89,321.74,137.41,319.93,144.16z"/>
		<path class="st13" d="M304.15,144.41c-0.33-0.9-1.89-7.87-0.43-9.68c1.46-1.81,18.11-0.51,20.57,1.91
			c4.08,4.02,1.25,7.61-3.22,12.23c-3.36,3.48-3.49,7.4-5.19,7.98c-2.97,1.01-7.58,0.06-8.51-3.11
			C306.45,150.58,304.15,144.41,304.15,144.41z"/>
		<path class="st13" d="M322.27,128.72c-5.88-2.51-16.92,0.27-22.87-1.17c-0.21,3.09,1.65,8.03,7.61,9.36c0,0,8.46,1.65,15,1.38
			C328.55,138.03,327.27,130.85,322.27,128.72z"/>
		<path class="st13" d="M323.19,136.86c0,0,3.64,0.41,6.22-1.19C330.52,138.33,324.47,139.06,323.19,136.86z"/>
		<path class="st14" d="M307.35,144.69c-0.11,1.83-0.96,3.54-1.98,4.67c-1.53,1.69-3.13,0.64-3.41-1.42
			c-0.24-1.85,0.26-4.96,2.13-5.89C305.95,141.12,307.48,142.6,307.35,144.69z"/>
		<path class="st9" d="M304.69,230.14c0,0,7.98,53.75,12.36,73.89c4.8,22.05,30.53,95.01,30.53,95.01l12.59-2.73
			c0,0-17.99-59.46-22.02-90.29c-3.09-23.68-9.19-75.89-9.19-75.89H304.69z"/>
		<path class="st13" d="M344.57,394.84c-0.05,0.01,2.35,4.55,2.35,4.55l14.17-3.07l-1.19-4.26L344.57,394.84z"/>
		<path class="st18" d="M309.74,249.29c9.23,1.81,8.25,36.23,7.14,53.93c-2.66-12.51-6.56-36.59-9.22-53.68
			C308.27,249.23,308.96,249.14,309.74,249.29z"/>
		<path class="st9" d="M291.34,230.14c0,0-0.97,52.59-0.2,74.04c0.8,22.31,8.59,95.36,8.59,95.36h11.92c0,0,0.44-71.75,0.97-93.66
			c0.58-23.89,3.46-75.74,3.46-75.74H291.34z"/>
		<path class="st13" d="M297.44,394.8c-0.05,0,0.67,4.95,0.67,4.95h14.49l0.39-4.41L297.44,394.8z"/>
		<g>
			<path class="st9" d="M304.25,178.34c3.37,9.09-16.44,19.8-16.44,19.8l-8.58-11.03c0,0,5.72-11.39,12.75-16.52
				C300.65,164.24,301.68,171.42,304.25,178.34z"/>
			<path class="st17" d="M304.25,178.34c3.37,9.09-16.44,19.8-16.44,19.8l-8.58-11.03c0,0,5.72-11.39,12.75-16.52
				C300.65,164.24,301.68,171.42,304.25,178.34z"/>
		</g>
	</g>
</g>
<g id="Thinking">
	<g>
		<ellipse class="st9" cx="381.87" cy="86.33" rx="36.09" ry="23"/>
		<path class="st3" d="M368.85,97.91c-2,0-3.96-0.6-5.66-1.76c-2.28-1.55-3.79-3.91-4.27-6.63c-0.9-5.21,2.56-10.39,7.71-11.57l0,0
			c4.24-0.96,8.55,0.85,10.82,4.52l23.17-4.78c1.88-0.39,3.78,0.73,4.25,2.5c0.25,0.94,0.1,1.91-0.41,2.73
			c-0.51,0.82-1.31,1.38-2.26,1.58l-0.61,0.13c-0.18,0.04-0.33,0.15-0.42,0.31c-0.09,0.16-0.1,0.35-0.04,0.52l0.41,1.06
			c0.28,0.72,0.02,1.53-0.62,1.92c-0.49,0.31-0.83,0.84-0.9,1.41c-0.08,0.71-0.55,1.25-1.2,1.39l-0.48,0.1
			c-0.65,0.13-1.3-0.18-1.65-0.8c-0.42-0.72-1.25-1.09-2.07-0.92c-0.82,0.17-1.44,0.84-1.54,1.67c-0.08,0.71-0.56,1.25-1.21,1.39
			l-0.47,0.1c-0.64,0.13-1.3-0.18-1.65-0.8c-0.29-0.5-0.81-0.86-1.39-0.94c-0.74-0.11-1.3-0.75-1.33-1.52l-0.05-1.14
			c-0.01-0.18-0.09-0.35-0.24-0.46c-0.14-0.11-0.32-0.16-0.51-0.12l-7.38,1.52c-0.63,4.18-3.78,7.53-7.95,8.39
			C370.22,97.84,369.53,97.91,368.85,97.91z M366.85,78.93c-4.64,1.05-7.75,5.73-6.94,10.42c0.42,2.45,1.79,4.58,3.84,5.98
			s4.53,1.9,6.96,1.39c3.87-0.8,6.76-3.97,7.21-7.89l0.04-0.36l8.08-1.67c0.47-0.1,0.95,0.02,1.33,0.31
			c0.38,0.29,0.6,0.73,0.62,1.21l0.05,1.14c0.01,0.29,0.22,0.53,0.48,0.57c0.89,0.13,1.66,0.65,2.11,1.43
			c0.11,0.19,0.32,0.37,0.59,0.32l0.47-0.1c0.26-0.05,0.39-0.31,0.41-0.53c0.15-1.26,1.09-2.27,2.33-2.53
			c1.24-0.26,2.5,0.31,3.13,1.4c0.11,0.19,0.32,0.38,0.59,0.32l0.48-0.1c0.26-0.05,0.39-0.31,0.41-0.52c0.1-0.89,0.6-1.67,1.36-2.15
			c0.22-0.14,0.31-0.45,0.21-0.71l-0.41-1.06c-0.17-0.44-0.14-0.94,0.09-1.36c0.23-0.42,0.63-0.71,1.09-0.81l0.61-0.13
			c0.68-0.14,1.25-0.54,1.61-1.12c0.36-0.59,0.47-1.28,0.29-1.95c-0.33-1.26-1.71-2.05-3.08-1.77l-23.87,4.93l-0.18-0.31
			C374.77,79.78,370.79,78.03,366.85,78.93L366.85,78.93z M368.86,94.21c-1.24,0-2.45-0.36-3.51-1.06
			c-1.43-0.94-2.41-2.38-2.75-4.06c-0.35-1.68-0.02-3.39,0.92-4.82c0.94-1.43,2.38-2.4,4.06-2.75c1.68-0.35,3.39-0.02,4.82,0.92
			c1.43,0.94,2.4,2.38,2.75,4.06c0.35,1.68,0.02,3.38-0.92,4.81c-0.94,1.43-2.38,2.41-4.06,2.75l0,0
			C369.73,94.17,369.29,94.21,368.86,94.21z M368.89,82.4c-0.37,0-0.74,0.04-1.11,0.11c-1.41,0.29-2.63,1.12-3.42,2.32
			c-0.79,1.21-1.07,2.65-0.78,4.06c0.29,1.41,1.12,2.63,2.32,3.42c1.21,0.79,2.65,1.07,4.06,0.78l0,0c1.42-0.29,2.63-1.12,3.42-2.32
			c0.79-1.21,1.07-2.65,0.78-4.06c-0.29-1.42-1.12-2.63-2.32-3.43C370.95,82.7,369.93,82.4,368.89,82.4z"/>
		<ellipse class="st12" cx="352.5" cy="115.26" rx="11.86" ry="7.56"/>
		<ellipse class="st19" cx="333.63" cy="122.82" rx="4.87" ry="3.1"/>
	</g>
</g>
</svg>
