<?xml version="1.0" encoding="utf-8"?>
<!-- Generator: Adobe Illustrator 23.0.1, SVG Export Plug-In . SVG Version: 6.00 Build 0)  -->
<svg version="1.1" id="Capa_1" xmlns="http://www.w3.org/2000/svg" xmlns:xlink="http://www.w3.org/1999/xlink" x="0px" y="0px"
	 viewBox="0 0 512 512" style="enable-background:new 0 0 512 512;" xml:space="preserve">
<style type="text/css">
	.st0{fill:none;stroke:#2F87FF;stroke-width:20;stroke-miterlimit:10;}
	.st1{fill:#2F87FF;}
</style>
<g>
	<g>
		<path class="st0" d="M82.1,489.5h336.6c18.5,0,19.3-20.3,19.3-31V36.3c0-10.7-8.7-19.3-19.3-19.3H82.1c-10.7,0-19.3,8.7-19.3,19.3
			v422.2C62.7,469.2,64.3,489.5,82.1,489.5z"/>
	</g>
	<g>
		<g>
			<path class="st1" d="M195.1,317.3c5.4,0,9.7-4.3,9.7-9.7v-79.9c0-5.4-4.3-9.7-9.7-9.7c-5.4,0-9.7,4.3-9.7,9.7v28.9h-35.9v-28.9
				c0-5.4-4.3-9.7-9.7-9.7c-5.4,0-9.7,4.3-9.7,9.7v79.9c0,5.4,4.3,9.7,9.7,9.7c5.4,0,9.7-4.3,9.7-9.7v-31.6h35.9v31.6
				C185.4,312.9,189.8,317.3,195.1,317.3z"/>
			<path class="st1" d="M224.5,306.3c0,0.7,0.1,1.3,0.2,1.9c0.2,2.3,1.2,4.6,2.8,6.2c1.8,1.8,4.3,2.8,6.8,2.8h0
				c0.7,0,16.3-0.1,22.6-0.2c23.3-0.4,40.2-20.7,40.2-48.3c0-29-16.5-48.5-41-48.5h-22c-5.2-0.1-9.8,4.5-9.7,9.8L224.5,306.3
				L224.5,306.3z M256.2,239.7c16,0,21.6,15,21.6,29.1c0,14.2-6.5,28.7-21.2,28.9c-2.9,0.1-8,0.1-12.6,0.1c0-9.2-0.1-22.5-0.1-29.1
				c0-5.6,0-19.5,0-29H256.2z"/>
			<path class="st1" d="M312.7,306.3c0,0.7,0.1,1.3,0.2,1.9c0.2,2.3,1.2,4.6,2.8,6.2c1.8,1.8,4.3,2.8,6.8,2.8h0
				c0.7,0,16.3-0.1,22.6-0.2c23.3-0.4,40.2-20.7,40.2-48.3c0-29-16.5-48.5-41-48.5h-22c-2.6,0-5,1-6.9,2.8c-1.8,1.8-2.8,4.3-2.8,6.9
				v0.1v0L312.7,306.3L312.7,306.3z M344.4,239.7c16,0,21.6,15,21.6,29.1c0,14.2-6.5,28.7-21.2,28.9c-2.9,0.1-8,0.1-12.6,0.1
				c0-9.2-0.1-22.5-0.1-29.1c0-5.6,0-19.5,0-29H344.4z"/>
		</g>
		<path class="st1" d="M160.5,77.8c0-5.4-4.3-9.7-9.7-9.7h-22c-5.4,0-9.7,4.3-9.7,9.7c0,5.4,4.3,9.7,9.7,9.7h22
			C156.2,87.5,160.5,83.1,160.5,77.8z"/>
	</g>
</g>
</svg>
