<?xml version="1.0" encoding="utf-8"?>
<!-- Generator: Adobe Illustrator 23.0.1, SVG Export Plug-In . SVG Version: 6.00 Build 0)  -->
<svg version="1.1" id="Capa_1" xmlns="http://www.w3.org/2000/svg" xmlns:xlink="http://www.w3.org/1999/xlink" x="0px" y="0px"
	 viewBox="0 0 512 512" style="enable-background:new 0 0 512 512;" xml:space="preserve">
<style type="text/css">
	.st0{fill:#FF4C04;}
	.st1{fill:#FFF3F3;}
</style>
<g>
	<g>
		<path class="st0" d="M256,504.2c-134.5,0-244-109.5-244-244s109.5-244,244-244s244,109.5,244,244S390.5,504.2,256,504.2z"/>
	</g>
	<path class="st1" d="M317,260.2l44.3-44.3c16.9-16.9,16.9-44.2,0-61.1c-16.9-16.9-44.2-16.9-61.1,0L256,199.2l-44.3-44.3
		c-16.9-16.9-44.2-16.9-61.1,0c-16.9,16.9-16.9,44.2,0,61.1l44.3,44.3l-44.3,44.3c-16.9,16.9-16.9,44.2,0,61.1
		c8.4,8.4,19.5,12.6,30.5,12.6c11,0,22.1-4.2,30.5-12.6l44.3-44.3l44.3,44.3c8.4,8.4,19.5,12.6,30.5,12.6c11,0,22.1-4.2,30.5-12.6
		c16.9-16.9,16.9-44.2,0-61.1L317,260.2z"/>
</g>
</svg>
