<?xml version="1.0" encoding="utf-8"?>
<!-- Generator: Adobe Illustrator 23.0.1, SVG Export Plug-In . SVG Version: 6.00 Build 0)  -->
<svg version="1.1" id="Layer_1" xmlns="http://www.w3.org/2000/svg" xmlns:xlink="http://www.w3.org/1999/xlink" x="0px" y="0px"
	 viewBox="0 0 750 500" style="enable-background:new 0 0 750 500;" xml:space="preserve">
<style type="text/css">
	.st0{fill:#EDF7F4;}
	.st1{fill:none;stroke:#C3E6DD;stroke-width:17;stroke-miterlimit:10;}
	.st2{fill:#C3E6DD;}
	.st3{fill:#FFFFFF;stroke:#C3E6DD;stroke-width:5;stroke-miterlimit:10;}
	
		.st4{fill:none;stroke:#C3E6DD;stroke-width:0.7642;stroke-linecap:round;stroke-linejoin:round;stroke-miterlimit:10;stroke-dasharray:0,2.0378;}
	.st5{fill:none;stroke:#C3E6DD;stroke-width:7.3741;stroke-miterlimit:10;}
	.st6{fill:none;stroke:#C3E6DD;stroke-width:2.458;stroke-miterlimit:10;}
	.st7{fill:none;stroke:#C3E6DD;stroke-width:2.3977;stroke-miterlimit:10;}
	.st8{fill:none;stroke:#C3E6DD;stroke-linecap:round;stroke-miterlimit:10;}
	.st9{fill:none;stroke:#C3E6DD;stroke-width:2;stroke-linecap:round;stroke-linejoin:round;stroke-miterlimit:10;}
	.st10{fill:#FFFFFF;stroke:#C3E6DD;stroke-width:1.8882;stroke-miterlimit:10;}
	.st11{fill:none;stroke:#C3E6DD;stroke-width:4;stroke-miterlimit:10;}
	.st12{fill:none;stroke:#C3E6DD;stroke-width:1.8425;stroke-linecap:round;stroke-miterlimit:10;}
	.st13{fill:#FFFFFF;stroke:#C3E6DD;stroke-width:2;stroke-miterlimit:10;}
	.st14{fill:none;stroke:#C3E6DD;stroke-width:3.4894;stroke-linecap:round;stroke-linejoin:round;stroke-miterlimit:10;}
	.st15{fill:#DCF0EA;}
	.st16{fill:#A2D2C5;}
	.st17{fill:none;stroke:#C3E6DD;stroke-width:1.8882;stroke-miterlimit:10;}
	.st18{fill:none;stroke:#C3E6DD;stroke-width:2.5;stroke-miterlimit:10;}
	.st19{fill:none;stroke:#C3E6DD;stroke-width:2;stroke-miterlimit:10;}
	.st20{fill:#FAFAFA;}
	.st21{fill:#FFC29F;}
	.st22{fill:#213F3B;}
	.st23{fill:#2C6A65;}
	.st24{fill:#4399FF;}
	.st25{fill:#2F87FF;}
	.st26{fill:#2867B2;}
	.st27{fill:#FFA980;}
	.st28{fill:#20534E;}
	.st29{fill:#4C9CFC;}
	.st30{fill:none;stroke:#FFFFFF;stroke-width:1.0626;stroke-miterlimit:10;}
	.st31{fill:none;stroke:#FFFFFF;stroke-miterlimit:10;}
	.st32{fill:#305F59;}
</style>
<g id="OBJECTS">
	<path class="st0" d="M97.29,455.07c0,0-58.24-41.78-14-101.58S122.2,272.68,82,211.14S80.8,104.6,140.79,110.6
		c60,6,88.5-42,130.49-64.5c42-22.5,93.52-23.55,148.75,18.23C475.27,106.1,569.76,44.6,616.26,77.6s2.73,79.35-4.91,108.6
		s5.25,64.84,43.87,101.53c62,58.91,6.04,166.71,6.04,166.71L97.29,455.07z"/>
	<g>
		<line class="st1" x1="239.5" y1="436.02" x2="239.5" y2="455.07"/>
		<line class="st1" x1="265" y1="421.37" x2="265" y2="455.07"/>
		<line class="st1" x1="290.5" y1="392.33" x2="290.5" y2="455.07"/>
		<line class="st1" x1="316" y1="411" x2="316" y2="455.07"/>
		<line class="st1" x1="341.5" y1="427.7" x2="341.5" y2="455.07"/>
		<line class="st1" x1="367" y1="387.67" x2="367" y2="455.07"/>
		<line class="st1" x1="392.5" y1="417.7" x2="392.5" y2="455.07"/>
		<line class="st1" x1="418" y1="385.37" x2="418" y2="455.07"/>
		<line class="st1" x1="443.5" y1="339.22" x2="443.5" y2="455.07"/>
		<line class="st1" x1="469" y1="365.67" x2="469" y2="455.07"/>
		<line class="st1" x1="494.5" y1="339.22" x2="494.5" y2="455.07"/>
		<line class="st1" x1="520" y1="396.08" x2="520" y2="454.53"/>
		<line class="st1" x1="545.5" y1="351.95" x2="545.5" y2="455.07"/>
		<line class="st1" x1="571" y1="293" x2="571" y2="455.07"/>
		<line class="st1" x1="596.5" y1="342.33" x2="596.5" y2="455.07"/>
		<line class="st1" x1="622" y1="286.3" x2="622" y2="455.07"/>
	</g>
	<g>
		<g>
			<polygon class="st2" points="597.44,231.27 593.4,235.31 532.03,296.68 454.91,296.68 388.8,362.78 285.4,362.78 193.06,455.12 
				158.9,455.12 275.4,338.63 378.79,338.63 444.9,272.52 522.02,272.52 576.32,218.23 580.36,214.19 588.9,222.73 			"/>
		</g>
		<g>
			<polygon class="st2" points="645.35,166.28 542.99,206.31 588.9,222.73 605.32,268.64 			"/>
		</g>
	</g>
	<g>
		<path class="st3" d="M524.81,313.54H225.19c-7.74,0-14.02-6.28-14.02-14.02V111.26c0-7.74,6.28-14.02,14.02-14.02H524.8
			c7.74,0,14.02,6.28,14.02,14.02v188.26C538.83,307.26,532.55,313.54,524.81,313.54z"/>
		<g>
			<g>
				<line class="st4" x1="256.9" y1="276.44" x2="256.9" y2="286.3"/>
				<line class="st4" x1="299.41" y1="248.15" x2="299.41" y2="286.3"/>
				<line class="st4" x1="343.77" y1="219.3" x2="343.77" y2="286.3"/>
				<line class="st4" x1="389.64" y1="261.3" x2="389.64" y2="286.3"/>
				<line class="st4" x1="434.29" y1="203.92" x2="434.29" y2="286.3"/>
				<line class="st4" x1="478.95" y1="248.15" x2="478.95" y2="286.3"/>
				<line class="st4" x1="523.94" y1="189.57" x2="523.94" y2="286.3"/>
			</g>
			<g>
				<line class="st5" x1="236.76" y1="149.01" x2="236.76" y2="169.04"/>
				<line class="st5" x1="248.07" y1="140.2" x2="248.07" y2="169.04"/>
				<line class="st6" x1="233.02" y1="172.96" x2="251.83" y2="172.96"/>
				<line class="st5" x1="264" y1="137.3" x2="264" y2="169.04"/>
				<line class="st5" x1="275.31" y1="127.68" x2="275.31" y2="169.04"/>
				<line class="st6" x1="260.25" y1="172.96" x2="279.07" y2="172.96"/>
				<line class="st5" x1="291.23" y1="137.3" x2="291.23" y2="169.04"/>
				<line class="st5" x1="302.54" y1="146.51" x2="302.54" y2="169.04"/>
				<line class="st6" x1="287.49" y1="172.96" x2="306.3" y2="172.96"/>
				<line class="st5" x1="318.47" y1="153.17" x2="318.47" y2="169.04"/>
				<line class="st5" x1="329.78" y1="147.31" x2="329.78" y2="169.04"/>
				<line class="st6" x1="314.72" y1="172.96" x2="333.54" y2="172.96"/>
				<line class="st5" x1="345.7" y1="140.2" x2="345.7" y2="169.04"/>
				<line class="st5" x1="357.01" y1="129.85" x2="357.01" y2="169.04"/>
				<line class="st6" x1="341.96" y1="172.96" x2="360.77" y2="172.96"/>
				<line class="st5" x1="372.94" y1="141.7" x2="372.94" y2="169.04"/>
				<line class="st5" x1="384.25" y1="154.62" x2="384.25" y2="169.04"/>
				<line class="st6" x1="369.19" y1="172.96" x2="388.01" y2="172.96"/>
				<line class="st5" x1="400.17" y1="138.5" x2="400.17" y2="169.04"/>
				<line class="st5" x1="411.48" y1="144.91" x2="411.48" y2="169.04"/>
				<line class="st6" x1="396.43" y1="172.96" x2="415.24" y2="172.96"/>
				<line class="st5" x1="427.41" y1="144.91" x2="427.41" y2="169.04"/>
				<line class="st5" x1="438.72" y1="153.17" x2="438.72" y2="169.04"/>
				<line class="st6" x1="423.66" y1="172.96" x2="442.48" y2="172.96"/>
				<line class="st5" x1="454.64" y1="140.2" x2="454.64" y2="169.04"/>
				<line class="st5" x1="465.95" y1="130.48" x2="465.95" y2="169.04"/>
				<line class="st6" x1="450.9" y1="172.96" x2="469.71" y2="172.96"/>
				<line class="st5" x1="481.87" y1="141.7" x2="481.87" y2="169.04"/>
				<line class="st5" x1="493.19" y1="135.04" x2="493.19" y2="169.04"/>
				<line class="st6" x1="478.13" y1="172.96" x2="496.95" y2="172.96"/>
				<line class="st5" x1="509.11" y1="125.46" x2="509.11" y2="169.04"/>
				<line class="st5" x1="520.42" y1="132.3" x2="520.42" y2="169.04"/>
				<line class="st6" x1="505.36" y1="172.96" x2="524.18" y2="172.96"/>
			</g>
			<g>
				<line class="st7" x1="233.02" y1="189.57" x2="251.83" y2="189.57"/>
				<line class="st7" x1="233.02" y1="203.39" x2="251.83" y2="203.39"/>
				<line class="st7" x1="233.02" y1="217.21" x2="251.83" y2="217.21"/>
				<line class="st7" x1="233.02" y1="231.03" x2="251.83" y2="231.03"/>
				<line class="st7" x1="233.02" y1="244.85" x2="251.83" y2="244.85"/>
				<line class="st7" x1="233.02" y1="258.66" x2="251.83" y2="258.66"/>
				<line class="st7" x1="233.02" y1="272.48" x2="251.83" y2="272.48"/>
				<line class="st7" x1="233.02" y1="286.3" x2="251.83" y2="286.3"/>
			</g>
			<g>
				<path class="st7" d="M255.7,272.48c22.33,0,22.33-30.04,44.65-30.04s22.32-24.23,44.64-24.23c22.33,0,22.33,40.46,44.65,40.46
					c22.33,0,22.33-55.28,44.66-55.28c22.33,0,22.33,42.06,44.66,42.06c22.33,0,22.33-55.88,44.66-55.88"/>
				<path class="st2" d="M259.36,272.43c0-1.37-1.1-2.47-2.46-2.47c-1.36,0-2.46,1.11-2.46,2.47c0,1.37,1.1,2.47,2.46,2.47
					C258.26,274.91,259.36,273.8,259.36,272.43z"/>
				<path class="st2" d="M301.87,242.37c0-1.37-1.1-2.47-2.46-2.47s-2.46,1.11-2.46,2.47c0,1.37,1.1,2.47,2.46,2.47
					C300.77,244.85,301.87,243.74,301.87,242.37z"/>
				<path class="st2" d="M346.23,218.41c0-1.37-1.1-2.47-2.46-2.47s-2.46,1.11-2.46,2.47c0,1.37,1.1,2.47,2.46,2.47
					S346.23,219.78,346.23,218.41z"/>
				<path class="st2" d="M392.1,258.66c0-1.37-1.1-2.47-2.46-2.47s-2.46,1.11-2.46,2.47s1.1,2.47,2.46,2.47
					C391,261.14,392.1,260.03,392.1,258.66z"/>
				<path class="st2" d="M436.76,203.39c0-1.37-1.1-2.47-2.46-2.47s-2.46,1.11-2.46,2.47c0,1.37,1.1,2.47,2.46,2.47
					C435.65,205.86,436.76,204.76,436.76,203.39z"/>
				<path class="st2" d="M481.42,245.45c0-1.37-1.1-2.47-2.46-2.47s-2.46,1.11-2.46,2.47c0,1.37,1.1,2.47,2.46,2.47
					C480.31,247.92,481.42,246.81,481.42,245.45z"/>
				<path class="st2" d="M526.08,189.57c0-1.37-1.1-2.47-2.46-2.47c-1.36,0-2.46,1.11-2.46,2.47c0,1.37,1.1,2.47,2.46,2.47
					C524.98,192.04,526.08,190.94,526.08,189.57z"/>
			</g>
			<line class="st7" x1="254.43" y1="286.3" x2="523.6" y2="286.3"/>
			<g>
				<rect x="352.63" y="300" class="st2" width="4.32" height="4.32"/>
				<rect x="366.1" y="300" class="st2" width="4.32" height="4.32"/>
				<rect x="379.58" y="300" class="st2" width="4.32" height="4.32"/>
				<rect x="393.06" y="300" class="st2" width="4.32" height="4.32"/>
			</g>
		</g>
	</g>
	<line class="st8" x1="73" y1="455.07" x2="677" y2="455.07"/>
	<g>
		<path class="st9" d="M161.78,329.39c0,1.59-1.29,2.88-2.88,2.88c-1.59,0-2.88-1.29-2.88-2.88s1.29-2.88,2.88-2.88
			S161.78,327.8,161.78,329.39z"/>
		<path class="st9" d="M278.19,62.82c0,1.59-1.29,2.88-2.88,2.88s-2.88-1.29-2.88-2.88s1.29-2.88,2.88-2.88
			C276.9,59.93,278.19,61.23,278.19,62.82z"/>
		<path class="st9" d="M604.88,166.48c0,1.59-1.29,2.88-2.88,2.88s-2.88-1.29-2.88-2.88c0-1.59,1.29-2.88,2.88-2.88
			C603.59,163.59,604.88,164.88,604.88,166.48z"/>
		<path class="st9" d="M600.32,289.19c0,1.59-1.29,2.88-2.88,2.88s-2.88-1.29-2.88-2.88s1.29-2.88,2.88-2.88
			C599.03,286.3,600.32,287.59,600.32,289.19z"/>
		<path class="st9" d="M327.66,387.67c0,1.59-1.29,2.88-2.88,2.88s-2.88-1.29-2.88-2.88s1.29-2.88,2.88-2.88
			C326.37,384.78,327.66,386.07,327.66,387.67z"/>
		<g>
			<line class="st9" x1="121.72" y1="219.84" x2="121.72" y2="225.61"/>
			<line class="st9" x1="124.61" y1="222.73" x2="118.84" y2="222.73"/>
		</g>
		<g>
			<line class="st9" x1="480.02" y1="57.05" x2="480.02" y2="62.82"/>
			<line class="st9" x1="482.91" y1="59.93" x2="477.14" y2="59.93"/>
		</g>
		<g>
			<line class="st9" x1="336.36" y1="44.29" x2="340.44" y2="48.37"/>
			<line class="st9" x1="340.44" y1="44.29" x2="336.36" y2="48.37"/>
		</g>
		<g>
			<line class="st9" x1="643.02" y1="223.48" x2="643.02" y2="229.25"/>
			<line class="st9" x1="645.9" y1="226.36" x2="640.13" y2="226.36"/>
		</g>
		<g>
			<line class="st9" x1="96.35" y1="140.53" x2="96.35" y2="146.3"/>
			<line class="st9" x1="99.23" y1="143.41" x2="93.46" y2="143.41"/>
		</g>
	</g>
	<g>
		<g>
			<path class="st10" d="M179.81,200.36h-37.5c-1.66,0-3-1.34-3-3v-44c0-1.66,1.34-3,3-3h37.5c1.66,0,3,1.34,3,3v44
				C182.81,199.01,181.47,200.36,179.81,200.36z"/>
		</g>
		<g>
			<ellipse class="st11" cx="161.05" cy="172.03" rx="13.67" ry="13.67"/>
			<circle class="st11" cx="161.06" cy="172.02" r="6"/>
		</g>
		<g>
			<line class="st12" x1="147.4" y1="192.89" x2="159.34" y2="192.89"/>
			<line class="st12" x1="162.79" y1="192.89" x2="174.73" y2="192.89"/>
		</g>
	</g>
	<g>
		<rect x="432.98" y="91.04" class="st2" width="18.98" height="24.84"/>
		<polygon class="st2" points="442.48,69.75 425.89,91.04 459.06,91.04 		"/>
	</g>
	<g>
		<rect x="410.91" y="117.19" class="st2" width="8.67" height="11.34"/>
		<polygon class="st2" points="415.24,107.47 407.67,117.19 422.82,117.19 		"/>
	</g>
	<g>
		<rect x="463.62" y="111.9" class="st2" width="4.67" height="6.11"/>
		<polygon class="st2" points="465.95,106.66 461.87,111.9 470.04,111.9 		"/>
	</g>
	<g>
		<g>
			<path class="st13" d="M242.64,129.85H128.72c-3.25,0-5.89-2.64-5.89-5.89V70.53c0-3.25,2.64-5.89,5.89-5.89h113.92
				c3.25,0,5.89,2.64,5.89,5.89v53.42C248.53,127.21,245.9,129.85,242.64,129.85z"/>
		</g>
		<g>
			<line class="st14" x1="194.59" y1="83.96" x2="239.37" y2="83.96"/>
			<line class="st14" x1="194.59" y1="92.82" x2="218.06" y2="92.82"/>
			<line class="st14" x1="194.59" y1="101.67" x2="231.67" y2="101.67"/>
			<line class="st14" x1="194.59" y1="110.52" x2="218.06" y2="110.52"/>
		</g>
		<g>
			<path class="st2" d="M144.34,80.63c-4.23,4.26-6.85,10.13-6.85,16.61c0,13.02,10.55,23.57,23.57,23.57
				c9.86,0,18.31-6.06,21.82-14.66l-21.82-8.91L144.34,80.63z"/>
			<path class="st15" d="M176.03,79.03c-4.07-3.35-9.28-5.36-14.96-5.36c-6.54,0-12.45,2.66-16.72,6.96l16.72,16.61L176.03,79.03z"
				/>
			<path class="st16" d="M176.03,79.03l-14.96,18.21l21.82,8.91c1.12-2.75,1.75-5.76,1.75-8.91
				C184.63,89.91,181.28,83.35,176.03,79.03z"/>
		</g>
	</g>
	<g>
		<g>
			
				<ellipse transform="matrix(0.9899 -0.1419 0.1419 0.9899 -8.4577 82.8785)" class="st17" cx="576.89" cy="100.74" rx="22.23" ry="22.23"/>
		</g>
		<g>
			<line class="st18" x1="568.8" y1="86.94" x2="588.08" y2="92.79"/>
			<line class="st18" x1="567.38" y1="92.5" x2="586.67" y2="98.36"/>
			<path class="st18" d="M578.63,90.69c0,0,4.51,13.03-8.34,9.51l2.47,11.7"/>
		</g>
	</g>
	<g>
		<g>
			
				<ellipse transform="matrix(0.4939 -0.8695 0.8695 0.4939 149.0319 573.7105)" class="st17" cx="567.36" cy="158.83" rx="15.42" ry="15.42"/>
		</g>
		<g>
			<line class="st19" x1="556.51" y1="154.74" x2="571.02" y2="148.3"/>
			<line class="st19" x1="558.54" y1="158.78" x2="573.05" y2="152.34"/>
			<path class="st19" d="M564.31,151.92c0,0,9.4,5.45-0.07,9.96l7.5,5.7"/>
		</g>
	</g>
	<g>
		<g>
			<path class="st17" d="M617.51,141.48c-1.81,6.8-8.79,10.85-15.59,9.04s-10.85-8.79-9.04-15.59s8.79-10.85,15.59-9.04
				C615.27,127.7,619.31,134.68,617.51,141.48z"/>
		</g>
		<g>
			<line class="st19" x1="601.79" y1="132.11" x2="614.3" y2="135.91"/>
			<line class="st19" x1="600.87" y1="135.71" x2="613.38" y2="139.51"/>
			<path class="st19" d="M608.17,134.54c0,0,2.92,8.45-5.41,6.17l1.6,7.59"/>
		</g>
	</g>
	<g>
		<line class="st9" x1="340.44" y1="62.82" x2="388.67" y2="62.82"/>
		<line class="st9" x1="340.44" y1="70.18" x2="373.33" y2="70.18"/>
		<line class="st9" x1="340.44" y1="77.54" x2="362.83" y2="77.54"/>
		<line class="st9" x1="340.44" y1="84.91" x2="354.33" y2="84.91"/>
	</g>
	<g>
		<rect x="279.89" y="81.06" class="st2" width="7.39" height="7.39"/>
		<rect x="297.1" y="81.06" class="st2" width="7.39" height="7.39"/>
		<rect x="314.32" y="81.06" class="st2" width="7.39" height="7.39"/>
	</g>
	<g>
		<circle class="st2" cx="101.1" cy="189.48" r="10.75"/>
		<g>
			<circle class="st20" cx="96.35" cy="184.73" r="1"/>
			<circle class="st20" cx="101.1" cy="184.73" r="1"/>
			<circle class="st20" cx="105.85" cy="184.73" r="1"/>
			<circle class="st20" cx="96.35" cy="189.48" r="1"/>
			<circle class="st20" cx="101.1" cy="189.48" r="1"/>
			<circle class="st20" cx="105.85" cy="189.48" r="1"/>
			<circle class="st20" cx="96.35" cy="194.23" r="1"/>
			<circle class="st20" cx="101.1" cy="194.23" r="1"/>
			<circle class="st20" cx="105.85" cy="194.23" r="1"/>
		</g>
	</g>
	<g>
		<path class="st2" d="M162.33,282.68h-3.92c-0.7,0-1.34-0.44-1.55-1.11c-0.25-0.78-0.56-1.53-0.93-2.24
			c-0.32-0.63-0.19-1.39,0.31-1.89l2.78-2.78c0.64-0.64,0.64-1.69,0-2.33l-2.79-2.79c-0.64-0.64-1.69-0.64-2.33,0l-2.78,2.78
			c-0.5,0.5-1.26,0.63-1.89,0.31c-0.72-0.37-1.47-0.68-2.24-0.93c-0.67-0.22-1.11-0.85-1.11-1.55v-3.92c0-0.91-0.74-1.65-1.65-1.65
			h-3.95c-0.91,0-1.65,0.74-1.65,1.65v3.92c0,0.7-0.44,1.34-1.11,1.55c-0.78,0.25-1.53,0.56-2.24,0.93
			c-0.63,0.32-1.39,0.19-1.89-0.31l-2.77-2.77c-0.64-0.64-1.69-0.64-2.33,0l-2.79,2.79c-0.64,0.64-0.64,1.69,0,2.33l2.78,2.77
			c0.5,0.5,0.63,1.26,0.31,1.89c-0.37,0.72-0.68,1.47-0.93,2.24c-0.22,0.67-0.85,1.11-1.55,1.11h-3.92c-0.91,0-1.65,0.74-1.65,1.65
			v3.95c0,0.91,0.74,1.65,1.65,1.65h3.92c0.7,0,1.34,0.44,1.55,1.11c0.25,0.78,0.56,1.53,0.93,2.24c0.32,0.63,0.19,1.39-0.31,1.89
			l-2.78,2.78c-0.64,0.64-0.64,1.69,0,2.33l2.79,2.79c0.64,0.64,1.69,0.64,2.33,0l2.77-2.77c0.5-0.5,1.26-0.63,1.89-0.31
			c0.72,0.37,1.47,0.68,2.24,0.93c0.67,0.22,1.11,0.85,1.11,1.55v3.92c0,0.91,0.74,1.65,1.65,1.65h3.95c0.91,0,1.65-0.74,1.65-1.65
			v-3.92c0-0.7,0.44-1.34,1.11-1.55c0.78-0.25,1.53-0.56,2.24-0.93c0.63-0.32,1.39-0.19,1.89,0.31l2.78,2.78
			c0.64,0.64,1.69,0.64,2.33,0l2.79-2.79c0.64-0.64,0.64-1.69,0-2.33l-2.78-2.78c-0.5-0.5-0.63-1.26-0.31-1.89
			c0.37-0.72,0.68-1.47,0.93-2.24c0.22-0.67,0.85-1.11,1.55-1.11h3.92c0.91,0,1.65-0.74,1.65-1.65v-3.95
			C163.98,283.42,163.24,282.68,162.33,282.68z M142.25,294.5c-4.53,0-8.2-3.67-8.2-8.2s3.67-8.2,8.2-8.2s8.2,3.67,8.2,8.2
			C150.44,290.83,146.78,294.5,142.25,294.5z"/>
		<path class="st2" d="M113.74,265.72h-2.47c-0.44,0-0.84-0.28-0.98-0.7c-0.16-0.49-0.35-0.96-0.58-1.41
			c-0.2-0.39-0.12-0.87,0.19-1.19l1.75-1.75c0.41-0.4,0.41-1.06,0-1.47l-1.76-1.76c-0.41-0.41-1.06-0.41-1.47,0l-1.75,1.75
			c-0.31,0.31-0.79,0.4-1.19,0.2c-0.45-0.23-0.92-0.43-1.41-0.58c-0.42-0.14-0.7-0.54-0.7-0.98v-2.47c0-0.57-0.46-1.04-1.04-1.04
			h-2.49c-0.57,0-1.04,0.46-1.04,1.04v2.47c0,0.44-0.28,0.84-0.7,0.98c-0.49,0.16-0.96,0.35-1.41,0.58c-0.39,0.2-0.87,0.12-1.19-0.2
			l-1.75-1.75c-0.4-0.41-1.06-0.41-1.47,0l-1.76,1.76c-0.4,0.4-0.4,1.06,0,1.47l1.75,1.75c0.31,0.31,0.4,0.79,0.19,1.19
			c-0.23,0.45-0.43,0.92-0.58,1.41c-0.14,0.42-0.54,0.7-0.98,0.7h-2.47c-0.57,0-1.04,0.46-1.04,1.04v2.49
			c0,0.57,0.46,1.04,1.04,1.04h2.47c0.44,0,0.84,0.28,0.98,0.7c0.16,0.49,0.35,0.96,0.58,1.41c0.2,0.39,0.12,0.87-0.19,1.19
			l-1.75,1.75c-0.41,0.4-0.41,1.06,0,1.47l1.76,1.76c0.4,0.41,1.06,0.41,1.47,0l1.75-1.75c0.31-0.31,0.79-0.4,1.19-0.2
			c0.45,0.23,0.92,0.43,1.41,0.58c0.42,0.14,0.7,0.54,0.7,0.98v2.47c0,0.57,0.46,1.04,1.04,1.04h2.49c0.57,0,1.04-0.46,1.04-1.04
			v-2.47c0-0.44,0.28-0.84,0.7-0.98c0.49-0.16,0.96-0.35,1.41-0.58c0.39-0.2,0.87-0.12,1.19,0.19l1.75,1.75
			c0.4,0.41,1.06,0.4,1.47,0l1.76-1.76c0.4-0.4,0.4-1.06,0-1.47l-1.75-1.75c-0.31-0.31-0.4-0.79-0.19-1.19
			c0.23-0.45,0.43-0.92,0.58-1.41c0.14-0.42,0.54-0.7,0.98-0.7h2.47c0.57,0,1.04-0.46,1.04-1.04v-2.49
			C114.78,266.18,114.31,265.72,113.74,265.72z M101.1,273.16c-2.85,0-5.16-2.31-5.16-5.16s2.31-5.16,5.16-5.16
			c2.85,0,5.16,2.31,5.16,5.16C106.26,270.85,103.95,273.16,101.1,273.16z"/>
	</g>
	<g>
		<polyline class="st9" points="285.78,328.09 289.56,325.14 285.78,322.2 		"/>
		<polyline class="st9" points="297.52,328.09 301.3,325.14 297.52,322.2 		"/>
		<polyline class="st9" points="309.25,328.09 313.04,325.14 309.25,322.2 		"/>
		<polyline class="st9" points="320.99,328.09 324.78,325.14 320.99,322.2 		"/>
	</g>
	<g>
		<g>
			<polygon class="st21" points="522.65,445.56 532.42,445.27 530.67,431.05 521.63,432.43 			"/>
			<g>
				<path class="st22" d="M535.8,454.53c1.12-3.74-1.51-6.47-2.33-9.77c-0.51-2.04-10.75-3.3-11.77,1.17
					c-0.97,4.28-0.19,8.61-0.19,8.61h14.29V454.53z"/>
			</g>
		</g>
		<g>
			<polygon class="st21" points="468.24,445.92 478.25,445.92 479.24,429.71 469.46,429.09 			"/>
			<path class="st22" d="M478.25,444.76h-9.33c0,0-1.02,0-4.08,3.21s-10.37,0.15-13.73,6.56h27.87
				C478.98,454.53,481.75,449.42,478.25,444.76z"/>
		</g>
		<g>
			<path class="st22" d="M514.03,181.85c1.01-1.12,1.93-2.36,2.37-3.8s0.35-3.11-0.54-4.32c-0.65-0.89-1.67-1.45-2.73-1.75
				c-1.05-0.29-2.32-0.28-3.05,0.52c-0.59,0.64-0.66,1.6-0.6,2.47c0.12,1.64,0.59,3.27,0.5,4.91c-0.05,0.95-0.29,1.9-0.28,2.85
				c0.01,0.81,0.45,2.91,1.56,2.11C512.26,184.11,513.2,182.78,514.03,181.85z"/>
		</g>
		<g>
			<polygon class="st23" points="521.3,277.03 533.3,439.51 521.3,439.51 500.43,321.27 480.21,439.51 468.35,439.51 479.35,277.03 
							"/>
		</g>
		<g>
			<path class="st21" d="M449.87,216.24c0,0-2.38-3.83-2.03-5.99s0.34-4.76-0.83-6.23c-1.18-1.47-0.87-3.21-2.11-2.73
				c-0.4,0.15-0.2,2.76,0.36,3.99c0,0-3.52-7.16-4.03-7.97s-1.34-0.3-1.27,0.37c0,0-0.38-0.76-1.03-0.43
				c-0.55,0.28-0.28,1.15-0.25,1.54c0,0-0.84,0.07-0.73,1c0.07,0.6,0.17,0.99,0.26,1.34c0,0-0.39,0.08-0.48,0.78
				c-0.07,0.5,0.06,1.49,0.39,2.22c0.79,1.78,0.22,2.16,1.04,3.94c0.82,1.79,2.89,1.99,3.82,5.43c0.93,3.44,1.3,4.41,1.3,4.41
				L449.87,216.24z"/>
			<g>
				<path class="st24" d="M479.71,207.96c-2.33,0.35-10.57,17.58-15.09,25.75s-4.52,8.17-4.52,8.17l-10.94-28
					c0,0-3.65-0.58-5.83,2.63c0,0,5.83,37.78,7.29,42.01c1.46,4.23,5.98,7.29,14-2.77c8.02-10.06,21.88-29.61,23.04-31.8
					C488.83,221.75,493.17,205.92,479.71,207.96z"/>
			</g>
		</g>
		<g>
			<g>
				<path class="st25" d="M523.98,242.75c-3.79,20.28-2.68,34.28-2.68,34.28h-41.95c0,0-1.74-65.46-0.78-67.68
					c1.75-4.02,19.34-9.59,19.34-9.59l14.89,0.04c0,0,12.2,3.57,14.97,4.3c0.82,0.22,1.15,1.91,1.11,4.71
					C528.81,215.48,526.65,228.47,523.98,242.75z"/>
			</g>
			<path class="st26" d="M523.98,242.75c-3.79,20.28-2.68,34.28-2.68,34.28h-4.87c0,0,1.32-49.95,8.57-65.99
				c1.09-2.42,2.42-3,3.88-2.23C528.81,215.48,526.65,228.47,523.98,242.75z"/>
		</g>
		<path class="st27" d="M510.35,185.3c0,0-0.42,10.05,1.33,14.08l-5.79,6.32l-4.07-0.75l-1.49-0.76l-1.05-3.06V185.3H510.35z"/>
		<path class="st21" d="M495.58,168.59c0,0-4.82,21.87,1.31,25.77c3.96,2.52,10.89,1.04,12.98-8.71s-1.83-15.03-6.94-16.26
			C498.45,168.31,495.58,168.59,495.58,168.59z"/>
		<path class="st21" d="M510.48,181.36c0,0,1.68-1.48,2.95,0.32c1.27,1.8-1.75,4.95-3.78,4.9L510.48,181.36z"/>
		<rect x="479.3" y="277.03" class="st22" width="42" height="3.68"/>
		<polygon class="st28" points="500.43,321.27 496.77,297.58 497.36,339.22 		"/>
		<g>
			<g>
				<path class="st22" d="M487.39,259.91H436.7l-12.14-33.36c-0.52-1.42,0.53-2.92,2.04-2.92h46.06c0.91,0,1.73,0.57,2.04,1.43
					L487.39,259.91z"/>
			</g>
			<g>
				<path class="st22" d="M517.51,263.06h-50.37c-0.87,0-1.58-0.71-1.58-1.58l0,0c0-0.87,0.71-1.58,1.58-1.58h50.37
					c0.87,0,1.58,0.71,1.58,1.58l0,0C519.09,262.35,518.38,263.06,517.51,263.06z"/>
			</g>
			<g>
				<path class="st22" d="M487.23,263.06h-50.37c-0.87,0-1.58-0.71-1.58-1.58l0,0c0-0.87,0.71-1.58,1.58-1.58h50.37
					c0.87,0,1.58,0.71,1.58,1.58l0,0C488.8,262.35,488.1,263.06,487.23,263.06z"/>
			</g>
		</g>
		<g>
			<path class="st21" d="M488.85,257.77c0,0-4.36-0.21-6.01-1.12c-1.66-0.91-5.82-1.08-6.68-1.08s-0.06,1.43,0.97,1.6
				c1.03,0.17,2.28,1.08,2.28,1.08s-6.45,0.57-8.05,0.46c-1.6-0.11-3.48,0.34-2.91,1.14c0.57,0.8,1.54,0.86,1.54,0.86
				s0.46,1.2,1.37,1.37c0,0,0.4,0.86,1.66,1.03c0,0,1.2,0.57,1.71,0.57c0,0,4.68,0.91,7.36,0.46c2.68-0.46,7.3-0.73,7.3-0.73
				L488.85,257.77z"/>
			<g>
				<path class="st29" d="M527.61,204.06c0,0,7.02,1.07,9.94,12.44c2.92,11.38-2.91,35.43-5.04,43.41
					c-1.25,4.67-43.75,4.67-43.75,4.67s-0.8-4.93-0.8-8.18c0,0,29.01-4.73,35.14-8.48c0,0-1.31-19.42-1.59-26.9
					C521.21,213.44,520.37,204.84,527.61,204.06z"/>
			</g>
		</g>
		<path class="st26" d="M499.28,198.34c0,0,0.01,4.5,2.54,6.62c0,0-2.68,2.13-4.18,4.63c-0.95-5.33,0.27-9.83,0.27-9.83
			L499.28,198.34z"/>
		<path class="st26" d="M511.26,198.17c0,0-3.53,5.66-9.44,6.79c0,0,1.95,3.25,3.07,6.09c2.94-2,7.08-7.08,7.9-11.24L511.26,198.17z
			"/>
		<g>
			<path class="st22" d="M506.87,174.4c-0.23,0.94-0.21,1.98,0.26,2.83c0.42,0.78,1.16,1.32,1.82,1.91s1.29,1.31,1.39,2.19
				c1.61-0.82,3.2-1.77,4.39-3.12c1.19-1.36,1.94-3.2,1.62-4.98c-0.33-1.82-1.84-3.37-3.65-3.74c-1.47-0.3-3.2,0.18-4.24,1.28
				c-0.4,0.42-0.48,0.82-0.66,1.34C507.53,172.89,507.08,173.58,506.87,174.4z"/>
		</g>
		<g>
			<path class="st22" d="M507.81,165.86c-3.31-1.23-6.89-2.21-10.47-1.89c-2.21,0.2-4.46,0.95-5.83,2.48s-1.58,3.91-0.08,5.34
				c1,0.96,2.53,1.33,3.97,1.63c3.68,0.76,7.49,1.31,11.25,0.94c2.69-0.26,5.32-1.42,6.05-3.9
				C513.41,168.11,509.78,166.6,507.81,165.86z"/>
		</g>
	</g>
	<g>
		<g>
			<polygon class="st21" points="223.28,445.16 230.29,445.16 231.21,434.81 222.65,433.96 			"/>
			<g>
				<path class="st22" d="M223.28,445.16c0,0-1.76,2.23-1.05,7.18c0.34,2.34,5.44,2.19,14.05,2.19s6.69,0,6.69,0s2.5-2.7-1.48-3.93
					c-9.69-3-11.2-5.44-11.2-5.44H223.28z"/>
			</g>
		</g>
		<g>
			<polygon class="st21" points="189.39,446.93 181.11,446.68 182.59,434.63 190.25,435.8 			"/>
			<g>
				<path class="st22" d="M178.24,454.53c-0.95-3.17,1.28-5.48,1.98-8.28c0.43-1.73,9.11-2.8,9.97,0.99
					c0.82,3.63,0.16,7.29,0.16,7.29H178.24z"/>
			</g>
		</g>
		<g>
			<path class="st22" d="M227.53,195.35c0,0,4.48,1.35,4.12,7.68c-0.36,6.33-1.92,9.43-0.06,16.06s2.92,15.33-8.46,14.59
				s-14.78-1.69-18.61,0.54s-14.56-7.55-9.35-14.21c5.21-6.66,7.38-10.59,6.4-16.41c-0.98-5.82,3.49-11.46,10.6-13.19
				C218.13,188.95,230.11,188.35,227.53,195.35z"/>
		</g>
		<g>
			<g>
				<path class="st25" d="M197.63,255.27c1.48,7.58,1.32,13.16,1.32,26.41h32.91c0,0-0.91-10.68,0.57-17.24
					c0.27-1.2,0.62-2.23,1.07-2.95c2.35-3.75,4.45-7.25,4.47-11.11c0-0.93-0.12-1.9-0.39-2.89c-1.35-5.05-3.4-16.24-5.93-19.35
					c-2.53-3.12-15.14-2.72-15.14-2.72s-16.48,0.05-21.42,2.81c-1.32,0.74-1.82,2.39-1.93,4.38
					C192.84,238.79,196.45,249.23,197.63,255.27z"/>
			</g>
			<path class="st26" d="M202.5,257.9c0,0,23.06,1.86,29.93,6.55c0.27-1.2,0.62-2.23,1.07-2.95c2.35-3.75,4.45-7.25,4.47-11.11
				c-1.53,3.17-5.43,7.39-15.34,7.51C206.68,258.09,202.5,257.9,202.5,257.9z"/>
		</g>
		<g>
			<path class="st21" d="M159.75,236.11l-2.74-3.13c0,0-1.79-3.28-2.56-4.47s-3.22-3.4-3.7-3.93c-0.48-0.54-0.86,0.48-0.36,1.43
				c0.51,0.95,1.27,3.02,1.27,3.02s-5.27-3.59-6.82-4.48s-2.24-0.21-2.12,0.18c0,0-0.95,0.77-0.18,1.52c0,0-0.83,0.86,0.33,1.79
				c0,0-0.86,0.86,0.8,1.94c1.67,1.07,2.62,4.35,5.19,5.36c2.56,1.01,5.37,3.06,6.89,4.82L159.75,236.11z"/>
			<g>
				<path class="st25" d="M202.5,229.49c0,0,1.52,10.18-4.53,19.2c-6.14,9.15-13.44,18.84-17.97,19.3
					c-4.53,0.45-25.94-28.65-25.94-28.65l5.16-5.7l19.94,18.68c0,0,7.43-12.01,9.08-15.17c1.83-3.5,5.64-10.34,9.5-9.62
					C201.61,228.25,202.5,229.49,202.5,229.49z"/>
			</g>
		</g>
		<g>
			<path class="st21" d="M266.08,231.22l2.74-3.13c0,0,1.79-3.28,2.56-4.47s3.22-3.4,3.7-3.93c0.48-0.54,0.86,0.48,0.36,1.43
				c-0.51,0.95-1.27,3.02-1.27,3.02s5.27-3.59,6.82-4.48c1.55-0.89,2.24-0.21,2.12,0.18c0,0,0.95,0.77,0.18,1.52
				c0,0,0.83,0.86-0.33,1.79c0,0,0.86,0.86-0.8,1.94c-1.67,1.07-2.62,4.35-5.19,5.36c-2.56,1.01-5.37,3.06-6.89,4.82L266.08,231.22z
				"/>
			<g>
				<path class="st25" d="M222.34,232.62c0,0,4.11,4.04,11.78,11.72c6.92,6.93,14.52,11.36,18.38,8.94c3.86-2.42,21-20.42,21-20.42
					l-5.22-5.14l-17.92,15.37c0,0-11.77-11.26-14.23-13.14c-2.46-1.88-10.74-5.4-13.35-2.47
					C220.19,230.42,222.34,232.62,222.34,232.62z"/>
			</g>
		</g>
		<g>
			<g>
				<path class="st21" d="M224.76,225.78c0,0,0.09,6.44-4.28,10.14c0,0-9.28-4.33-12.63-10.12
					C207.85,225.8,216.56,224.84,224.76,225.78z"/>
				<path class="st21" d="M222.87,225.6c0,0-2.29-0.23-2.29-2.92c0-2.68-0.27-7.79-0.27-7.79l-8.61,0.73c0,0,0.73,8.43-0.66,9.98
					c-1.39,1.55-1.39,1.55-1.39,1.55S221.49,229.16,222.87,225.6z"/>
			</g>
			<path class="st27" d="M220.58,221.6c0,0-5.66,0.88-8.68-1.53l-0.19-4.45l8.87,1.92L220.58,221.6L220.58,221.6z"/>
		</g>
		<g>
			<path class="st21" d="M227.54,198.96c0,0,4.75,21.62-6.11,22.51c-10.86,0.9-11.56-10.38-11.56-10.38s-2.64-1.01-2.75-3.43
				c-0.1-2.34,2.96-1.05,2.96-1.05s-1.67-8.85,5.09-10.84C222.27,193.67,226.63,195.85,227.54,198.96z"/>
			<g>
				<path class="st22" d="M226.87,196.3c0,0-3.97,11.24-16.79,10.3c0,0-2.18-8.63,0.51-11.8
					C213.27,191.63,223.78,190.84,226.87,196.3z"/>
			</g>
		</g>
		<g>
			<path class="st23" d="M198.95,281.68c0,0-14.77,22.86-18.62,160.37h10.28c0,0,21.11-93.03,23.64-120.8
				c0.29,1.93,7.54,120.8,7.54,120.8h10.29c0,0,13.33-144.46-0.22-160.37H198.95z"/>
			<polygon class="st28" points="214.25,321.25 217.85,304.32 215.57,337 			"/>
		</g>
	</g>
	<g>
		<g>
			<g>
				<path class="st25" d="M620.52,445.15c-5.56-3.4,16-60.99,25.97-85.59c9.76-24.07-24.8-33.1-32.93-3.7
					C609.4,370.92,609.19,426.61,620.52,445.15z"/>
				<path class="st30" d="M620.52,445.15c0,0-11.42-56.34,11.76-96.79"/>
			</g>
			<g>
				<path class="st25" d="M602.82,376.74c-17.41-24.67-34.75-4.46-23.21,12.59s40.97,55.64,40.97,55.64S620.23,401.41,602.82,376.74
					z"/>
				<path class="st31" d="M620.58,444.97c0,0-13.82-40.75-32.3-65.75"/>
			</g>
			<g>
				<path class="st25" d="M648.54,382.03c23.71-14.06,27.79,5.2,17.48,17.38c-10.31,12.17-47.9,42.19-47.9,42.19
					S624.83,396.09,648.54,382.03z"/>
				<path class="st31" d="M618.44,439.38c0,0,10.09-23.06,41.98-50.35"/>
			</g>
		</g>
		<g>
			<rect x="606.74" y="436.02" class="st23" width="24" height="4.85"/>
			<polygon class="st32" points="611.02,455.07 626.46,455.07 629.46,440.87 608.02,440.87 			"/>
		</g>
	</g>
	<g>
		<g>
			<g>
				<path class="st25" d="M134.47,376.95c13-27.25,33.5-10.25,25,8.5s-31,61.75-31,61.75S121.47,404.2,134.47,376.95z"/>
				<path class="st30" d="M128.47,447.2c0,0,6.75-42.5,20.75-70.25"/>
			</g>
			<g>
				<path class="st25" d="M101.97,380.95c-21.5-17.25-28.25,1.25-19.75,14.75s41.5,48.5,41.5,48.5S123.47,398.2,101.97,380.95z"/>
				<path class="st30" d="M123.72,441.95c0,0-6.75-24.25-34.5-55.75"/>
			</g>
			<g>
				<path class="st25" d="M125.97,444.2c0,0-24.37-65.25-19.12-92.25s31.21-13.45,30.46,5.05S125.97,444.2,125.97,444.2z"/>
				<path class="st30" d="M125.97,444.2c0,0-3.25-59.5-4.25-92.25"/>
			</g>
		</g>
		<g>
			<rect x="114.59" y="436.02" class="st23" width="24" height="4.85"/>
			<polygon class="st32" points="134.31,455.07 118.87,455.07 115.87,440.87 137.31,440.87 			"/>
		</g>
	</g>
</g>
</svg>
