<?xml version="1.0" encoding="utf-8"?>
<!-- Generator: Adobe Illustrator 24.0.2, SVG Export Plug-In . SVG Version: 6.00 Build 0)  -->
<svg version="1.1" id="Layer_1" xmlns="http://www.w3.org/2000/svg" xmlns:xlink="http://www.w3.org/1999/xlink" x="0px" y="0px"
	 viewBox="0 0 203.5 65" style="enable-background:new 0 0 203.5 65;" xml:space="preserve">
<style type="text/css">
	.st0{fill:url(#Union_7_1_);}
	.st1{fill:url(#Union_8_1_);}
	.st2{fill:#202020;}
	.st3{font-family:'OpenSans';}
	.st4{font-size:35.6777px;}
	.st5{font-size:16.0282px;}
</style>
<g id="Group_11" transform="translate(-223.272 -238.552)">
	<g id="Group_1" transform="translate(223.272 243.657)">
		
			<linearGradient id="Union_7_1_" gradientUnits="userSpaceOnUse" x1="-561.6977" y1="406.0517" x2="-561.6977" y2="407.0517" gradientTransform="matrix(32.58 0 0 -59.898 18344.5879 24381.582)">
			<stop  offset="0.124" style="stop-color:#F1BF33"/>
			<stop  offset="0.214" style="stop-color:#F7823E"/>
			<stop  offset="0.373" style="stop-color:#F24C64"/>
			<stop  offset="0.688" style="stop-color:#E3507C"/>
			<stop  offset="0.784" style="stop-color:#CC55A0"/>
			<stop  offset="0.917" style="stop-color:#61DFF0"/>
		</linearGradient>
		<path id="Union_7" class="st0" d="M42.7,59.8l-0.6-0.1l-0.6-0.2l-0.6-0.2L40.3,59l-0.5-0.4l-0.5-0.4l-9.8-9.8l-0.4-0.5l-0.3-0.5
			l-0.3-0.5l-0.2-0.6l-0.1-0.6l0-0.6l0-0.6l0.1-0.6l0.2-0.6l0.3-0.5l0.3-0.5l0.4-0.5l25.3-25.4l0.5-0.5l0.4-0.6l0.4-0.6l0.3-0.6
			l0.2-0.7l0.2-0.7L57,12l0-0.7l0-0.7l-0.1-0.7l-0.2-0.7l-0.2-0.7l-0.3-0.7l-0.4-0.6l-0.4-0.6L55,6l-0.5-0.5l-0.6-0.5l-0.6-0.4
			l-0.7-0.3L52,4.1l-0.7-0.2l-0.7-0.1l-0.7-0.1l-0.7,0l-0.7,0.1l-0.7,0.1L47,4.1l-0.7,0.3l-0.6,0.3L45,5.2l-0.6,0.5L44,6.2l-0.5,0.6
			l-0.4,0.6L42.8,8l-0.3,0.7l-8.9,24.5l0,0.1l0,0.1v0.1l0,0.1l0,0.1l0,0.1l0.1,0.1l0.1,0.1l0.8,0.8L32,37.5l-0.9-0.9l-0.4-0.4
			l-0.3-0.5l-0.2-0.5L30,34.7l-0.1-0.6l0-0.6l0-0.6l0.1-0.6l0.2-0.6L39,7.4l0.3-0.8l0.4-0.8L40.2,5l0.5-0.7l0.6-0.7L42,3l0.7-0.6
			l0.7-0.5l0.8-0.5L44.9,1l0.8-0.3l0.8-0.3l0.9-0.2l0.9-0.1L49.2,0l0.9,0L51,0.1l0.9,0.1l0.9,0.2l0.8,0.3l0.8,0.3l0.8,0.4L56,2
			l0.7,0.6l0.7,0.6l0.6,0.6l0.6,0.7L59,5.2L59.5,6l0.4,0.8l0.3,0.8l0.3,0.9l0.2,0.9l0.1,0.9l0,0.9l0,0.9l-0.1,0.9l-0.2,0.9l-0.2,0.9
			l-0.3,0.8l-0.4,0.8l-0.4,0.8l-0.5,0.7l-0.6,0.7l-0.6,0.7L32.1,44.5L32,44.6l-0.1,0.2l0,0.2l0,0.2l0,0.2l0,0.2l0.1,0.2l0.1,0.1
			l9.8,9.8l0.3,0.3l0.4,0.2l0.4,0.1l0.4,0l0.4,0l0.4-0.1l0.4-0.1l0.3-0.2l0.3-0.3l0.2-0.3l0.2-0.4l0.1-0.4l0-0.4l0-0.4l-0.1-0.4
			l-0.2-0.4L45,52.5L35.5,43l2.6-2.6l9.4,9.5l0.4,0.5l0.4,0.5l0.3,0.6L49,52l0.2,0.6l0.1,0.6l0,0.6l0,0.6l-0.1,0.6l-0.1,0.6
			l-0.2,0.6l-0.3,0.6l-0.3,0.5l-0.4,0.5l-0.5,0.5l-0.5,0.4l-0.5,0.4l-0.6,0.3l-0.6,0.2l-0.6,0.2l-0.6,0.1l-0.6,0L42.7,59.8z"/>
		
			<linearGradient id="Union_8_1_" gradientUnits="userSpaceOnUse" x1="-561.6982" y1="406.0521" x2="-561.6982" y2="407.0521" gradientTransform="matrix(32.581 0 0 -59.902 18316.9824 24383.2363)">
			<stop  offset="0.124" style="stop-color:#F1BF33"/>
			<stop  offset="0.214" style="stop-color:#F7823E"/>
			<stop  offset="0.373" style="stop-color:#F24C64"/>
			<stop  offset="0.688" style="stop-color:#E3507C"/>
			<stop  offset="0.784" style="stop-color:#CC55A0"/>
			<stop  offset="0.917" style="stop-color:#61DFF0"/>
		</linearGradient>
		<path id="Union_8" class="st1" d="M16.8,59.9l-0.6-0.1l-0.6-0.2L15,59.4l-0.6-0.3l-0.5-0.4l-0.5-0.4l-0.5-0.5l-0.4-0.5l-0.3-0.5
			l-0.3-0.6l-0.2-0.6l-0.1-0.6l-0.1-0.6l0-0.6l0-0.6l0.1-0.6l0.2-0.6l0.3-0.6l0.3-0.6l0.4-0.5l0.4-0.5l9.4-9.5l2.6,2.6l-9.5,9.5
			l-0.3,0.3l-0.2,0.4l-0.1,0.4l0,0.4l0,0.4l0.1,0.4l0.2,0.4l0.2,0.3l0.3,0.3l0.3,0.2l0.4,0.1l0.4,0.1l0.4,0l0.4,0l0.4-0.1l0.4-0.2
			l0.3-0.3l9.8-9.8l0.1-0.1l0.1-0.2l0-0.2l0-0.2l0-0.2l0-0.2l-0.1-0.2l-0.1-0.1L3.3,19.2l-0.6-0.7l-0.6-0.7l-0.5-0.7l-0.4-0.8
			l-0.4-0.8l-0.3-0.8l-0.2-0.9l-0.2-0.9L0,12l0-0.9l0-0.9l0.1-0.9l0.2-0.9l0.3-0.9l0.3-0.8L1.3,6l0.5-0.8l0.5-0.7l0.6-0.7l0.6-0.6
			l0.7-0.6L4.8,2l0.8-0.5l0.8-0.4l0.8-0.3L8,0.5l0.9-0.2l0.9-0.1L10.6,0l0.9,0l0.9,0.1l0.9,0.1l0.9,0.2L15,0.7L15.9,1l0.8,0.4
			l0.8,0.5l0.7,0.5L18.8,3l0.6,0.6L20,4.3L20.6,5L21,5.8l0.4,0.8l0.3,0.8l8.9,24.5l0.2,0.6l0.1,0.6l0,0.6l0,0.6l-0.1,0.6l-0.2,0.5
			l-0.2,0.5l-0.3,0.5l-0.4,0.4l-0.9,0.9l-2.6-2.6l0.8-0.8l0.1-0.1l0.1-0.1l0-0.1l0-0.1l0-0.1v-0.1l0-0.1l0-0.1L18.3,8.6L18,8
			l-0.3-0.6l-0.4-0.6l-0.5-0.6l-0.5-0.5l-0.6-0.5l-0.6-0.4l-0.6-0.3l-0.7-0.3l-0.7-0.2l-0.7-0.1l-0.7-0.1l-0.7,0l-0.7,0.1L9.5,3.9
			L8.8,4.1L8.1,4.4L7.5,4.7L6.9,5.1L6.3,5.5L5.8,6L5.3,6.6L4.9,7.2L4.5,7.8L4.2,8.4L4,9.1L3.8,9.8l-0.1,0.7l0,0.7l0,0.7l0.1,0.7
			L4,13.5l0.2,0.7l0.3,0.6L5,15.4L5.4,16l0.5,0.5l25.3,25.3l0.4,0.5l0.3,0.5l0.3,0.5l0.2,0.6l0.1,0.6l0,0.6l0,0.6l-0.1,0.6l-0.2,0.6
			L32,47.4l-0.3,0.5l-0.4,0.5l-9.8,9.8L21,58.6L20.5,59l-0.5,0.3l-0.6,0.2l-0.6,0.2l-0.6,0.1l-0.6,0L16.8,59.9z"/>
	</g>
	<text transform="matrix(1 0 0 1 287.2598 272.8401)" class="st2 st3 st4">ZyBiSys</text>
	<text transform="matrix(1 0 0 1 287.8055 295.2168)" class="st2 st3 st5">keep innovating...!</text>
</g>
</svg>
