<?xml version="1.0" encoding="utf-8"?>
<!-- Generator: Adobe Illustrator 23.0.1, SVG Export Plug-In . SVG Version: 6.00 Build 0)  -->
<svg version="1.1" id="Layer_1" xmlns="http://www.w3.org/2000/svg" xmlns:xlink="http://www.w3.org/1999/xlink" x="0px" y="0px"
	 viewBox="0 0 96 96" style="enable-background:new 0 0 96 96;" xml:space="preserve">
<style type="text/css">
	.st0{fill:#C5D4E2;}
</style>
<title></title>
<g>
	<path class="st0" d="M52.2,49.8c-2.3-2.3-6.1-2.3-8.5,0c0,0,0,0,0,0l-18,18c-2.3,2.3-2.3,6.1,0,8.5c2.3,2.3,6.1,2.3,8.5,0l7.8-7.8
		V90c0,3.3,2.7,6,6,6s6-2.7,6-6V68.5l7.8,7.8c2.3,2.3,6.1,2.3,8.5,0c2.3-2.3,2.3-6.1,0-8.5L52.2,49.8z"/>
	<path class="st0" d="M78,24h-0.6C74.1,7.8,58.2-2.7,42,0.6C32.4,2.6,24.4,9,20.5,18C9.1,18.3,0,27.6,0,39c0,9.9,7.1,18.4,16.8,20.3
		c3.3,0.6,6.4-1.5,7.1-4.7c0.6-3.2-1.4-6.3-4.6-7c-4.1-0.7-7.2-4.3-7.2-8.5c0-5,4-9,9-9c0.7,0.1,1.4,0.3,2.1,0.5
		c1.6,0.4,3.2,0.2,4.6-0.7c1.4-0.9,2.4-2.2,2.7-3.8c2.2-9.7,11.8-15.8,21.5-13.6c8.2,1.8,14,9.1,14,17.6c0,3.3,2.7,6,6,6
		c0,0,0,0,0,0h6c3.3,0,6,2.7,6,6s-2.7,6-6,6s-6,2.7-6,6s2.7,6,6,6c9.9,0,18-8.1,18-18S87.9,24,78,24z"/>
</g>
</svg>
