<?xml version="1.0" encoding="utf-8"?>
<!-- Generator: Adobe Illustrator 23.0.1, SVG Export Plug-In . SVG Version: 6.00 Build 0)  -->
<svg version="1.1" id="Capa_1" xmlns="http://www.w3.org/2000/svg" xmlns:xlink="http://www.w3.org/1999/xlink" x="0px" y="0px"
	 viewBox="0 0 426.7 426.7" style="enable-background:new 0 0 426.7 426.7;" xml:space="preserve">
<style type="text/css">
	.st0{fill:#2F87FF;}
</style>
<g>
	<path class="st0" d="M330.7,170.7H320V128v-25C320,46.1,273.9,0,217.1,0h-7.5c-56.8,0-102.9,46.2-102.9,103v67.7H96
		c-17.6,0-32,14.3-32,31.9v192.2c0,17.6,14.3,31.9,32,31.9h234.7c17.6,0,32-14.3,32-31.9V202.6C362.7,185,348.4,170.7,330.7,170.7z
		 M149.3,103c0-33.3,27-60.3,60.3-60.3h7.5c33.2,0,60.3,27,60.3,60.3v25v42.7h-128V103z M320,384H106.7V213.3H320V384z"/>
	<path class="st0" d="M194.7,306.2v51.1c0,8.8,7.2,16,16,16c8.8,0,16-7.2,16-16v-51.1c15.6-6.3,26.7-21.7,26.7-39.5
		c0-23.5-19.1-42.7-42.7-42.7c-23.5,0-42.7,19.1-42.7,42.7C168,284.5,179,299.9,194.7,306.2z M210.7,256c5.9,0,10.7,4.8,10.7,10.7
		s-4.8,10.7-10.7,10.7c-5.9,0-10.7-4.8-10.7-10.7S204.8,256,210.7,256z"/>
</g>
</svg>
