<?xml version="1.0" encoding="utf-8"?>
<!-- Generator: Adobe Illustrator 24.0.2, SVG Export Plug-In . SVG Version: 6.00 Build 0)  -->
<svg version="1.1" id="Layer_1" xmlns="http://www.w3.org/2000/svg" xmlns:xlink="http://www.w3.org/1999/xlink" x="0px" y="0px"
	 viewBox="0 0 500 500" style="enable-background:new 0 0 500 500;" xml:space="preserve">
<style type="text/css">
	.st0{fill:#EBEBEB;}
	.st1{fill:#E6E6E6;}
	.st2{fill:#F0F0F0;}
	.st3{fill:#FFFFFF;}
	.st4{fill:#E0E0E0;}
	.st5{fill:#F5F5F5;}
	.st6{fill:#FAFAFA;}
	.st7{display:none;}
	.st8{display:inline;}
	.st9{fill:#407BFF;}
	.st10{opacity:0.9;fill:#FFFFFF;enable-background:new    ;}
	.st11{fill:#04AF38;}
	.st12{fill:#47FC7E;}
	.st13{opacity:0.3;fill:#FFFFFF;enable-background:new    ;}
	.st14{fill:#10FF60;}
	.st15{opacity:0.6;fill:#10FF60;enable-background:new    ;}
	.st16{fill:#263238;}
	.st17{fill:#FF8B7B;}
	.st18{fill:#FF5652;}
	.st19{opacity:0.2;enable-background:new    ;}
	.st20{opacity:0.4;enable-background:new    ;}
	.st21{opacity:0.3;enable-background:new    ;}
	.st22{opacity:0.3;fill:#10FF60;enable-background:new    ;}
</style>
<g id="Background_Complete">
	<g>
		<rect y="382.4" class="st0" width="500" height="0.3"/>
		<rect x="290.2" y="389.2" class="st0" width="25.5" height="0.3"/>
		<rect x="395.1" y="394.6" class="st0" width="60.3" height="0.3"/>
		<rect x="222.5" y="389.3" class="st0" width="62.3" height="0.3"/>
		<rect x="169" y="396.8" class="st0" width="13" height="0.3"/>
		<rect x="194.7" y="396.8" class="st0" width="59.4" height="0.3"/>
		<rect x="52.5" y="392.6" class="st0" width="38.5" height="0.3"/>
		<path class="st0" d="M237,337.8H43.9c-3.2,0-5.7-2.6-5.7-5.7V60.7c0-3.2,2.6-5.7,5.7-5.7H237c3.1,0,5.7,2.6,5.7,5.7v271.4
			C242.7,335.2,240.2,337.8,237,337.8z M43.9,55.2c-3,0-5.5,2.5-5.5,5.5v271.4c0,3,2.5,5.5,5.5,5.5H237c3,0,5.5-2.5,5.5-5.5V60.7
			c0-3-2.4-5.5-5.5-5.5H43.9z"/>
		<path class="st0" d="M453.3,337.8H260.2c-3.1,0-5.7-2.6-5.7-5.7V60.7c0-3.2,2.6-5.7,5.7-5.7h193.1c3.1,0,5.7,2.6,5.7,5.7v271.4
			C459,335.2,456.5,337.8,453.3,337.8z M260.2,55.2c-3,0-5.5,2.5-5.5,5.5v271.4c0,3,2.4,5.5,5.5,5.5h193.1c3,0,5.5-2.5,5.5-5.5V60.7
			c0-3-2.5-5.5-5.5-5.5H260.2z"/>
	</g>
	<g>
		<g>
			<g>
				<polygon class="st1" points="196,295.7 129.6,295.7 125.5,249.2 191.9,249.2 				"/>
				<polygon class="st2" points="199.4,295.7 133,295.7 129,249.2 195.4,249.2 				"/>
				<polygon class="st3" points="142.1,285.7 139.9,259.1 186.3,259.1 188.5,285.7 				"/>
			</g>
			<g>
				<rect x="203.1" y="295.7" class="st1" width="7.8" height="86.7"/>
				<rect x="207.9" y="295.7" class="st2" width="5.4" height="86.7"/>
				<rect x="137.9" y="295.7" class="st2" width="75.4" height="9.6"/>
				<rect x="132.8" y="305.2" class="st1" width="7.8" height="77.2"/>
				<rect x="137.6" y="305.2" class="st2" width="5.4" height="77.2"/>
				<rect x="77.4" y="305.2" class="st1" width="7.8" height="77.2"/>
				<rect x="82.2" y="305.2" class="st2" width="5.4" height="77.2"/>
				<rect x="153.8" y="305.2" class="st1" width="7.8" height="77.2"/>
				<rect x="158.6" y="305.2" class="st2" width="5.4" height="77.2"/>
				<rect x="77.4" y="295.7" class="st1" width="60.6" height="9.6"/>
			</g>
		</g>
		<g>
			<g>
				<rect x="129.5" y="79.4" class="st4" width="234.3" height="130.5"/>
				<rect x="130.7" y="79.4" class="st5" width="246" height="130.5"/>
				<rect x="134.7" y="83.4" class="st3" width="238" height="122.4"/>
				<polygon class="st5" points="231.1,205.9 276,83.4 201.9,83.4 156.9,205.9 				"/>
				<polygon class="st5" points="302.4,205.9 347.4,83.4 291.4,83.4 246.5,205.9 				"/>
			</g>
		</g>
		<g>
			<g>
				<rect x="418.2" y="257.8" class="st1" width="19.9" height="124.6"/>
				<polygon class="st6" points="432.9,382.4 438.1,382.4 438.1,372.8 427.4,372.8 				"/>
				<rect x="234.5" y="257.8" class="st1" width="19.9" height="124.6"/>
				<rect x="249.9" y="257.8" class="st6" width="188.2" height="122"/>
				<path class="st1" d="M434.5,297.2H253.4v-34.5h181.1V297.2z M254.4,296.2h179.1v-32.5H254.4L254.4,296.2L254.4,296.2z"/>
				<path class="st1" d="M402.7,279.4H288.8c-5.3,0-10.4-4.3-14-11.7l-0.4-0.7H417l-0.4,0.7C413,275.2,408,279.4,402.7,279.4z
					 M276.1,268c3.4,6.6,8,10.4,12.7,10.4h113.8c4.7,0,9.3-3.8,12.7-10.4H276.1z"/>
				<polygon class="st6" points="255.1,382.4 249.9,382.4 249.9,372.8 260.6,372.8 				"/>
				<path class="st1" d="M434.5,336H253.4v-34.5h181.1V336z M254.4,335h179.1v-32.5H254.4L254.4,335L254.4,335z"/>
				<path class="st1" d="M402.7,318.3H288.8c-5.3,0-10.4-4.3-14-11.7l-0.4-0.7H417l-0.4,0.7C413,314,408,318.3,402.7,318.3z
					 M276.1,306.9c3.4,6.6,8,10.4,12.7,10.4h113.8c4.7,0,9.3-3.8,12.7-10.4H276.1z"/>
				<path class="st1" d="M434.5,374.9H253.4v-34.5h181.1V374.9z M254.4,373.9h179.1v-32.5H254.4L254.4,373.9L254.4,373.9z"/>
				<path class="st1" d="M402.7,357.2H288.8c-5.3,0-10.4-4.3-14-11.7l-0.4-0.7H417l-0.4,0.7C413,352.9,408,357.2,402.7,357.2z
					 M276.1,345.8c3.4,6.6,8,10.4,12.7,10.4h113.8c4.7,0,9.3-3.8,12.7-10.4H276.1z"/>
			</g>
		</g>
		<g>
			<polygon class="st1" points="121,274.3 121,276.7 119.4,276.7 118.2,295.7 99.3,295.7 98.1,276.7 96.5,276.7 96.5,274.3 			"/>
			<path class="st1" d="M114.8,227.2c-1.6-11.3-16.8-14.5-36.1-14.9c-18.4-0.4-24.3-6.9-24.3-6.9s0.1,26.4,26.6,35.9
				C106.1,250.4,116.3,238.5,114.8,227.2z"/>
			<path class="st1" d="M105.4,252.8c0.3-4.6,7.7-13.2,25.6-9.3c12.9,2.8,17.7-3.9,17.7-3.9s-1.2,18.9-20.6,24.6
				C109.6,269.6,104.8,261,105.4,252.8z"/>
			<path class="st1" d="M109.4,281.4c0.2,0,0.4-0.1,0.5-0.2c1.3-1.5,0.2-5.2-1.2-10.3c-1.9-6.5-4.2-14.6-2.2-20.5
				c1.1-3.3,2.5-6.2,3.8-9.1c2.8-5.9,5.2-11,3.2-16.4c-0.1-0.4-0.5-0.5-0.9-0.4c-0.4,0.1-0.5,0.5-0.4,0.9c1.8,4.8-0.4,9.4-3.2,15.3
				c-1.3,2.7-2.8,5.8-3.9,9.2c-2.1,6.3,0.3,14.6,2.2,21.3c1.1,3.9,2.3,8,1.5,9c-0.3,0.3-0.2,0.7,0.1,1
				C109.1,281.4,109.3,281.4,109.4,281.4z"/>
		</g>
	</g>
</g>
<g id="Background_Simple" class="st7">
	<g class="st8">
		<path class="st9" d="M401.9,174.3c-6.8,54.2-54.3,108.4-106.5,143.2C160.3,408.4,29.8,254.2,62.7,198.9
			c24.7-56.1,101.8-40.7,134.6-62.8C381.6,11.2,408.2,128.9,401.9,174.3z"/>
		<path class="st10" d="M401.9,174.3c-6.8,54.2-54.3,108.4-106.5,143.2C160.3,408.4,29.8,254.2,62.7,198.9
			c24.7-56.1,101.8-40.7,134.6-62.8C381.6,11.2,408.2,128.9,401.9,174.3z"/>
	</g>
</g>
<g id="Shadow_1_">
	<ellipse id="_x3C_Path_x3E__191_" class="st5" cx="250" cy="416.2" rx="193.9" ry="11.3"/>
</g>
<g id="Login">
	<g>
		<polygon class="st11" points="250,361 108,361 100.2,132.7 242.2,132.7 		"/>
		<g>
			<polygon class="st12" points="257,354 115.1,354 107.3,125.6 249.3,125.6 			"/>
			<polygon class="st13" points="257,354 115.1,354 107.3,125.6 249.3,125.6 			"/>
		</g>
		<g>
			
				<ellipse transform="matrix(0.7011 -0.7131 0.7131 0.7011 -82.31 185.8372)" class="st14" cx="180.5" cy="191.1" rx="39.3" ry="40.6"/>
			<path class="st3" d="M213.5,191.1c0.2,5.7-1.1,11-3.4,15.7c-5.2,10.3-15.9,17.3-28.4,17.3s-23.7-7-29.6-17.3
				c-2.7-4.7-4.3-10-4.5-15.7c-0.6-18.2,13.6-33,31.8-33S212.9,172.9,213.5,191.1z"/>
			<path class="st15" d="M210,206.8c-5.2,10.3-15.9,17.3-28.4,17.3s-23.7-7-29.6-17.3c8.1-5.5,18-8.8,28.7-8.8
				C191.5,198,201.5,201.3,210,206.8z"/>
			
				<ellipse transform="matrix(0.7011 -0.7131 0.7131 0.7011 -74.3757 182.1929)" class="st15" cx="180.1" cy="179.8" rx="14.4" ry="14.9"/>
		</g>
		<polygon class="st3" points="228.5,271.3 137.9,271.3 137.3,253.3 227.9,253.3 		"/>
		<polygon class="st3" points="229.6,303.4 139,303.4 138.4,285.4 229,285.4 		"/>
		<path class="st14" d="M194.7,287.9l-21.8,3c-0.9,0.1-1.5,0.9-1.3,1.8l2.9,14.6c0.2,0.9,1,1.5,1.9,1.4l21.8-3
			c0.9-0.1,1.5-0.9,1.3-1.8l-2.9-14.6C196.4,288.4,195.6,287.8,194.7,287.9z M188.4,302.7l-3.9,0.5l-0.4-4.7c-0.8-0.4-1.4-1.1-1.6-2
			c-0.3-1.4,0.7-2.8,2.1-3c1.5-0.2,2.9,0.8,3.2,2.2c0.2,0.9-0.1,1.8-0.8,2.3L188.4,302.7z"/>
		<path class="st14" d="M192.5,287.1L192.5,287.1c-0.8,0.1-1.6-0.4-1.7-1.2l-0.3-1.4c-0.8-3.9-4.5-6.9-8.6-6.6
			c-4.4,0.4-7.3,4.2-6.5,8.4l0.3,1.6c0.1,0.8-0.4,1.5-1.2,1.6l0,0c-0.8,0.1-1.6-0.4-1.7-1.2l-0.3-1.4c-1.1-5.5,2.4-10.8,8-11.8
			c5.9-1,11.7,2.9,12.8,8.7l0.3,1.6C193.8,286.3,193.3,287,192.5,287.1z"/>
		<polygon class="st14" points="214.7,328.6 155.7,328.6 155.3,316.9 214.3,316.9 		"/>
		<path class="st16" d="M186.2,262.3c0.1,1.8-1.4,3.3-3.2,3.3s-3.3-1.5-3.4-3.3s1.4-3.3,3.2-3.3S186.2,260.4,186.2,262.3z"/>
		<path class="st16" d="M172,262.3c0.1,1.8-1.4,3.3-3.2,3.3c-1.8,0-3.3-1.5-3.4-3.3s1.4-3.3,3.2-3.3S172,260.4,172,262.3z"/>
		<path class="st16" d="M157.9,262.3c0.1,1.8-1.4,3.3-3.2,3.3c-1.8,0-3.3-1.5-3.4-3.3s1.4-3.3,3.2-3.3S157.8,260.4,157.9,262.3z"/>
		<path class="st16" d="M200.4,262.3c0.1,1.8-1.4,3.3-3.2,3.3s-3.3-1.5-3.4-3.3s1.4-3.3,3.2-3.3S200.3,260.4,200.4,262.3z"/>
		<path class="st16" d="M214.6,262.3c0.1,1.8-1.4,3.3-3.2,3.3c-1.8,0-3.3-1.5-3.4-3.3s1.4-3.3,3.2-3.3S214.5,260.4,214.6,262.3z"/>
	</g>
</g>
<g id="Character_1_">
	<g>
		<path class="st17" d="M333.9,174.3c1.3,2.1,2.4,4.2,3.6,6.3c1.1,2.1,2.2,4.3,3.2,6.5c2,4.4,3.8,8.9,5.1,13.7
			c0.2,0.6,0.3,1.2,0.5,1.8l0.2,0.9l0.1,0.5l0.1,0.8c0.3,2,0,3.7-0.3,5.1c-0.7,2.9-1.9,5.2-3.1,7.5c-2.5,4.4-5.5,8.1-8.9,11.7
			l-4.2-3.2c2.1-3.9,4.1-8.1,5.6-12c0.7-2,1.4-4,1.5-5.6c0.1-0.8,0-1.5-0.1-1.8l-0.4-1.2c-0.2-0.5-0.3-1-0.5-1.5
			c-1.4-4-3.3-8.1-5.3-12.1c-2-4-4.1-8-6.3-11.8L333.9,174.3z"/>
		<path class="st17" d="M331.2,224.4l-4.6,2.4l5.3,6.2c0,0,3.3-2.2,3.4-5.6L331.2,224.4z"/>
		<polygon class="st17" points="320.5,230.7 326.1,235.2 331.9,233 326.6,226.9 		"/>
		<path class="st16" d="M301.1,141.6c-0.1,0.6-0.5,0.9-0.9,0.9c-0.4-0.1-0.6-0.6-0.5-1.1c0.1-0.6,0.5-0.9,0.9-0.9
			C301.1,140.5,301.3,141,301.1,141.6z"/>
		<path class="st18" d="M300.7,142.5c0,0-1.9,2.9-3.6,4.2c0.8,1.1,2.5,1,2.5,1L300.7,142.5z"/>
		<path class="st17" d="M298.9,162.1l0-6.6l8.7,1.1c0,0-0.1,5.6-5,7.3L298.9,162.1z"/>
		<polygon class="st17" points="301.4,150.9 307.5,152.6 307.6,156.6 298.9,155.6 		"/>
		<path class="st19" d="M307.5,152.6l-6.1-1.8l-1.2,2.3c0.1,3.9,2.5,7.1,5.6,8.5c1.7-2.2,1.8-5,1.8-5L307.5,152.6z"/>
		<path class="st16" d="M303.8,138.9c0.1,0,0.2,0,0.2-0.1c0.1-0.1,0.1-0.3,0-0.5c-1.3-1.4-2.8-1.1-2.8-1.1c-0.2,0-0.3,0.2-0.3,0.4
			c0,0.2,0.2,0.3,0.4,0.3l0,0c0,0,1.2-0.2,2.2,0.9C303.6,138.9,303.7,138.9,303.8,138.9z"/>
		<path class="st17" d="M316.6,151.7c-1,5.1-1.6,12.3,2,15.7c0,0-1.4,5.2-11,5.2c-10.5,0-5.1-4.6-5.1-4.6c4.4-1.4,4.3-6.3,3.3-10.3
			L316.6,151.7z"/>
		<path class="st9" d="M320.5,170.8c0.9-1.3,0.9-5.5-0.1-6.3c-1.6-1.2-8.5-1.5-17.8,0.7c1,4.1-1.1,6.2-1.1,6.2L320.5,170.8z"/>
		<path class="st9" d="M351.8,408.2c-0.7,0.1-1.4,0.2-1.8-0.1c-0.1-0.1-0.3-0.4-0.2-0.8c0.1-0.2,0.2-0.4,0.4-0.5
			c1-0.5,3.1,0.4,3.2,0.5c0.1,0,0.1,0.1,0.1,0.1s0,0.1-0.1,0.1C353.2,407.8,352.5,408.1,351.8,408.2z M350.6,407.1
			c-0.1,0-0.1,0-0.2,0.1c-0.1,0.1-0.2,0.2-0.3,0.3c-0.1,0.3,0,0.4,0.1,0.4c0.4,0.3,1.8,0,2.8-0.4C352.4,407.3,351.3,407,350.6,407.1
			z"/>
		<path class="st9" d="M353.5,407.7C353.5,407.7,353.5,407.7,353.5,407.7c-0.9-0.2-2.6-1.4-2.6-2.2c0-0.1,0-0.4,0.4-0.5
			c0.3-0.1,0.5-0.1,0.7,0.1c0.9,0.5,1.5,2.4,1.6,2.5C353.7,407.5,353.6,407.6,353.5,407.7C353.6,407.6,353.5,407.7,353.5,407.7z
			 M351.5,405.2C351.5,405.2,351.5,405.2,351.5,405.2c-0.3,0.1-0.3,0.2-0.3,0.2c0,0.5,1.1,1.4,2,1.8c-0.2-0.6-0.7-1.7-1.3-2
			C351.8,405.2,351.6,405.1,351.5,405.2z"/>
		<path class="st9" d="M299.9,409.4c-0.9,0-1.8-0.1-2.1-0.5c-0.1-0.1-0.2-0.4,0-0.7c0.1-0.2,0.3-0.3,0.5-0.4
			c1.2-0.3,3.6,1.1,3.7,1.1c0.1,0,0.1,0.1,0.1,0.2s-0.1,0.1-0.1,0.1C301.6,409.3,300.7,409.4,299.9,409.4z M298.8,408
			c-0.1,0-0.2,0-0.3,0c-0.1,0-0.3,0.1-0.3,0.2c-0.1,0.2-0.1,0.3,0,0.4c0.3,0.5,2.1,0.5,3.4,0.3C300.8,408.6,299.6,408,298.8,408z"/>
		<path class="st9" d="M302,409.2C302,409.2,301.9,409.2,302,409.2c-0.9-0.4-2.6-1.9-2.5-2.7c0-0.2,0.2-0.4,0.6-0.5
			c0.3,0,0.6,0.1,0.9,0.3c0.9,0.7,1.1,2.6,1.1,2.7C302.2,409.1,302.1,409.2,302,409.2C302.1,409.2,302,409.2,302,409.2z
			 M300.3,406.4c0,0-0.1,0-0.1,0c-0.3,0-0.3,0.1-0.3,0.2c-0.1,0.5,1.1,1.7,1.9,2.2c-0.1-0.5-0.3-1.7-0.9-2.2
			C300.7,406.4,300.5,406.4,300.3,406.4z"/>
		<polygon class="st17" points="309.7,409.1 302.7,409.1 302,392.8 309,392.8 		"/>
		<polygon class="st17" points="361.4,405.8 354.5,407.3 347.6,392.1 354.5,390.6 		"/>
		<path class="st16" d="M353.8,406.6l7.7-1.7c0.3-0.1,0.6,0.1,0.7,0.3l2.7,5.8c0.3,0.6-0.1,1.3-0.7,1.4c-2.7,0.5-4,0.7-7.5,1.4
			c-2.1,0.5-6.8,1.6-9.7,2.2c-2.8,0.6-3.9-2.1-2.8-2.7c5-2.3,7.1-4.3,8.5-6.2C353,406.9,353.4,406.7,353.8,406.6z"/>
		<path class="st16" d="M302.7,408.2h7.7c0.3,0,0.5,0.2,0.6,0.5l1.4,6.3c0.1,0.6-0.4,1.3-1,1.3c-2.8,0-6.8-0.2-10.3-0.2
			c-4.1,0-7.6,0.2-12.4,0.2c-2.9,0-3.7-2.9-2.5-3.2c5.5-1.2,10-1.3,14.8-4.3C301.6,408.5,302.1,408.2,302.7,408.2z"/>
		<g>
			<path class="st9" d="M331.2,169c6.6,1.5,12,18.3,12,18.3L330,197.4c0,0-4.9-4.6-7-13C320.7,175.6,324.4,167.4,331.2,169z"/>
			<path class="st20" d="M331.2,169c6.6,1.5,12,18.3,12,18.3L330,197.4c0,0-4.9-4.6-7-13C320.7,175.6,324.4,167.4,331.2,169z"/>
		</g>
		<path class="st17" d="M296.5,189.1c-1.6,1.8-3.3,3.4-5,5c-0.8,0.8-1.7,1.6-2.6,2.4l-1.3,1.2l-0.3,0.3c-0.2,0.1-0.4,0.3-0.6,0.5
			c-0.4,0.3-0.9,0.7-1.9,1.1c-0.5,0.2-1.2,0.5-2.4,0.5c-0.6,0-1.4-0.1-2.1-0.4c-0.8-0.3-1.5-0.8-2-1.3c-1-1.1-1.4-2-1.6-2.6
			c-0.2-0.6-0.3-1.1-0.3-1.5c-0.1-0.8,0-1.3,0-1.8c0-0.5,0.1-0.9,0.2-1.3c0.3-1.5,0.7-2.8,1.2-4c0.5-1.2,1-2.4,1.5-3.6
			c0.6-1.3,1.3-2.2,1.9-3.3c2.5-4.1,5.4-7.9,8.5-11.5c3.1-3.5,6.5-6.8,10.3-9.7l3.7,3.8c-2.6,3.5-5.1,7.2-7.5,10.8
			c-2.4,3.7-4.5,7.4-6.4,11.3c-0.4,0.9-1,2-1.3,2.8c-0.4,0.9-0.7,1.8-0.9,2.7c-0.3,0.9-0.5,1.8-0.6,2.5c0,0.2,0,0.3,0,0.4
			c0,0.1,0,0.1,0-0.1c0-0.1,0-0.3-0.1-0.6c-0.1-0.4-0.3-1-1.1-1.9c-0.4-0.4-1-0.8-1.6-1c-0.6-0.2-1.3-0.3-1.7-0.3
			c-0.9,0-1.3,0.2-1.6,0.3c-0.5,0.2-0.5,0.3-0.5,0.3l0.4-0.4l1.2-1.1l2.4-2.2c1.6-1.5,3.2-3.1,4.7-4.6L296.5,189.1z"/>
		<path class="st19" d="M325.5,181.4c3.6,3.5,4.8,10,5,15.6l-0.6,0.4c0,0-4.9-4.6-7-13c-0.1-0.5-0.3-1.1-0.3-1.6L325.5,181.4z"/>
		<g>
			<path class="st9" d="M289.5,176c-1.4,7.6-2.3,23.2,1.8,54.1H329c0.3-5.8-3.4-33.9,2.2-61.2c0,0-6.5-1.3-12.6-1.6
				c-4.8-0.2-11.8-0.4-16,0c-1.8,0.2-3.5,0.4-5,0.7C293.5,168.8,290.3,172,289.5,176z"/>
			<path class="st20" d="M289.5,176c-1.4,7.6-2.3,23.2,1.8,54.1H329c0.3-5.8-3.4-33.9,2.2-61.2c0,0-6.5-1.3-12.6-1.6
				c-4.8-0.2-11.8-0.4-16,0c-1.8,0.2-3.5,0.4-5,0.7C293.5,168.8,290.3,172,289.5,176z"/>
		</g>
		<path class="st19" d="M295.3,187.3l-6.8-1.6c-0.2,4.1-0.2,9.2,0.1,15.5C291.7,197.6,295.7,192.1,295.3,187.3z"/>
		<g>
			<polygon class="st19" points="302,392.8 302.4,401.2 309.4,401.2 309,392.8 			"/>
			<polygon class="st19" points="354.5,390.6 347.6,392.1 351.1,399.9 358,398.5 			"/>
		</g>
		<path class="st17" d="M319.9,144.2c-1.8,6.7-2.5,10.8-6.7,13.6c-6.3,4.2-14-0.6-14.3-7.8c-0.2-6.4,2.8-16.4,10-17.7
			C316.1,130.9,321.7,137.4,319.9,144.2z"/>
		<path class="st16" d="M304.1,144.4c-0.3-0.9-1.9-7.9-0.4-9.7c1.5-1.8,18.1-0.5,20.6,1.9c4.1,4,1.3,7.6-3.2,12.2
			c-3.4,3.5-3.5,7.4-5.2,8c-3,1-7.6,0.1-8.5-3.1C306.5,150.6,304.1,144.4,304.1,144.4z"/>
		<path class="st16" d="M322.3,128.7c-5.9-2.5-16.9,0.3-22.9-1.2c-0.2,3.1,1.6,8,7.6,9.4c0,0,8.5,1.6,15,1.4
			C328.5,138,327.3,130.9,322.3,128.7z"/>
		<path class="st16" d="M323.2,136.9c0,0,3.6,0.4,6.2-1.2C330.5,138.3,324.5,139.1,323.2,136.9z"/>
		<path class="st17" d="M307.4,144.7c-0.1,1.8-1,3.5-2,4.7c-1.5,1.7-3.1,0.6-3.4-1.4c-0.2-1.9,0.3-5,2.1-5.9
			C306,141.1,307.5,142.6,307.4,144.7z"/>
		<path class="st9" d="M304.7,230.1c0,0,8,53.8,12.4,73.9c4.8,22,30.5,95,30.5,95l12.6-2.7c0,0-18-59.5-22-90.3
			c-3.1-23.7-9.2-75.9-9.2-75.9L304.7,230.1L304.7,230.1z"/>
		<path class="st16" d="M344.6,394.8c0,0,2.4,4.5,2.4,4.5l14.2-3.1l-1.2-4.3L344.6,394.8z"/>
		<path class="st21" d="M309.7,249.3c9.2,1.8,8.3,36.2,7.1,53.9c-2.7-12.5-6.6-36.6-9.2-53.7C308.3,249.2,309,249.1,309.7,249.3z"/>
		<path class="st9" d="M291.3,230.1c0,0-1,52.6-0.2,74c0.8,22.3,8.6,95.4,8.6,95.4h11.9c0,0,0.4-71.8,1-93.7
			c0.6-23.9,3.5-75.7,3.5-75.7L291.3,230.1L291.3,230.1z"/>
		<path class="st16" d="M297.4,394.8c0,0,0.7,5,0.7,5h14.5l0.4-4.4L297.4,394.8z"/>
		<g>
			<path class="st9" d="M304.3,178.3c3.4,9.1-16.4,19.8-16.4,19.8l-8.6-11c0,0,5.7-11.4,12.8-16.5
				C300.6,164.2,301.7,171.4,304.3,178.3z"/>
			<path class="st20" d="M304.3,178.3c3.4,9.1-16.4,19.8-16.4,19.8l-8.6-11c0,0,5.7-11.4,12.8-16.5
				C300.6,164.2,301.7,171.4,304.3,178.3z"/>
		</g>
	</g>
</g>
<g id="Thinking">
	<g>
		<ellipse class="st14" cx="381.9" cy="86.3" rx="36.1" ry="23"/>
		<path class="st3" d="M368.9,97.9c-2,0-4-0.6-5.7-1.8c-2.3-1.6-3.8-3.9-4.3-6.6c-0.9-5.2,2.6-10.4,7.7-11.6l0,0
			c4.2-1,8.5,0.8,10.8,4.5l23.2-4.8c1.9-0.4,3.8,0.7,4.3,2.5c0.3,0.9,0.1,1.9-0.4,2.7s-1.3,1.4-2.3,1.6l-0.6,0.1
			c-0.2,0-0.3,0.2-0.4,0.3c-0.1,0.2-0.1,0.3,0,0.5l0.4,1.1c0.3,0.7,0,1.5-0.6,1.9c-0.5,0.3-0.8,0.8-0.9,1.4
			c-0.1,0.7-0.5,1.3-1.2,1.4l-0.5,0.1c-0.6,0.1-1.3-0.2-1.6-0.8c-0.4-0.7-1.3-1.1-2.1-0.9s-1.4,0.8-1.5,1.7
			c-0.1,0.7-0.6,1.3-1.2,1.4l-0.5,0.1c-0.6,0.1-1.3-0.2-1.6-0.8c-0.3-0.5-0.8-0.9-1.4-0.9c-0.7-0.1-1.3-0.8-1.3-1.5l0-1.1
			c0-0.2-0.1-0.3-0.2-0.5c-0.1-0.1-0.3-0.2-0.5-0.1l-7.4,1.5c-0.6,4.2-3.8,7.5-8,8.4C370.2,97.8,369.5,97.9,368.9,97.9z M366.9,78.9
			c-4.6,1.1-7.8,5.7-6.9,10.4c0.4,2.4,1.8,4.6,3.8,6s4.5,1.9,7,1.4c3.9-0.8,6.8-4,7.2-7.9l0-0.4l8.1-1.7c0.5-0.1,1,0,1.3,0.3
			c0.4,0.3,0.6,0.7,0.6,1.2l0,1.1c0,0.3,0.2,0.5,0.5,0.6c0.9,0.1,1.7,0.7,2.1,1.4c0.1,0.2,0.3,0.4,0.6,0.3l0.5-0.1
			c0.3-0.1,0.4-0.3,0.4-0.5c0.1-1.3,1.1-2.3,2.3-2.5s2.5,0.3,3.1,1.4c0.1,0.2,0.3,0.4,0.6,0.3l0.5-0.1c0.3-0.1,0.4-0.3,0.4-0.5
			c0.1-0.9,0.6-1.7,1.4-2.2c0.2-0.1,0.3-0.4,0.2-0.7l-0.4-1.1c-0.2-0.4-0.1-0.9,0.1-1.4s0.6-0.7,1.1-0.8l0.6-0.1
			c0.7-0.1,1.3-0.5,1.6-1.1c0.4-0.6,0.5-1.3,0.3-1.9c-0.3-1.3-1.7-2.1-3.1-1.8l-23.9,4.9l-0.2-0.3C374.8,79.8,370.8,78,366.9,78.9
			L366.9,78.9z M368.9,94.2c-1.2,0-2.5-0.4-3.5-1.1c-1.4-0.9-2.4-2.4-2.8-4.1c-0.4-1.7,0-3.4,0.9-4.8s2.4-2.4,4.1-2.8s3.4,0,4.8,0.9
			c1.4,0.9,2.4,2.4,2.8,4.1s0,3.4-0.9,4.8s-2.4,2.4-4.1,2.8l0,0C369.7,94.2,369.3,94.2,368.9,94.2z M368.9,82.4
			c-0.4,0-0.7,0-1.1,0.1c-1.4,0.3-2.6,1.1-3.4,2.3c-0.8,1.2-1.1,2.7-0.8,4.1c0.3,1.4,1.1,2.6,2.3,3.4c1.2,0.8,2.6,1.1,4.1,0.8l0,0
			c1.4-0.3,2.6-1.1,3.4-2.3c0.8-1.2,1.1-2.7,0.8-4.1c-0.3-1.4-1.1-2.6-2.3-3.4C371,82.7,369.9,82.4,368.9,82.4z"/>
		<ellipse class="st15" cx="352.5" cy="115.3" rx="11.9" ry="7.6"/>
		<ellipse class="st22" cx="333.6" cy="122.8" rx="4.9" ry="3.1"/>
	</g>
</g>
</svg>
