<?xml version="1.0" encoding="utf-8"?>
<!-- Generator: Adobe Illustrator 24.0.2, SVG Export Plug-In . SVG Version: 6.00 Build 0)  -->
<svg version="1.1" id="Layer_1" xmlns="http://www.w3.org/2000/svg" xmlns:xlink="http://www.w3.org/1999/xlink" x="0px" y="0px"
	 viewBox="0 0 750 500" style="enable-background:new 0 0 750 500;" xml:space="preserve">
<style type="text/css">
	.st0{fill:#EDF7F4;}
	.st1{fill:none;stroke:#C3E6DD;stroke-width:17;stroke-miterlimit:10;}
	.st2{fill:#C3E6DD;}
	.st3{fill:#FFFFFF;stroke:#C3E6DD;stroke-width:5;stroke-miterlimit:10;}
	
		.st4{fill:none;stroke:#C3E6DD;stroke-width:0.7642;stroke-linecap:round;stroke-linejoin:round;stroke-miterlimit:10;stroke-dasharray:0,2.0378;}
	.st5{fill:none;stroke:#C3E6DD;stroke-width:7.3741;stroke-miterlimit:10;}
	.st6{fill:none;stroke:#C3E6DD;stroke-width:2.458;stroke-miterlimit:10;}
	.st7{fill:none;stroke:#C3E6DD;stroke-width:2.3977;stroke-miterlimit:10;}
	.st8{fill:none;stroke:#C3E6DD;stroke-linecap:round;stroke-miterlimit:10;}
	.st9{fill:none;stroke:#C3E6DD;stroke-width:2;stroke-linecap:round;stroke-linejoin:round;stroke-miterlimit:10;}
	.st10{fill:#FFFFFF;stroke:#C3E6DD;stroke-width:1.8882;stroke-miterlimit:10;}
	.st11{fill:none;stroke:#C3E6DD;stroke-width:4;stroke-miterlimit:10;}
	.st12{fill:none;stroke:#C3E6DD;stroke-width:1.8425;stroke-linecap:round;stroke-miterlimit:10;}
	.st13{fill:#FFFFFF;stroke:#C3E6DD;stroke-width:2;stroke-miterlimit:10;}
	.st14{fill:none;stroke:#C3E6DD;stroke-width:3.4894;stroke-linecap:round;stroke-linejoin:round;stroke-miterlimit:10;}
	.st15{fill:#DCF0EA;}
	.st16{fill:#A2D2C5;}
	.st17{fill:none;stroke:#C3E6DD;stroke-width:1.8882;stroke-miterlimit:10.0002;}
	.st18{fill:none;stroke:#C3E6DD;stroke-width:2.5;stroke-miterlimit:10;}
	.st19{fill:none;stroke:#C3E6DD;stroke-width:1.8882;stroke-miterlimit:9.9998;}
	.st20{fill:none;stroke:#C3E6DD;stroke-width:2;stroke-miterlimit:10;}
	.st21{fill:none;stroke:#C3E6DD;stroke-width:1.8882;stroke-miterlimit:10;}
	.st22{fill:#FAFAFA;}
	.st23{fill:#FFC29F;}
	.st24{fill:#213F3B;}
	.st25{fill:#2C6A65;}
	.st26{fill:#31FF89;}
	.st27{fill:#25F479;}
	.st28{fill:#28AF5F;}
	.st29{fill:#FFA980;}
	.st30{fill:#20534E;}
	.st31{fill:#28AF48;}
	.st32{fill:#10FF60;}
	.st33{fill:#10FF60;stroke:#FFFFFF;stroke-width:1.0626;stroke-miterlimit:10;}
	.st34{fill:#10FF60;stroke:#FFFFFF;stroke-miterlimit:10;}
	.st35{fill:#305F59;}
</style>
<g id="OBJECTS">
	<path class="st0" d="M97.3,455.1c0,0-58.2-41.8-14-101.6s38.9-80.8-1.3-142.3s-1.2-106.5,58.8-100.5c60,6,88.5-42,130.5-64.5
		c42-22.5,93.5-23.5,148.8,18.2c55.2,41.8,149.7-19.7,196.2,13.3s2.7,79.4-4.9,108.6s5.3,64.8,43.9,101.5c62,58.9,6,166.7,6,166.7
		L97.3,455.1z"/>
	<g>
		<line class="st1" x1="239.5" y1="436" x2="239.5" y2="455.1"/>
		<line class="st1" x1="265" y1="421.4" x2="265" y2="455.1"/>
		<line class="st1" x1="290.5" y1="392.3" x2="290.5" y2="455.1"/>
		<line class="st1" x1="316" y1="411" x2="316" y2="455.1"/>
		<line class="st1" x1="341.5" y1="427.7" x2="341.5" y2="455.1"/>
		<line class="st1" x1="367" y1="387.7" x2="367" y2="455.1"/>
		<line class="st1" x1="392.5" y1="417.7" x2="392.5" y2="455.1"/>
		<line class="st1" x1="418" y1="385.4" x2="418" y2="455.1"/>
		<line class="st1" x1="443.5" y1="339.2" x2="443.5" y2="455.1"/>
		<line class="st1" x1="469" y1="365.7" x2="469" y2="455.1"/>
		<line class="st1" x1="494.5" y1="339.2" x2="494.5" y2="455.1"/>
		<line class="st1" x1="520" y1="396.1" x2="520" y2="454.5"/>
		<line class="st1" x1="545.5" y1="351.9" x2="545.5" y2="455.1"/>
		<line class="st1" x1="571" y1="293" x2="571" y2="455.1"/>
		<line class="st1" x1="596.5" y1="342.3" x2="596.5" y2="455.1"/>
		<line class="st1" x1="622" y1="286.3" x2="622" y2="455.1"/>
	</g>
	<g>
		<g>
			<polygon class="st2" points="597.4,231.3 593.4,235.3 532,296.7 454.9,296.7 388.8,362.8 285.4,362.8 193.1,455.1 158.9,455.1 
				275.4,338.6 378.8,338.6 444.9,272.5 522,272.5 576.3,218.2 580.4,214.2 588.9,222.7 			"/>
		</g>
		<g>
			<polygon class="st2" points="645.3,166.3 543,206.3 588.9,222.7 605.3,268.6 			"/>
		</g>
	</g>
	<g>
		<path class="st3" d="M524.8,313.5H225.2c-7.7,0-14-6.3-14-14V111.3c0-7.7,6.3-14,14-14h299.6c7.7,0,14,6.3,14,14v188.3
			C538.8,307.3,532.5,313.5,524.8,313.5z"/>
		<g>
			<g>
				<line class="st4" x1="256.9" y1="276.4" x2="256.9" y2="286.3"/>
				<line class="st4" x1="299.4" y1="248.1" x2="299.4" y2="286.3"/>
				<line class="st4" x1="343.8" y1="219.3" x2="343.8" y2="286.3"/>
				<line class="st4" x1="389.6" y1="261.3" x2="389.6" y2="286.3"/>
				<line class="st4" x1="434.3" y1="203.9" x2="434.3" y2="286.3"/>
				<line class="st4" x1="479" y1="248.1" x2="479" y2="286.3"/>
				<line class="st4" x1="523.9" y1="189.6" x2="523.9" y2="286.3"/>
			</g>
			<g>
				<line class="st5" x1="236.8" y1="149" x2="236.8" y2="169"/>
				<line class="st5" x1="248.1" y1="140.2" x2="248.1" y2="169"/>
				<line class="st6" x1="233" y1="173" x2="251.8" y2="173"/>
				<line class="st5" x1="264" y1="137.3" x2="264" y2="169"/>
				<line class="st5" x1="275.3" y1="127.7" x2="275.3" y2="169"/>
				<line class="st6" x1="260.3" y1="173" x2="279.1" y2="173"/>
				<line class="st5" x1="291.2" y1="137.3" x2="291.2" y2="169"/>
				<line class="st5" x1="302.5" y1="146.5" x2="302.5" y2="169"/>
				<line class="st6" x1="287.5" y1="173" x2="306.3" y2="173"/>
				<line class="st5" x1="318.5" y1="153.2" x2="318.5" y2="169"/>
				<line class="st5" x1="329.8" y1="147.3" x2="329.8" y2="169"/>
				<line class="st6" x1="314.7" y1="173" x2="333.5" y2="173"/>
				<line class="st5" x1="345.7" y1="140.2" x2="345.7" y2="169"/>
				<line class="st5" x1="357" y1="129.8" x2="357" y2="169"/>
				<line class="st6" x1="342" y1="173" x2="360.8" y2="173"/>
				<line class="st5" x1="372.9" y1="141.7" x2="372.9" y2="169"/>
				<line class="st5" x1="384.3" y1="154.6" x2="384.3" y2="169"/>
				<line class="st6" x1="369.2" y1="173" x2="388" y2="173"/>
				<line class="st5" x1="400.2" y1="138.5" x2="400.2" y2="169"/>
				<line class="st5" x1="411.5" y1="144.9" x2="411.5" y2="169"/>
				<line class="st6" x1="396.4" y1="173" x2="415.2" y2="173"/>
				<line class="st5" x1="427.4" y1="144.9" x2="427.4" y2="169"/>
				<line class="st5" x1="438.7" y1="153.2" x2="438.7" y2="169"/>
				<line class="st6" x1="423.7" y1="173" x2="442.5" y2="173"/>
				<line class="st5" x1="454.6" y1="140.2" x2="454.6" y2="169"/>
				<line class="st5" x1="466" y1="130.5" x2="466" y2="169"/>
				<line class="st6" x1="450.9" y1="173" x2="469.7" y2="173"/>
				<line class="st5" x1="481.9" y1="141.7" x2="481.9" y2="169"/>
				<line class="st5" x1="493.2" y1="135" x2="493.2" y2="169"/>
				<line class="st6" x1="478.1" y1="173" x2="497" y2="173"/>
				<line class="st5" x1="509.1" y1="125.5" x2="509.1" y2="169"/>
				<line class="st5" x1="520.4" y1="132.3" x2="520.4" y2="169"/>
				<line class="st6" x1="505.4" y1="173" x2="524.2" y2="173"/>
			</g>
			<g>
				<line class="st7" x1="233" y1="189.6" x2="251.8" y2="189.6"/>
				<line class="st7" x1="233" y1="203.4" x2="251.8" y2="203.4"/>
				<line class="st7" x1="233" y1="217.2" x2="251.8" y2="217.2"/>
				<line class="st7" x1="233" y1="231" x2="251.8" y2="231"/>
				<line class="st7" x1="233" y1="244.8" x2="251.8" y2="244.8"/>
				<line class="st7" x1="233" y1="258.7" x2="251.8" y2="258.7"/>
				<line class="st7" x1="233" y1="272.5" x2="251.8" y2="272.5"/>
				<line class="st7" x1="233" y1="286.3" x2="251.8" y2="286.3"/>
			</g>
			<g>
				<path class="st7" d="M255.7,272.5c22.3,0,22.3-30,44.7-30s22.3-24.2,44.6-24.2c22.3,0,22.3,40.5,44.6,40.5
					c22.3,0,22.3-55.3,44.7-55.3c22.3,0,22.3,42.1,44.7,42.1c22.3,0,22.3-55.9,44.7-55.9"/>
				<path class="st2" d="M259.4,272.4c0-1.4-1.1-2.5-2.5-2.5c-1.4,0-2.5,1.1-2.5,2.5c0,1.4,1.1,2.5,2.5,2.5
					C258.3,274.9,259.4,273.8,259.4,272.4z"/>
				<path class="st2" d="M301.9,242.4c0-1.4-1.1-2.5-2.5-2.5s-2.5,1.1-2.5,2.5c0,1.4,1.1,2.5,2.5,2.5
					C300.8,244.8,301.9,243.7,301.9,242.4z"/>
				<path class="st2" d="M346.2,218.4c0-1.4-1.1-2.5-2.5-2.5s-2.5,1.1-2.5,2.5c0,1.4,1.1,2.5,2.5,2.5S346.2,219.8,346.2,218.4z"/>
				<path class="st2" d="M392.1,258.7c0-1.4-1.1-2.5-2.5-2.5s-2.5,1.1-2.5,2.5s1.1,2.5,2.5,2.5C391,261.1,392.1,260,392.1,258.7z"/>
				<path class="st2" d="M436.8,203.4c0-1.4-1.1-2.5-2.5-2.5s-2.5,1.1-2.5,2.5c0,1.4,1.1,2.5,2.5,2.5
					C435.6,205.9,436.8,204.8,436.8,203.4z"/>
				<path class="st2" d="M481.4,245.4c0-1.4-1.1-2.5-2.5-2.5s-2.5,1.1-2.5,2.5c0,1.4,1.1,2.5,2.5,2.5
					C480.3,247.9,481.4,246.8,481.4,245.4z"/>
				<path class="st2" d="M526.1,189.6c0-1.4-1.1-2.5-2.5-2.5c-1.4,0-2.5,1.1-2.5,2.5c0,1.4,1.1,2.5,2.5,2.5
					C525,192,526.1,190.9,526.1,189.6z"/>
			</g>
			<line class="st7" x1="254.4" y1="286.3" x2="523.6" y2="286.3"/>
			<g>
				<rect x="352.6" y="300" class="st2" width="4.3" height="4.3"/>
				<rect x="366.1" y="300" class="st2" width="4.3" height="4.3"/>
				<rect x="379.6" y="300" class="st2" width="4.3" height="4.3"/>
				<rect x="393.1" y="300" class="st2" width="4.3" height="4.3"/>
			</g>
		</g>
	</g>
	<line class="st8" x1="73" y1="455.1" x2="677" y2="455.1"/>
	<g>
		<path class="st9" d="M161.8,329.4c0,1.6-1.3,2.9-2.9,2.9c-1.6,0-2.9-1.3-2.9-2.9s1.3-2.9,2.9-2.9S161.8,327.8,161.8,329.4z"/>
		<path class="st9" d="M278.2,62.8c0,1.6-1.3,2.9-2.9,2.9s-2.9-1.3-2.9-2.9c0-1.6,1.3-2.9,2.9-2.9C276.9,59.9,278.2,61.2,278.2,62.8
			z"/>
		<path class="st9" d="M604.9,166.5c0,1.6-1.3,2.9-2.9,2.9s-2.9-1.3-2.9-2.9c0-1.6,1.3-2.9,2.9-2.9
			C603.6,163.6,604.9,164.9,604.9,166.5z"/>
		<path class="st9" d="M600.3,289.2c0,1.6-1.3,2.9-2.9,2.9s-2.9-1.3-2.9-2.9s1.3-2.9,2.9-2.9C599,286.3,600.3,287.6,600.3,289.2z"/>
		<path class="st9" d="M327.7,387.7c0,1.6-1.3,2.9-2.9,2.9s-2.9-1.3-2.9-2.9s1.3-2.9,2.9-2.9C326.4,384.8,327.7,386.1,327.7,387.7z"
			/>
		<g>
			<line class="st9" x1="121.7" y1="219.8" x2="121.7" y2="225.6"/>
			<line class="st9" x1="124.6" y1="222.7" x2="118.8" y2="222.7"/>
		</g>
		<g>
			<line class="st9" x1="480" y1="57" x2="480" y2="62.8"/>
			<line class="st9" x1="482.9" y1="59.9" x2="477.1" y2="59.9"/>
		</g>
		<g>
			<line class="st9" x1="336.4" y1="44.3" x2="340.4" y2="48.4"/>
			<line class="st9" x1="340.4" y1="44.3" x2="336.4" y2="48.4"/>
		</g>
		<g>
			<line class="st9" x1="643" y1="223.5" x2="643" y2="229.2"/>
			<line class="st9" x1="645.9" y1="226.4" x2="640.1" y2="226.4"/>
		</g>
		<g>
			<line class="st9" x1="96.3" y1="140.5" x2="96.3" y2="146.3"/>
			<line class="st9" x1="99.2" y1="143.4" x2="93.5" y2="143.4"/>
		</g>
	</g>
	<g>
		<g>
			<path class="st10" d="M179.8,200.4h-37.5c-1.7,0-3-1.3-3-3v-44c0-1.7,1.3-3,3-3h37.5c1.7,0,3,1.3,3,3v44
				C182.8,199,181.5,200.4,179.8,200.4z"/>
		</g>
		<g>
			<ellipse class="st11" cx="161.1" cy="172" rx="13.7" ry="13.7"/>
			<circle class="st11" cx="161.1" cy="172" r="6"/>
		</g>
		<g>
			<line class="st12" x1="147.4" y1="192.9" x2="159.3" y2="192.9"/>
			<line class="st12" x1="162.8" y1="192.9" x2="174.7" y2="192.9"/>
		</g>
	</g>
	<g>
		<rect x="433" y="91" class="st2" width="19" height="24.8"/>
		<polygon class="st2" points="442.5,69.7 425.9,91 459.1,91 		"/>
	</g>
	<g>
		<rect x="410.9" y="117.2" class="st2" width="8.7" height="11.3"/>
		<polygon class="st2" points="415.2,107.5 407.7,117.2 422.8,117.2 		"/>
	</g>
	<g>
		<rect x="463.6" y="111.9" class="st2" width="4.7" height="6.1"/>
		<polygon class="st2" points="466,106.7 461.9,111.9 470,111.9 		"/>
	</g>
	<g>
		<g>
			<path class="st13" d="M242.6,129.8H128.7c-3.3,0-5.9-2.6-5.9-5.9V70.5c0-3.3,2.6-5.9,5.9-5.9h113.9c3.3,0,5.9,2.6,5.9,5.9v53.4
				C248.5,127.2,245.9,129.8,242.6,129.8z"/>
		</g>
		<g>
			<line class="st14" x1="194.6" y1="84" x2="239.4" y2="84"/>
			<line class="st14" x1="194.6" y1="92.8" x2="218.1" y2="92.8"/>
			<line class="st14" x1="194.6" y1="101.7" x2="231.7" y2="101.7"/>
			<line class="st14" x1="194.6" y1="110.5" x2="218.1" y2="110.5"/>
		</g>
		<g>
			<path class="st2" d="M144.3,80.6c-4.2,4.3-6.9,10.1-6.9,16.6c0,13,10.6,23.6,23.6,23.6c9.9,0,18.3-6.1,21.8-14.7l-21.8-8.9
				L144.3,80.6z"/>
			<path class="st15" d="M176,79c-4.1-3.3-9.3-5.4-15-5.4c-6.5,0-12.4,2.7-16.7,7l16.7,16.6L176,79z"/>
			<path class="st16" d="M176,79l-15,18.2l21.8,8.9c1.1-2.8,1.8-5.8,1.8-8.9C184.6,89.9,181.3,83.3,176,79z"/>
		</g>
	</g>
	<g>
		<g>
			
				<ellipse transform="matrix(0.9899 -0.1419 0.1419 0.9899 -8.4573 82.88)" class="st17" cx="576.9" cy="100.7" rx="22.2" ry="22.2"/>
		</g>
		<g>
			<line class="st18" x1="568.8" y1="86.9" x2="588.1" y2="92.8"/>
			<line class="st18" x1="567.4" y1="92.5" x2="586.7" y2="98.4"/>
			<path class="st18" d="M578.6,90.7c0,0,4.5,13-8.3,9.5l2.5,11.7"/>
		</g>
	</g>
	<g>
		<g>
			
				<ellipse transform="matrix(0.4939 -0.8695 0.8695 0.4939 149.022 573.7083)" class="st19" cx="567.4" cy="158.8" rx="15.4" ry="15.4"/>
		</g>
		<g>
			<line class="st20" x1="556.5" y1="154.7" x2="571" y2="148.3"/>
			<line class="st20" x1="558.5" y1="158.8" x2="573" y2="152.3"/>
			<path class="st20" d="M564.3,151.9c0,0,9.4,5.4-0.1,10l7.5,5.7"/>
		</g>
	</g>
	<g>
		<g>
			<path class="st21" d="M617.5,141.5c-1.8,6.8-8.8,10.9-15.6,9s-10.8-8.8-9-15.6s8.8-10.9,15.6-9
				C615.3,127.7,619.3,134.7,617.5,141.5z"/>
		</g>
		<g>
			<line class="st20" x1="601.8" y1="132.1" x2="614.3" y2="135.9"/>
			<line class="st20" x1="600.9" y1="135.7" x2="613.4" y2="139.5"/>
			<path class="st20" d="M608.2,134.5c0,0,2.9,8.4-5.4,6.2l1.6,7.6"/>
		</g>
	</g>
	<g>
		<line class="st9" x1="340.4" y1="62.8" x2="388.7" y2="62.8"/>
		<line class="st9" x1="340.4" y1="70.2" x2="373.3" y2="70.2"/>
		<line class="st9" x1="340.4" y1="77.5" x2="362.8" y2="77.5"/>
		<line class="st9" x1="340.4" y1="84.9" x2="354.3" y2="84.9"/>
	</g>
	<g>
		<rect x="279.9" y="81.1" class="st2" width="7.4" height="7.4"/>
		<rect x="297.1" y="81.1" class="st2" width="7.4" height="7.4"/>
		<rect x="314.3" y="81.1" class="st2" width="7.4" height="7.4"/>
	</g>
	<g>
		<circle class="st2" cx="101.1" cy="189.5" r="10.8"/>
		<g>
			<circle class="st22" cx="96.3" cy="184.7" r="1"/>
			<circle class="st22" cx="101.1" cy="184.7" r="1"/>
			<circle class="st22" cx="105.8" cy="184.7" r="1"/>
			<circle class="st22" cx="96.3" cy="189.5" r="1"/>
			<circle class="st22" cx="101.1" cy="189.5" r="1"/>
			<circle class="st22" cx="105.8" cy="189.5" r="1"/>
			<circle class="st22" cx="96.3" cy="194.2" r="1"/>
			<circle class="st22" cx="101.1" cy="194.2" r="1"/>
			<circle class="st22" cx="105.8" cy="194.2" r="1"/>
		</g>
	</g>
	<g>
		<path class="st2" d="M162.3,282.7h-3.9c-0.7,0-1.3-0.4-1.6-1.1c-0.3-0.8-0.6-1.5-0.9-2.2c-0.3-0.6-0.2-1.4,0.3-1.9l2.8-2.8
			c0.6-0.6,0.6-1.7,0-2.3l-2.8-2.8c-0.6-0.6-1.7-0.6-2.3,0l-2.8,2.8c-0.5,0.5-1.3,0.6-1.9,0.3c-0.7-0.4-1.5-0.7-2.2-0.9
			c-0.7-0.2-1.1-0.9-1.1-1.5v-3.9c0-0.9-0.7-1.6-1.6-1.6h-3.9c-0.9,0-1.6,0.7-1.6,1.6v3.9c0,0.7-0.4,1.3-1.1,1.5
			c-0.8,0.3-1.5,0.6-2.2,0.9c-0.6,0.3-1.4,0.2-1.9-0.3l-2.8-2.8c-0.6-0.6-1.7-0.6-2.3,0l-2.8,2.8c-0.6,0.6-0.6,1.7,0,2.3l2.8,2.8
			c0.5,0.5,0.6,1.3,0.3,1.9c-0.4,0.7-0.7,1.5-0.9,2.2c-0.2,0.7-0.8,1.1-1.6,1.1h-3.9c-0.9,0-1.7,0.7-1.7,1.6v4
			c0,0.9,0.7,1.6,1.7,1.6h3.9c0.7,0,1.3,0.4,1.6,1.1c0.3,0.8,0.6,1.5,0.9,2.2c0.3,0.6,0.2,1.4-0.3,1.9l-2.8,2.8
			c-0.6,0.6-0.6,1.7,0,2.3l2.8,2.8c0.6,0.6,1.7,0.6,2.3,0l2.8-2.8c0.5-0.5,1.3-0.6,1.9-0.3c0.7,0.4,1.5,0.7,2.2,0.9
			c0.7,0.2,1.1,0.9,1.1,1.5v3.9c0,0.9,0.7,1.6,1.6,1.6h3.9c0.9,0,1.6-0.7,1.6-1.6v-3.9c0-0.7,0.4-1.3,1.1-1.5
			c0.8-0.3,1.5-0.6,2.2-0.9c0.6-0.3,1.4-0.2,1.9,0.3l2.8,2.8c0.6,0.6,1.7,0.6,2.3,0l2.8-2.8c0.6-0.6,0.6-1.7,0-2.3l-2.8-2.8
			c-0.5-0.5-0.6-1.3-0.3-1.9c0.4-0.7,0.7-1.5,0.9-2.2c0.2-0.7,0.9-1.1,1.6-1.1h3.9c0.9,0,1.6-0.7,1.6-1.6v-4
			C164,283.4,163.2,282.7,162.3,282.7z M142.3,294.5c-4.5,0-8.2-3.7-8.2-8.2s3.7-8.2,8.2-8.2s8.2,3.7,8.2,8.2
			C150.4,290.8,146.8,294.5,142.3,294.5z"/>
		<path class="st2" d="M113.7,265.7h-2.5c-0.4,0-0.8-0.3-1-0.7c-0.2-0.5-0.3-1-0.6-1.4c-0.2-0.4-0.1-0.9,0.2-1.2l1.8-1.8
			c0.4-0.4,0.4-1.1,0-1.5l-1.8-1.8c-0.4-0.4-1.1-0.4-1.5,0l-1.8,1.8c-0.3,0.3-0.8,0.4-1.2,0.2c-0.4-0.2-0.9-0.4-1.4-0.6
			c-0.4-0.1-0.7-0.5-0.7-1v-2.5c0-0.6-0.5-1-1-1h-2.5c-0.6,0-1,0.5-1,1v2.5c0,0.4-0.3,0.8-0.7,1c-0.5,0.2-1,0.4-1.4,0.6
			c-0.4,0.2-0.9,0.1-1.2-0.2l-1.8-1.8c-0.4-0.4-1.1-0.4-1.5,0l-1.8,1.8c-0.4,0.4-0.4,1.1,0,1.5l1.8,1.8c0.3,0.3,0.4,0.8,0.2,1.2
			c-0.2,0.5-0.4,0.9-0.6,1.4c-0.1,0.4-0.5,0.7-1,0.7h-2.5c-0.6,0-1,0.5-1,1v2.5c0,0.6,0.5,1,1,1h2.5c0.4,0,0.8,0.3,1,0.7
			c0.2,0.5,0.3,1,0.6,1.4c0.2,0.4,0.1,0.9-0.2,1.2l-1.8,1.8c-0.4,0.4-0.4,1.1,0,1.5l1.8,1.8c0.4,0.4,1.1,0.4,1.5,0l1.8-1.8
			c0.3-0.3,0.8-0.4,1.2-0.2c0.4,0.2,0.9,0.4,1.4,0.6c0.4,0.1,0.7,0.5,0.7,1v2.5c0,0.6,0.5,1,1,1h2.5c0.6,0,1-0.5,1-1v-2.5
			c0-0.4,0.3-0.8,0.7-1c0.5-0.2,1-0.4,1.4-0.6c0.4-0.2,0.9-0.1,1.2,0.2l1.8,1.8c0.4,0.4,1.1,0.4,1.5,0l1.8-1.8
			c0.4-0.4,0.4-1.1,0-1.5l-1.8-1.8c-0.3-0.3-0.4-0.8-0.2-1.2c0.2-0.5,0.4-0.9,0.6-1.4c0.1-0.4,0.5-0.7,1-0.7h2.5c0.6,0,1-0.5,1-1
			v-2.5C114.8,266.2,114.3,265.7,113.7,265.7z M101.1,273.2c-2.8,0-5.2-2.3-5.2-5.2s2.3-5.2,5.2-5.2c2.8,0,5.2,2.3,5.2,5.2
			C106.3,270.8,103.9,273.2,101.1,273.2z"/>
	</g>
	<g>
		<polyline class="st9" points="285.8,328.1 289.6,325.1 285.8,322.2 		"/>
		<polyline class="st9" points="297.5,328.1 301.3,325.1 297.5,322.2 		"/>
		<polyline class="st9" points="309.3,328.1 313,325.1 309.3,322.2 		"/>
		<polyline class="st9" points="321,328.1 324.8,325.1 321,322.2 		"/>
	</g>
	<g>
		<g>
			<polygon class="st23" points="522.7,445.6 532.4,445.3 530.7,431 521.6,432.4 			"/>
			<g>
				<path class="st24" d="M535.8,454.5c1.1-3.7-1.5-6.5-2.3-9.8c-0.5-2-10.8-3.3-11.8,1.2c-1,4.3-0.2,8.6-0.2,8.6L535.8,454.5
					L535.8,454.5L535.8,454.5z"/>
			</g>
		</g>
		<g>
			<polygon class="st23" points="468.2,445.9 478.3,445.9 479.2,429.7 469.5,429.1 			"/>
			<path class="st24" d="M478.3,444.8h-9.3c0,0-1,0-4.1,3.2s-10.4,0.1-13.7,6.6H479C479,454.5,481.8,449.4,478.3,444.8z"/>
		</g>
		<g>
			<path class="st24" d="M514,181.8c1-1.1,1.9-2.4,2.4-3.8s0.3-3.1-0.5-4.3c-0.7-0.9-1.7-1.4-2.7-1.8c-1-0.3-2.3-0.3-3,0.5
				c-0.6,0.6-0.7,1.6-0.6,2.5c0.1,1.6,0.6,3.3,0.5,4.9c0,0.9-0.3,1.9-0.3,2.9c0,0.8,0.5,2.9,1.6,2.1
				C512.3,184.1,513.2,182.8,514,181.8z"/>
		</g>
		<g>
			<polygon class="st25" points="521.3,277 533.3,439.5 521.3,439.5 500.4,321.3 480.2,439.5 468.4,439.5 479.4,277 			"/>
		</g>
		<g>
			<path class="st23" d="M449.9,216.2c0,0-2.4-3.8-2-6s0.3-4.8-0.8-6.2c-1.2-1.5-0.9-3.2-2.1-2.7c-0.4,0.1-0.2,2.8,0.4,4
				c0,0-3.5-7.2-4-8s-1.3-0.3-1.3,0.4c0,0-0.4-0.8-1-0.4c-0.5,0.3-0.3,1.1-0.3,1.5c0,0-0.8,0.1-0.7,1c0.1,0.6,0.2,1,0.3,1.3
				c0,0-0.4,0.1-0.5,0.8c-0.1,0.5,0.1,1.5,0.4,2.2c0.8,1.8,0.2,2.2,1,3.9c0.8,1.8,2.9,2,3.8,5.4c0.9,3.4,1.3,4.4,1.3,4.4
				L449.9,216.2z"/>
			<g>
				<path class="st26" d="M479.7,208c-2.3,0.4-10.6,17.6-15.1,25.8s-4.5,8.2-4.5,8.2l-10.9-28c0,0-3.6-0.6-5.8,2.6
					c0,0,5.8,37.8,7.3,42c1.5,4.2,6,7.3,14-2.8s21.9-29.6,23-31.8C488.8,221.7,493.2,205.9,479.7,208z"/>
			</g>
		</g>
		<g>
			<g>
				<path class="st27" d="M524,242.7c-3.8,20.3-2.7,34.3-2.7,34.3h-42c0,0-1.7-65.5-0.8-67.7c1.8-4,19.3-9.6,19.3-9.6l14.9,0
					c0,0,12.2,3.6,15,4.3c0.8,0.2,1.2,1.9,1.1,4.7C528.8,215.5,526.7,228.5,524,242.7z"/>
			</g>
			<path class="st28" d="M524,242.7c-3.8,20.3-2.7,34.3-2.7,34.3h-4.9c0,0,1.3-49.9,8.6-66c1.1-2.4,2.4-3,3.9-2.2
				C528.8,215.5,526.7,228.5,524,242.7z"/>
		</g>
		<path class="st29" d="M510.4,185.3c0,0-0.4,10.1,1.3,14.1l-5.8,6.3l-4.1-0.8l-1.5-0.8l-1-3.1v-15.8H510.4z"/>
		<path class="st23" d="M495.6,168.6c0,0-4.8,21.9,1.3,25.8c4,2.5,10.9,1,13-8.7s-1.8-15-6.9-16.3
			C498.5,168.3,495.6,168.6,495.6,168.6z"/>
		<path class="st23" d="M510.5,181.4c0,0,1.7-1.5,2.9,0.3c1.3,1.8-1.8,4.9-3.8,4.9L510.5,181.4z"/>
		<rect x="479.3" y="277" class="st24" width="42" height="3.7"/>
		<polygon class="st30" points="500.4,321.3 496.8,297.6 497.4,339.2 		"/>
		<g>
			<g>
				<path class="st24" d="M487.4,259.9h-50.7l-12.1-33.4c-0.5-1.4,0.5-2.9,2-2.9h46.1c0.9,0,1.7,0.6,2,1.4L487.4,259.9z"/>
			</g>
			<g>
				<path class="st24" d="M517.5,263.1h-50.4c-0.9,0-1.6-0.7-1.6-1.6l0,0c0-0.9,0.7-1.6,1.6-1.6h50.4c0.9,0,1.6,0.7,1.6,1.6l0,0
					C519.1,262.3,518.4,263.1,517.5,263.1z"/>
			</g>
			<g>
				<path class="st24" d="M487.2,263.1h-50.4c-0.9,0-1.6-0.7-1.6-1.6l0,0c0-0.9,0.7-1.6,1.6-1.6h50.4c0.9,0,1.6,0.7,1.6,1.6l0,0
					C488.8,262.3,488.1,263.1,487.2,263.1z"/>
			</g>
		</g>
		<g>
			<path class="st23" d="M488.9,257.8c0,0-4.4-0.2-6-1.1c-1.7-0.9-5.8-1.1-6.7-1.1s-0.1,1.4,1,1.6c1,0.2,2.3,1.1,2.3,1.1
				s-6.5,0.6-8,0.5c-1.6-0.1-3.5,0.3-2.9,1.1c0.6,0.8,1.5,0.9,1.5,0.9s0.5,1.2,1.4,1.4c0,0,0.4,0.9,1.7,1c0,0,1.2,0.6,1.7,0.6
				c0,0,4.7,0.9,7.4,0.5c2.7-0.5,7.3-0.7,7.3-0.7L488.9,257.8z"/>
			<g>
				<path class="st26" d="M527.6,204.1c0,0,7,1.1,9.9,12.4c2.9,11.4-2.9,35.4-5,43.4c-1.3,4.7-43.8,4.7-43.8,4.7s-0.8-4.9-0.8-8.2
					c0,0,29-4.7,35.1-8.5c0,0-1.3-19.4-1.6-26.9C521.2,213.4,520.4,204.8,527.6,204.1z"/>
			</g>
		</g>
		<path class="st28" d="M499.3,198.3c0,0,0,4.5,2.5,6.6c0,0-2.7,2.1-4.2,4.6c-1-5.3,0.3-9.8,0.3-9.8L499.3,198.3z"/>
		<path class="st28" d="M511.3,198.2c0,0-3.5,5.7-9.4,6.8c0,0,2,3.3,3.1,6.1c2.9-2,7.1-7.1,7.9-11.2L511.3,198.2z"/>
		<g>
			<path class="st24" d="M506.9,174.4c-0.2,0.9-0.2,2,0.3,2.8c0.4,0.8,1.2,1.3,1.8,1.9s1.3,1.3,1.4,2.2c1.6-0.8,3.2-1.8,4.4-3.1
				c1.2-1.4,1.9-3.2,1.6-5c-0.3-1.8-1.8-3.4-3.7-3.7c-1.5-0.3-3.2,0.2-4.2,1.3c-0.4,0.4-0.5,0.8-0.7,1.3
				C507.5,172.9,507.1,173.6,506.9,174.4z"/>
		</g>
		<g>
			<path class="st24" d="M507.8,165.9c-3.3-1.2-6.9-2.2-10.5-1.9c-2.2,0.2-4.5,0.9-5.8,2.5s-1.6,3.9-0.1,5.3c1,1,2.5,1.3,4,1.6
				c3.7,0.8,7.5,1.3,11.3,0.9c2.7-0.3,5.3-1.4,6-3.9C513.4,168.1,509.8,166.6,507.8,165.9z"/>
		</g>
	</g>
	<g>
		<g>
			<polygon class="st23" points="223.3,445.2 230.3,445.2 231.2,434.8 222.6,434 			"/>
			<g>
				<path class="st24" d="M223.3,445.2c0,0-1.8,2.2-1.1,7.2c0.3,2.3,5.4,2.2,14.1,2.2s6.7,0,6.7,0s2.5-2.7-1.5-3.9
					c-9.7-3-11.2-5.4-11.2-5.4H223.3z"/>
			</g>
		</g>
		<g>
			<polygon class="st23" points="189.4,446.9 181.1,446.7 182.6,434.6 190.3,435.8 			"/>
			<g>
				<path class="st24" d="M178.2,454.5c-0.9-3.2,1.3-5.5,2-8.3c0.4-1.7,9.1-2.8,10,1c0.8,3.6,0.2,7.3,0.2,7.3H178.2z"/>
			</g>
		</g>
		<g>
			<path class="st24" d="M227.5,195.3c0,0,4.5,1.4,4.1,7.7c-0.4,6.3-1.9,9.4-0.1,16.1s2.9,15.3-8.5,14.6s-14.8-1.7-18.6,0.5
				s-14.6-7.6-9.4-14.2c5.2-6.7,7.4-10.6,6.4-16.4c-1-5.8,3.5-11.5,10.6-13.2C218.1,188.9,230.1,188.3,227.5,195.3z"/>
		</g>
		<g>
			<g>
				<path class="st26" d="M197.6,255.3c1.5,7.6,1.3,13.2,1.3,26.4h32.9c0,0-0.9-10.7,0.6-17.2c0.3-1.2,0.6-2.2,1.1-3
					c2.4-3.8,4.4-7.2,4.5-11.1c0-0.9-0.1-1.9-0.4-2.9c-1.4-5.1-3.4-16.2-5.9-19.4c-2.5-3.1-15.1-2.7-15.1-2.7s-16.5,0.1-21.4,2.8
					c-1.3,0.7-1.8,2.4-1.9,4.4C192.8,238.8,196.4,249.2,197.6,255.3z"/>
			</g>
			<path class="st31" d="M202.5,257.9c0,0,23.1,1.9,29.9,6.5c0.3-1.2,0.6-2.2,1.1-3c2.4-3.8,4.4-7.2,4.5-11.1
				c-1.5,3.2-5.4,7.4-15.3,7.5C206.7,258.1,202.5,257.9,202.5,257.9z"/>
		</g>
		<g>
			<path class="st23" d="M159.8,236.1L157,233c0,0-1.8-3.3-2.6-4.5s-3.2-3.4-3.7-3.9c-0.5-0.5-0.9,0.5-0.4,1.4c0.5,0.9,1.3,3,1.3,3
				s-5.3-3.6-6.8-4.5s-2.2-0.2-2.1,0.2c0,0-0.9,0.8-0.2,1.5c0,0-0.8,0.9,0.3,1.8c0,0-0.9,0.9,0.8,1.9c1.7,1.1,2.6,4.4,5.2,5.4
				c2.6,1,5.4,3.1,6.9,4.8L159.8,236.1z"/>
			<g>
				<path class="st26" d="M202.5,229.5c0,0,1.5,10.2-4.5,19.2c-6.1,9.1-13.4,18.8-18,19.3c-4.5,0.5-25.9-28.6-25.9-28.6l5.2-5.7
					l19.9,18.7c0,0,7.4-12,9.1-15.2c1.8-3.5,5.6-10.3,9.5-9.6C201.6,228.2,202.5,229.5,202.5,229.5z"/>
			</g>
		</g>
		<g>
			<path class="st23" d="M266.1,231.2l2.7-3.1c0,0,1.8-3.3,2.6-4.5s3.2-3.4,3.7-3.9c0.5-0.5,0.9,0.5,0.4,1.4c-0.5,0.9-1.3,3-1.3,3
				s5.3-3.6,6.8-4.5c1.5-0.9,2.2-0.2,2.1,0.2c0,0,1,0.8,0.2,1.5c0,0,0.8,0.9-0.3,1.8c0,0,0.9,0.9-0.8,1.9c-1.7,1.1-2.6,4.4-5.2,5.4
				c-2.6,1-5.4,3.1-6.9,4.8L266.1,231.2z"/>
			<g>
				<path class="st26" d="M222.3,232.6c0,0,4.1,4,11.8,11.7c6.9,6.9,14.5,11.4,18.4,8.9c3.9-2.4,21-20.4,21-20.4l-5.2-5.1
					l-17.9,15.4c0,0-11.8-11.3-14.2-13.1c-2.5-1.9-10.7-5.4-13.4-2.5C220.2,230.4,222.3,232.6,222.3,232.6z"/>
			</g>
		</g>
		<g>
			<g>
				<path class="st23" d="M224.8,225.8c0,0,0.1,6.4-4.3,10.1c0,0-9.3-4.3-12.6-10.1C207.9,225.8,216.6,224.8,224.8,225.8z"/>
				<path class="st23" d="M222.9,225.6c0,0-2.3-0.2-2.3-2.9c0-2.7-0.3-7.8-0.3-7.8l-8.6,0.7c0,0,0.7,8.4-0.7,10
					c-1.4,1.6-1.4,1.6-1.4,1.6S221.5,229.2,222.9,225.6z"/>
			</g>
			<path class="st29" d="M220.6,221.6c0,0-5.7,0.9-8.7-1.5l-0.2-4.4l8.9,1.9L220.6,221.6L220.6,221.6z"/>
		</g>
		<g>
			<path class="st23" d="M227.5,199c0,0,4.8,21.6-6.1,22.5c-10.9,0.9-11.6-10.4-11.6-10.4s-2.6-1-2.8-3.4c-0.1-2.3,3-1.1,3-1.1
				s-1.7-8.9,5.1-10.8C222.3,193.7,226.6,195.8,227.5,199z"/>
			<g>
				<path class="st24" d="M226.9,196.3c0,0-4,11.2-16.8,10.3c0,0-2.2-8.6,0.5-11.8C213.3,191.6,223.8,190.8,226.9,196.3z"/>
			</g>
		</g>
		<g>
			<path class="st25" d="M198.9,281.7c0,0-14.8,22.9-18.6,160.4h10.3c0,0,21.1-93,23.6-120.8c0.3,1.9,7.5,120.8,7.5,120.8h10.3
				c0,0,13.3-144.5-0.2-160.4H198.9z"/>
			<polygon class="st30" points="214.3,321.2 217.9,304.3 215.6,337 			"/>
		</g>
	</g>
	<g>
		<g>
			<g>
				<path class="st32" d="M620.5,445.1c-5.6-3.4,16-61,26-85.6c9.8-24.1-24.8-33.1-32.9-3.7C609.4,370.9,609.2,426.6,620.5,445.1z"
					/>
				<path class="st33" d="M620.5,445.1c0,0-11.4-56.3,11.8-96.8"/>
			</g>
			<g>
				<path class="st32" d="M602.8,376.7c-17.4-24.7-34.8-4.5-23.2,12.6s41,55.6,41,55.6S620.2,401.4,602.8,376.7z"/>
				<path class="st34" d="M620.6,445c0,0-13.8-40.8-32.3-65.8"/>
			</g>
			<g>
				<path class="st32" d="M648.5,382c23.7-14.1,27.8,5.2,17.5,17.4c-10.3,12.2-47.9,42.2-47.9,42.2S624.8,396.1,648.5,382z"/>
				<path class="st34" d="M618.4,439.4c0,0,10.1-23.1,42-50.4"/>
			</g>
		</g>
		<g>
			<rect x="606.7" y="436" class="st25" width="24" height="4.9"/>
			<polygon class="st35" points="611,455.1 626.5,455.1 629.5,440.9 608,440.9 			"/>
		</g>
	</g>
	<g>
		<g>
			<g>
				<path class="st32" d="M134.5,376.9c13-27.3,33.5-10.3,25,8.5s-31,61.8-31,61.8S121.5,404.2,134.5,376.9z"/>
				<path class="st33" d="M128.5,447.2c0,0,6.8-42.5,20.8-70.3"/>
			</g>
			<g>
				<path class="st32" d="M102,380.9c-21.5-17.3-28.3,1.3-19.8,14.8s41.5,48.5,41.5,48.5S123.5,398.2,102,380.9z"/>
				<path class="st33" d="M123.7,441.9c0,0-6.8-24.3-34.5-55.8"/>
			</g>
			<g>
				<path class="st32" d="M126,444.2c0,0-24.4-65.3-19.1-92.3s31.2-13.5,30.5,5S126,444.2,126,444.2z"/>
				<path class="st33" d="M126,444.2c0,0-3.3-59.5-4.3-92.3"/>
			</g>
		</g>
		<g>
			<rect x="114.6" y="436" class="st25" width="24" height="4.9"/>
			<polygon class="st35" points="134.3,455.1 118.9,455.1 115.9,440.9 137.3,440.9 			"/>
		</g>
	</g>
</g>
</svg>
